{
.appVersion = "3418";
.formatVersion = 3;
DisplayStrings = (
INVhsbonndnnlnognnnrpqWMHB,
"AÆE",
"a/Placeholder a b/Placeholder b c/Placeholder c d/Placeholder d e/Placeholder e f/Placeholder f g/Placeholder g h/Placeholder h i/Placeholder i jjj k/Placeholder k l/Placeholder l m/Placeholder m n/Placeholder n o/Placeholder o p/Placeholder p q/Placeholder q r/Placeholder r s/Placeholder s t/Placeholder t u/Placeholder u v/Placeholder v w/Placeholder w x/Placeholder x y/Placeholder y z/Placeholder z
nnhnonnmonnn/Placeholder no/Placeholder oonnnmhnomnh

abcdefghijklmnopqrstuvwxyz

fear fall kilo long ovoide want wind oxo zapato

Twombli Tgmaiwan Taiwan Tomato Temperture Tiro Twardock Walking Wonder Wc Wd Wrcnder You Family Fear Furor Vocal Viajar Zusam Pearl Point Pain Ayuda 
Kilo Londres Leon Lio Month Lyon Tt

Thng Tt tt Nht Vng Đng Bt Đc k. ngi Ngng",
".:…,?!¡¿"
);
customParameters = (
{
name = vendorID;
value = "STC ";
},
{
name = panose;
value = (
2,
3,
5,
2,
7,
8,
0,
3,
3,
3
);
},
{
name = unicodeRanges;
value = (
0,
1,
2,
3,
5,
7,
29,
31,
33,
35,
38,
45,
62
);
},
{
name = fsType;
value = (
);
},
{
name = glyphOrder;
value = (
.notdef,
.null,
CR,
uni0001,
uni0002,
uni0003,
uni0004,
uni0005,
uni0006,
uni0007,
uni0008,
uni0009,
uni0010,
uni0011,
uni0012,
uni0013,
uni0014,
uni0015,
uni0016,
uni0017,
uni0018,
uni0019,
space,
exclam,
quotedbl,
numbersign,
dollar,
percent,
ampersand,
quotesingle,
parenleft,
parenright,
asterisk,
plus,
comma,
hyphen,
period,
slash,
zero,
one,
two,
three,
four,
five,
six,
seven,
eight,
nine,
colon,
semicolon,
less,
equal,
greater,
question,
at,
A,
B,
C,
D,
E,
F,
G,
H,
I,
J,
K,
L,
M,
N,
O,
P,
Q,
R,
S,
T,
U,
V,
W,
X,
Y,
Z,
bracketleft,
backslash,
bracketright,
asciicircum,
underscore,
grave,
a,
b,
c,
d,
e,
f,
g,
h,
i,
j,
k,
l,
m,
n,
o,
p,
q,
r,
s,
t,
u,
v,
w,
x,
y,
z,
braceleft,
bar,
braceright,
asciitilde,
nonbreakingspace,
exclamdown,
cent,
sterling,
currency,
yen,
brokenbar,
section,
dieresis,
copyright,
ordfeminine,
guillemotleft,

glyphs = (
{
glyphname = .notdef;
lastChange = "2025-07-10 15:48:07 +0000";
layers = (
{
layerId = m01;
shapes = (
{
closed = 1;
nodes = (
(664,0,l),
(664,639,l),
(81,639,l),
(81,0,l)
);
},
{
closed = 1;
nodes = (
(163,479,l),
(208,523,l),
(373,358,l),
(533,519,l),
(576,476,l),
(416,315,l),
(580,150,l),
(535,106,l),
(371,271,l),
(210,110,l),
(167,153,o),
(167,153,q),
(328,314,l)
);
}
);
userData = {
assembly = "NPUSHB[ ]	/* 6 values pushed */
14 8 0 2 2 13
CALL[ ]	/* CallFunction */";
};
width = 746;
}
);
note = .notdef;
},
{
glyphname = exclam;
lastChange = "2025-07-10 15:48:07 +0000";
layers = (
{
layerId = m01;
shapes = (
{
closed = 1;
nodes = (
(104,775,l),
(83,775,o),
(83,755,qs),
(83,742,o),
(93,690,o),
(97,664,qs),
(107,585,ls),
(115,534,o),
(133,369,qs),
(138,330,o),
(144,265,o),
(155,230,o),
(178,230,o),
(189,265,o),
(196,331,o),
(201,372,qs),
(221,542,ls),
(227,587,o),
(238,671,qs),
(242,697,o),
(251,743,o),
(251,755,qs),
(251,775,o),
(230,775,q),
(167,771,l)
);
},
{
closed = 1;
nodes = (
(149,-12,o),
(197,-12,o),
(218,7,qs),
(228,16,o),
(240,41,o),
(240,84,o),
(222,105,qs),
(213,116,o),
(187,129,o),
(137,129,o),
(116,107,qs),
(106,98,o),
(96,71,o),
(96,46,o),
(104,21,o),
(122,1,o)
);
}
);
userData = {
assembly = "NPUSHB[ ]	/* 14 values pushed */
1 0 39 38 31 30 12 11 0 24 1 22 5 8
CALL[ ]	/* CallFunction */
MPPEM[ ]	/* MeasurePixelPerEm */
PUSHB[ ]	/* 1 value pushed */
9
LT[ ]	/* LessThan */
IF[ ]	/* If */
NPUSHB[ ]	/* 27 values pushed */
0 1 1 0 1 0 39 4 1 0 0 12 34 0 2 2 3 1 0 39 0 3 3 13 3 35 4
ELSE[ ]	/* Else */
MPPEM[ ]	/* MeasurePixelPerEm */
PUSHB[ ]	/* 1 value pushed */
13
LT[ ]	/* LessThan */
IF[ ]	/* If */
NPUSHB[ ]	/* 27 values pushed */
0 1 1 0 1 0 39 4 1 0 0 12 34 0 2 2 3 1 0 39 0 3 3 16 3 35 4
ELSE[ ]	/* Else */
MPPEM[ ]	/* MeasurePixelPerEm */
PUSHB[ ]	/* 1 value pushed */
17
LT[ ]	/* LessThan */
IF[ ]	/* If */
NPUSHB[ ]	/* 27 values pushed */
0 1 1 0 1 0 39 4 1 0 0 12 34 0 2 2 3 1 0 39 0 3 3 13 3 35 4
ELSE[ ]	/* Else */
MPPEM[ ]	/* MeasurePixelPerEm */
PUSHB[ ]	/* 1 value pushed */
21
LT[ ]	/* LessThan */
IF[ ]	/* If */
NPUSHB[ ]	/* 27 values pushed */
0 1 1 0 1 0 39 4 1 0 0 12 34 0 2 2 3 1 0 39 0 3 3 16 3 35 4
ELSE[ ]	/* Else */
NPUSHB[ ]	/* 27 values pushed */
0 1 1 0 1 0 39 4 1 0 0 12 34 0 2 2 3 1 0 39 0 3 3 13 3 35 4
EIF[ ]	/* EndIf */
EIF[ ]	/* EndIf */
EIF[ ]	/* EndIf */
EIF[ ]	/* EndIf */
PUSHB[ ]	/* 1 value pushed */
59
CALL[ ]	/* CallFunction */";
};
width = 334;
}
);
note = exclam;
unicode = 33;
},
{
glyphname = numbersign;
lastChange = "2025-07-10 15:48:07 +0000";
layers = (
{
layerId = m01;
shapes = (
{
closed = 1;
nodes = (
(211,10,o),
(214,24,qs),
(266,248,l),
(431,248,l),
(392,81,ls),
(388,65,o),
(386,56,qs),
(383,39,ls),
(381,33,o),
(381,26,o),
(381,10,o),
(398,-12,o),
(431,-12,o),
(453,10,o),
(457,24,qs),
(508,248,l),
(609,248,ls),
(626,248,o),
(651,268,o),
(651,302,o),
(625,321,o),
(608,321,qs),
(525,321,l),
(556,454,l),
(659,454,ls),
(676,454,o),
(701,474,o),
(701,509,o),
(675,527,o),
(658,527,qs),
(573,527,l),
(613,701,ls),
(619,729,o),
(619,748,qs),
(619,758,o),
(600,775,o),
(587,775,qs),
(553,775,o),
(538,706,qs),
(496,527,l),
(332,527,l),
(372,701,ls),
(377,729,o),
(377,748,qs),
(377,758,o),
(358,775,o),
(337,775,o),
(330,771,qs),
(310,761,o),
(296,706,qs),
(254,527,l),
(129,527,ls),
(113,527,o),
(86,509,o),
(86,474,o),
(112,454,o),
(128,454,qs),
(237,454,l),
(206,321,l),
(85,321,ls),
(68,321,o),
(42,302,o),
(42,268,o),
(67,248,o),
(84,248,qs),
(189,248,l),
(150,81,ls),
(146,65,o),
(144,56,qs),
(141,39,ls),
(140,33,o),
(139,26,o),
(139,10,o),
(157,-12,o),
(189,-12,o)
);
},
{
closed = 1;
nodes = (
(314,454,l),
(479,454,l),
(447,321,l),
(283,321,l)
);
}
);
userData = {
assembly = "NPUSHB[ ]	/* 42 values pushed */
75 75 0 0 75 78 75 78 77 76 0 74 0 74 71 70 62 61 58 56 53 51 50 48 45 43 38 36 34 33 28 27 23 21 18 16 15 13 10 8 18 8
CALL[ ]	/* CallFunction */
MPPEM[ ]	/* MeasurePixelPerEm */
PUSHB[ ]	/* 1 value pushed */
9
LT[ ]	/* LessThan */
IF[ ]	/* If */
NPUSHB[ ]	/* 46 values pushed */
17 15 9 3 1 12 10 2 0 11 1 0 1 0 41 6 1 4 4 12 34 14 8 2 2 2 3 1 0 39 7 5 2 3 3 15 34 16 13 2 11 11 13 11 35 5
ELSE[ ]	/* Else */
MPPEM[ ]	/* MeasurePixelPerEm */
PUSHB[ ]	/* 1 value pushed */
11
LT[ ]	/* LessThan */
IF[ ]	/* If */
NPUSHB[ ]	/* 46 values pushed */
17 15 9 3 1 12 10 2 0 11 1 0 1 0 41 6 1 4 4 12 34 14 8 2 2 2 3 1 0 39 7 5 2 3 3 21 34 16 13 2 11 11 16 11 35 5
ELSE[ ]	/* Else */
MPPEM[ ]	/* MeasurePixelPerEm */
PUSHB[ ]	/* 1 value pushed */
13
LT[ ]	/* LessThan */
IF[ ]	/* If */
NPUSHB[ ]	/* 46 values pushed */
17 15 9 3 1 12 10 2 0 11 1 0 1 0 41 6 1 4 4 12 34 14 8 2 2 2 3 1 0 39 7 5 2 3 3 15 34 16 13 2 11 11 16 11 35 5
ELSE[ ]	/* Else */
MPPEM[ ]	/* MeasurePixelPerEm */
PUSHB[ ]	/* 1 value pushed */
17
LT[ ]	/* LessThan */
IF[ ]	/* If */
NPUSHB[ ]	/* 46 values pushed */
17 15 9 3 1 12 10 2 0 11 1 0 1 0 41 6 1 4 4 12 34 14 8 2 2 2 3 1 0 39 7 5 2 3 3 21 34 16 13 2 11 11 13 11 35 5
ELSE[ ]	/* Else */
MPPEM[ ]	/* MeasurePixelPerEm */
PUSHB[ ]	/* 1 value pushed */
21
LT[ ]	/* LessThan */
IF[ ]	/* If */
NPUSHB[ ]	/* 46 values pushed */
17 15 9 3 1 12 10 2 0 11 1 0 1 0 41 6 1 4 4 12 34 14 8 2 2 2 3 1 0 39 7 5 2 3 3 21 34 16 13 2 11 11 16 11 35 5
ELSE[ ]	/* Else */
NPUSHB[ ]	/* 46 values pushed */
17 15 9 3 1 12 10 2 0 11 1 0 1 0 41 6 1 4 4 12 34 14 8 2 2 2 3 1 0 39 7 5 2 3 3 21 34 16 13 2 11 11 13 11 35 5
EIF[ ]	/* EndIf */
EIF[ ]	/* EndIf */
EIF[ ]	/* EndIf */
EIF[ ]	/* EndIf */
EIF[ ]	/* EndIf */
PUSHB[ ]	/* 1 value pushed */
59
CALL[ ]	/* CallFunction */";
};
width = 745;
}
);
note = numbersign;
unicode = 35;
},
{
glyphname = dollar;
lastChange = "2025-07-10 15:48:07 +0000";
layers = (
{
layerId = m01;
shapes = (
{
closed = 1;
nodes = (
(315,-141,o),
(343,-141,qs),
(368,-141,o),
(368,-103,qs),
(368,-11,l),
(491,-6,o),
(562,54,qs),
(596,82,o),
(632,162,o),
(632,252,o),
(618,289,qs),
(574,401,o),
(368,453,q),
(368,712,l),
(502,700,o),
(560,583,qs),
(566,569,o),
(576,556,o),
(583,556,qs),
(598,556,o),
(598,598,o),
(582,663,qs),
(570,708,o),
(567,756,qs),
(566,775,o),
(560,786,o),
(543,786,o),
(525,762,qs),
(514,747,o),
(507,748,qs),
(504,748,o),
(495,752,qs),
(440,772,o),
(368,774,q),
(368,865,ls),
(368,904,o),
(315,904,o),
(315,865,qs),
(315,773,l),
(201,764,o),
(138,700,qs),
(82,644,o),
(82,564,qs),
(82,485,o),
(134,429,qs),
(193,365,o),
(315,334,q),
(315,54,l),
(229,64,o),
(181,120,qs),
(157,146,o),
(129,219,o),
(121,293,o),
(105,293,qs),
(85,293,o),
(85,234,qs),
(85,63,l),
(211,-3,o),
(315,-10,q),
(315,-101,ls)
);
},
{
closed = 1;
nodes = (
(275,482,o),
(250,498,qs),
(185,540,o),
(185,611,qs),
(185,698,o),
(315,711,q),
(315,468,l)
);
},
{
closed = 1;
nodes = (
(453,298,o),
(490,258,qs),
(509,239,o),
(525,196,o),
(525,145,o),
(518,124,qs),
(496,56,o),
(368,52,q),
(368,321,l)
);
}
);
userData = {
assembly = "NPUSHB[ ]	/* 22 values pushed */
68 67 58 56 54 53 41 39 33 32 29 28 26 25 23 22 6 4 1 0 10 8
CALL[ ]	/* CallFunction */
MPPEM[ ]	/* MeasurePixelPerEm */
PUSHB[ ]	/* 1 value pushed */
19
LT[ ]	/* LessThan */
IF[ ]	/* If */
NPUSHB[ ]	/* 82 values pushed */
20 1 3 2 35 1 4 3 60 45 2 6 4 75 66 46 12 4 1 6 2 1 9 1 11 1 0 9 6 33 0 4 3 6 3 4 6 53 0 6 1 3 6 1 51 0 1 9 3 1 9 51 0 2 0 8 2 8 1 0 40 5 1 3 3 12 34 0 9 9 0 1 2 39 7 1 0 0 13 0 35 8
ELSE[ ]	/* Else */
NPUSHB[ ]	/* 86 values pushed */
20 1 3 5 35 1 4 3 60 45 2 6 4 75 66 46 12 4 1 6 2 1 9 1 11 1 0 9 6 33 0 4 3 6 3 4 6 53 0 6 1 3 6 1 51 0 1 9 3 1 9 51 0 2 0 8 2 8 1 0 40 0 5 5 18 34 0 3 3 12 34 0 9 9 0 1 2 39 7 1 0 0 13 0 35 9
EIF[ ]	/* EndIf */
PUSHB[ ]	/* 1 value pushed */
59
CALL[ ]	/* CallFunction */";
};
width = 707;
}
);
note = dollar;
unicode = 36;
},
{
glyphname = percent;
lastChange = "2025-07-10 15:48:07 +0000";
layers = (
{
layerId = m01;
shapes = (
{
closed = 1;
nodes = (
(229,23,qs),
(755,700,ls),
(778,730,o),
(778,750,qs),
(778,760,o),
(761,775,o),
(734,775,o),
(709,754,o),
(691,730,qs),
(183,77,ls),
(149,34,o),
(149,15,qs),
(149,4,o),
(166,-12,o),
(201,-12,o)
);
},
{
closed = 1;
nodes = (
(373,469,qs),
(429,520,o),
(429,604,qs),
(429,678,o),
(378,725,qs),
(325,775,o),
(242,775,qs),
(163,775,o),
(108,723,qs),
(54,670,o),
(54,598,qs),
(54,528,o),
(96,479,qs),
(118,454,o),
(190,421,o),
(235,421,qs),
(320,421,o)
);
},
{
closed = 1;
nodes = (
(151,592,o),
(151,653,o),
(157,673,qs),
(174,730,o),
(225,730,qs),
(267,730,o),
(298,684,qs),
(313,662,o),
(331,602,o),
(331,512,o),
(311,486,qs),
(301,474,o),
(277,464,o),
(243,464,o),
(203,489,o),
(171,532,o)
);
},
{
closed = 1;
nodes = (
(529,47,qs),
(580,-12,o),
(677,-12,qs),
(754,-12,o),
(807,36,qs),
(862,87,o),
(862,171,qs),
(862,244,o),
(813,292,qs),
(761,342,o),
(676,342,qs),
(597,342,o),
(542,289,qs),
(517,265,o),
(488,201,o),
(488,168,qs),
(488,95,o)
);
},
{
closed = 1;
nodes = (
(659,298,qs),
(700,298,o),
(731,251,qs),
(747,229,o),
(765,168,o),
(765,103,o),
(759,84,qs),
(744,31,o),
(698,31,qs),
(654,31,o),
(621,78,qs),
(605,100,o),
(586,159,o),
(586,220,o),
(592,240,qs),
(608,298,o)
);
}
);
userData = {
assembly = "NPUSHB[ ]	/* 30 values pushed */
16 15 0 0 80 78 72 70 62 60 54 52 43 41 34 33 25 23 15 31 16 31 0 14 0 14 8 7 12 8
CALL[ ]	/* CallFunction */
MPPEM[ ]	/* MeasurePixelPerEm */
PUSHB[ ]	/* 1 value pushed */
9
LT[ ]	/* LessThan */
IF[ ]	/* If */
NPUSHB[ ]	/* 50 values pushed */
0 4 11 1 2 6 4 2 1 0 41 0 6 0 9 8 6 9 1 0 41 0 5 5 0 1 0 39 3 1 0 0 12 34 0 8 8 1 1 2 39 7 10 2 1 1 13 1 35 6
ELSE[ ]	/* Else */
MPPEM[ ]	/* MeasurePixelPerEm */
PUSHB[ ]	/* 1 value pushed */
13
LT[ ]	/* LessThan */
IF[ ]	/* If */
NPUSHB[ ]	/* 50 values pushed */
0 4 11 1 2 6 4 2 1 0 41 0 6 0 9 8 6 9 1 0 41 0 5 5 0 1 0 39 3 1 0 0 12 34 0 8 8 1 1 2 39 7 10 2 1 1 16 1 35 6
ELSE[ ]	/* Else */
MPPEM[ ]	/* MeasurePixelPerEm */
PUSHB[ ]	/* 1 value pushed */
17
LT[ ]	/* LessThan */
IF[ ]	/* If */
NPUSHB[ ]	/* 50 values pushed */
0 4 11 1 2 6 4 2 1 0 41 0 6 0 9 8 6 9 1 0 41 0 5 5 0 1 0 39 3 1 0 0 12 34 0 8 8 1 1 2 39 7 10 2 1 1 13 1 35 6
ELSE[ ]	/* Else */
MPPEM[ ]	/* MeasurePixelPerEm */
PUSHB[ ]	/* 1 value pushed */
21
LT[ ]	/* LessThan */
IF[ ]	/* If */
NPUSHB[ ]	/* 50 values pushed */
0 4 11 1 2 6 4 2 1 0 41 0 6 0 9 8 6 9 1 0 41 0 5 5 0 1 0 39 3 1 0 0 12 34 0 8 8 1 1 2 39 7 10 2 1 1 16 1 35 6
ELSE[ ]	/* Else */
NPUSHB[ ]	/* 50 values pushed */
0 4 11 1 2 6 4 2 1 0 41 0 6 0 9 8 6 9 1 0 41 0 5 5 0 1 0 39 3 1 0 0 12 34 0 8 8 1 1 2 39 7 10 2 1 1 13 1 35 6
EIF[ ]	/* EndIf */
EIF[ ]	/* EndIf */
EIF[ ]	/* EndIf */
EIF[ ]	/* EndIf */
PUSHB[ ]	/* 1 value pushed */
59
CALL[ ]	/* CallFunction */";
};
width = 916;
}
);
note = percent;
unicode = 37;
},
{
glyphname = ampersand;
lastChange = "2025-07-10 16:21:39 +0000";
layers = (
{
layerId = m01;
shapes = (
{
closed = 1;
nodes = (
(683,-2,o),
(702,-2,qs),
(751,0,l),
(821,-4,l),
(875,-4,o),
(875,23,qs),
(875,30,o),
(864,39,o),
(855,39,q),
(831,35,l),
(802,35,o),
(787,51,qs),
(647,188,l),
(700,252,o),
(750,343,q),
(779,404,o),
(815,405,q),
(839,402,l),
(847,402,o),
(862,420,o),
(862,450,o),
(854,458,qs),
(849,462,o),
(833,467,o),
(802,467,o),
(769,460,o),
(729,460,o),
(684,467,o),
(656,467,qs),
(601,467,o),
(601,436,qs),
(601,420,o),
(615,403,o),
(625,403,q),
(657,406,l),
(689,406,o),
(689,382,qs),
(689,324,o),
(610,224,q),
(500,327,ls),
(451,374,o),
(414,413,q),
(591,489,o),
(591,627,qs),
(591,692,o),
(542,733,qs),
(490,777,o),
(396,777,qs),
(291,777,o),
(229,724,qs),
(202,700,o),
(174,637,o),
(174,580,o),
(178,558,qs),
(190,489,o),
(269,403,q),
(169,359,o),
(125,307,qs),
(83,257,o),
(83,184,qs),
(83,101,o),
(149,46,qs),
(218,-11,o),
(331,-11,qs),
(461,-11,o),
(574,101,q),
(663,16,ls)
);
},
{
closed = 1;
nodes = (
(307,539,o),
(300,550,qs),
(282,579,o),
(282,618,qs),
(282,660,o),
(311,688,qs),
(339,716,o),
(381,716,qs),
(423,716,o),
(449,690,qs),
(464,676,o),
(483,628,o),
(483,563,o),
(461,526,qs),
(432,480,o),
(379,451,q),
(318,524,ls)
);
},
{
closed = 1;
nodes = (
(303,367,q),
(537,137,l),
(459,62,o),
(359,62,qs),
(286,62,o),
(245,96,qs),
(225,113,o),
(202,165,o),
(202,192,qs),
(202,306,o)
);
}
);
userData = {
assembly = "NPUSHB[ ]	/* 30 values pushed */
90 88 76 74 65 61 58 57 56 55 50 49 48 47 42 41 40 39 38 36 33 32 31 30 19 17 3 1 14 8
CALL[ ]	/* CallFunction */
MPPEM[ ]	/* MeasurePixelPerEm */
PUSHB[ ]	/* 1 value pushed */
13
LT[ ]	/* LessThan */
IF[ ]	/* If */
NPUSHB[ ]	/* 72 values pushed */
67 24 2 2 4 92 91 53 27 10 0 6 13 2 2 33 6 5 2 4 8 7 3 3 2 13 4 2 1 0 41 0 12 12 1 1 0 39 0 1 1 12 34 0 13 13 0 1 0 39 11 1 0 0 13 34 10 1 9 9 0 1 2 39 11 1 0 0 13 0 35 8
ELSE[ ]	/* Else */
MPPEM[ ]	/* MeasurePixelPerEm */
PUSHB[ ]	/* 1 value pushed */
17
LT[ ]	/* LessThan */
IF[ ]	/* If */
NPUSHB[ ]	/* 72 values pushed */
67 24 2 2 4 92 91 53 27 10 0 6 13 2 2 33 6 5 2 4 8 7 3 3 2 13 4 2 1 0 41 0 12 12 1 1 0 39 0 1 1 12 34 0 13 13 0 1 0 39 11 1 0 0 16 34 10 1 9 9 0 1 2 39 11 1 0 0 16 0 35 8
ELSE[ ]	/* Else */
MPPEM[ ]	/* MeasurePixelPerEm */
PUSHB[ ]	/* 1 value pushed */
21
LT[ ]	/* LessThan */
IF[ ]	/* If */
NPUSHB[ ]	/* 72 values pushed */
67 24 2 2 4 92 91 53 27 10 0 6 13 2 2 33 6 5 2 4 8 7 3 3 2 13 4 2 1 0 41 0 12 12 1 1 0 39 0 1 1 12 34 0 13 13 0 1 0 39 11 1 0 0 13 34 10 1 9 9 0 1 2 39 11 1 0 0 13 0 35 8
ELSE[ ]	/* Else */
NPUSHB[ ]	/* 72 values pushed */
67 24 2 2 4 92 91 53 27 10 0 6 13 2 2 33 6 5 2 4 8 7 3 3 2 13 4 2 1 0 41 0 12 12 1 1 0 39 0 1 1 12 34 0 13 13 0 1 0 39 11 1 0 0 16 34 10 1 9 9 0 1 2 39 11 1 0 0 16 0 35 8
EIF[ ]	/* EndIf */
EIF[ ]	/* EndIf */
EIF[ ]	/* EndIf */
PUSHB[ ]	/* 1 value pushed */
59
CALL[ ]	/* CallFunction */";
};
width = 918;
}
);
note = ampersand;
unicode = 38;
},
{
glyphname = quotesingle;
lastChange = "2025-07-10 15:48:07 +0000";
layers = (
{
layerId = m01;
shapes = (
{
closed = 1;
nodes = (
(148,457,q),
(183,457,l),
(193,508,o),
(203,547,qs),
(219,617,ls),
(225,647,o),
(233,693,o),
(233,741,o),
(197,775,o),
(143,775,o),
(104,741,o),
(104,686,o),
(118,617,qs),
(132,547,ls),
(140,508,o)
);
}
);
userData = {
assembly = "NPUSHB[ ]	/* 6 values pushed */
13 12 5 4 2 8
CALL[ ]	/* CallFunction */
NPUSHB[ ]	/* 14 values pushed */
0 1 1 0 1 0 39 0 0 0 12 1 35 2
PUSHB[ ]	/* 1 value pushed */
59
CALL[ ]	/* CallFunction */";
};
width = 332;
}
);
note = quotesingle;
unicode = 39;
},
{
glyphname = parenleft;
lastChange = "2025-07-10 15:48:07 +0000";
layers = (
{
layerId = m01;
shapes = (
{
closed = 1;
nodes = (
(258,6,qs),
(205,124,o),
(205,355,qs),
(205,479,o),
(219,564,qs),
(260,805,o),
(383,805,q),
(413,803,ls),
(417,803,o),
(429,813,o),
(429,827,qs),
(429,837,o),
(401,851,o),
(375,851,qs),
(316,851,o),
(210,788,o),
(170,726,qs),
(81,590,o),
(81,120,o),
(170,-16,qs),
(210,-78,o),
(316,-141,o),
(375,-141,qs),
(401,-141,o),
(429,-126,o),
(429,-117,qs),
(429,-114,o),
(428,-109,qs),
(423,-93,o),
(413,-93,q),
(383,-95,l),
(305,-95,o)
);
}
);
userData = {
assembly = "NPUSHB[ ]	/* 18 values pushed */
0 0 0 31 0 31 25 24 23 22 18 16 9 7 2 1 7 8
CALL[ ]	/* CallFunction */
NPUSHB[ ]	/* 26 values pushed */
6 5 2 0 0 1 0 1 1 0 40 4 1 3 3 2 1 0 39 0 2 2 14 3 35 3
PUSHB[ ]	/* 1 value pushed */
59
CALL[ ]	/* CallFunction */";
};
width = 501;
}
);
note = parenleft;
unicode = 40;
},
{
glyphname = asterisk;
lastChange = "2025-07-10 15:48:07 +0000";
layers = (
{
layerId = m01;
shapes = (
{
closed = 1;
nodes = (
(465,581,o),
(465,631,o),
(450,649,qs),
(442,658,o),
(422,669,o),
(387,669,o),
(357,647,qs),
(324,622,ls),
(302,604,o),
(270,591,q),
(270,620,o),
(289,667,qs),
(297,685,o),
(309,721,o),
(309,767,o),
(276,794,o),
(227,794,o),
(193,766,o),
(193,721,o),
(213,656,qs),
(224,620,o),
(227,594,q),
(211,598,o),
(194,611,qs),
(161,639,ls),
(144,653,o),
(107,676,o),
(77,676,o),
(67,671,qs),
(34,654,o),
(34,611,qs),
(34,557,o),
(119,557,qs),
(181,557,o),
(211,551,q),
(175,514,o),
(139,493,qs),
(118,481,o),
(106,469,qs),
(98,460,o),
(87,440,o),
(87,403,o),
(106,386,qs),
(115,378,o),
(137,370,o),
(174,370,o),
(188,386,qs),
(195,396,o),
(210,429,o),
(229,491,o),
(247,523,q),
(256,505,ls),
(260,495,o),
(268,475,o),
(274,456,o),
(288,402,o),
(302,383,qs),
(310,373,o),
(329,365,o),
(363,365,o),
(382,381,qs),
(391,388,o),
(403,410,o),
(403,441,o),
(385,464,o),
(369,477,qs),
(331,505,ls),
(310,521,o),
(284,548,q),
(314,552,o),
(351,552,qs),
(402,551,ls),
(431,551,o)
);
}
);
userData = {
assembly = "NPUSHB[ ]	/* 20 values pushed */
2 0 67 66 56 55 45 44 40 38 27 26 13 12 0 72 2 72 8 8
CALL[ ]	/* CallFunction */
NPUSHB[ ]	/* 43 values pushed */
62 50 2 0 4 21 3 2 1 0 2 33 37 1 0 1 32 2 1 1 0 1 56 6 1 4 3 7 2 0 1 4 0 1 0 41 0 5 5 18 5 35 5
PUSHB[ ]	/* 1 value pushed */
59
CALL[ ]	/* CallFunction */";
};
width = 500;
}
);
note = asterisk;
unicode = 42;
},
{
glyphname = plus;
lastChange = "2025-07-10 15:48:07 +0000";
layers = (
{
layerId = m01;
shapes = (
{
closed = 1;
nodes = (
(351,70,l),
(351,283,l),
(559,283,l),
(559,356,l),
(351,356,l),
(351,570,l),
(276,570,l),
(276,356,l),
(68,356,l),
(68,283,l),
(276,283,l),
(276,70,l)
);
}
);
userData = {
assembly = "NPUSHB[ ]	/* 14 values pushed */
11 10 9 8 7 6 5 4 3 2 1 0 6 8
CALL[ ]	/* CallFunction */
NPUSHB[ ]	/* 35 values pushed */
0 2 1 5 2 0 0 38 3 1 1 4 1 0 5 1 0 0 0 41 0 2 2 5 0 0 39 0 5 2 5 0 0 36 4
PUSHB[ ]	/* 1 value pushed */
59
CALL[ ]	/* CallFunction */";
};
width = 627;
}
);
note = plus;
unicode = 43;
},
{
glyphname = comma;
kernLeft = period;
lastChange = "2025-07-10 16:22:31 +0000";
layers = (
{
layerId = m01;
shapes = (
{
closed = 1;
nodes = (
(251,-46,o),
(251,18,qs),
(251,75,o),
(202,135,o),
(159,135,qs),
(141,135,o),
(127,129,qs),
(83,111,o),
(83,62,qs),
(83,9,o),
(139,-7,qs),
(164,-15,o),
(177,-31,o),
(177,-61,o),
(159,-83,qs),
(151,-93,o),
(125,-112,o),
(84,-131,o),
(84,-147,qs),
(84,-168,o),
(111,-168,qs),
(158,-168,o)
);
}
);
userData = {
assembly = "NPUSHB[ ]	/* 10 values pushed */
1 0 17 15 0 21 1 21 3 8
CALL[ ]	/* CallFunction */
NPUSHB[ ]	/* 24 values pushed */
0 1 0 0 1 1 0 38 0 1 1 0 1 0 39 2 1 0 1 0 1 0 36 3
PUSHB[ ]	/* 1 value pushed */
59
CALL[ ]	/* CallFunction */";
};
width = 334;
}
);
note = comma;
unicode = 44;
},
{
glyphname = hyphen;
lastChange = "2025-07-10 15:48:07 +0000";
layers = (
{
layerId = m01;
shapes = (
{
closed = 1;
nodes = (
(325,273,ls),
(342,273,o),
(363,292,o),
(363,327,o),
(341,345,o),
(324,345,qs),
(103,345,ls),
(85,345,o),
(64,327,o),
(64,292,o),
(84,273,o),
(102,273,qs)
);
}
);
userData = {
assembly = "NPUSHB[ ]	/* 10 values pushed */
0 0 0 11 0 9 6 3 3 8
CALL[ ]	/* CallFunction */
NPUSHB[ ]	/* 24 values pushed */
0 0 1 1 0 1 0 38 0 0 0 1 1 0 39 2 1 1 0 1 1 0 36 3
PUSHB[ ]	/* 1 value pushed */
59
CALL[ ]	/* CallFunction */";
};
width = 427;
}
);
note = hyphen;
unicode = 45;
},
{
glyphname = period;
kernLeft = period;
kernRight = period;
lastChange = "2025-07-10 16:22:27 +0000";
layers = (
{
layerId = m01;
shapes = (
{
closed = 1;
nodes = (
(145,-12,o),
(202,-12,o),
(228,14,qs),
(250,38,o),
(250,66,qs),
(250,100,o),
(230,124,qs),
(207,152,o),
(169,152,qs),
(132,152,o),
(107,126,qs),
(96,115,o),
(83,84,o),
(83,55,o),
(93,27,o),
(114,3,o)
);
}
);
userData = {
assembly = "NPUSHB[ ]	/* 6 values pushed */
14 13 7 5 2 8
CALL[ ]	/* CallFunction */
MPPEM[ ]	/* MeasurePixelPerEm */
PUSHB[ ]	/* 1 value pushed */
9
LT[ ]	/* LessThan */
IF[ ]	/* If */
NPUSHB[ ]	/* 14 values pushed */
0 0 0 1 1 0 39 0 1 1 13 1 35 2
ELSE[ ]	/* Else */
MPPEM[ ]	/* MeasurePixelPerEm */
PUSHB[ ]	/* 1 value pushed */
13
LT[ ]	/* LessThan */
IF[ ]	/* If */
NPUSHB[ ]	/* 14 values pushed */
0 0 0 1 1 0 39 0 1 1 16 1 35 2
ELSE[ ]	/* Else */
MPPEM[ ]	/* MeasurePixelPerEm */
PUSHB[ ]	/* 1 value pushed */
17
LT[ ]	/* LessThan */
IF[ ]	/* If */
NPUSHB[ ]	/* 14 values pushed */
0 0 0 1 1 0 39 0 1 1 13 1 35 2
ELSE[ ]	/* Else */
MPPEM[ ]	/* MeasurePixelPerEm */
PUSHB[ ]	/* 1 value pushed */
21
LT[ ]	/* LessThan */
IF[ ]	/* If */
NPUSHB[ ]	/* 14 values pushed */
0 0 0 1 1 0 39 0 1 1 16 1 35 2
ELSE[ ]	/* Else */
NPUSHB[ ]	/* 14 values pushed */
0 0 0 1 1 0 39 0 1 1 13 1 35 2
EIF[ ]	/* EndIf */
EIF[ ]	/* EndIf */
EIF[ ]	/* EndIf */
EIF[ ]	/* EndIf */
PUSHB[ ]	/* 1 value pushed */
59
CALL[ ]	/* CallFunction */";
};
width = 334;
}
);
note = period;
unicode = 46;
},
{
glyphname = slash;
lastChange = "2025-07-10 15:48:07 +0000";
layers = (
{
layerId = m01;
shapes = (
{
closed = 1;
nodes = (
(123,-105,qs),
(437,771,ls),
(448,798,o),
(448,818,qs),
(448,828,o),
(427,845,o),
(406,845,o),
(399,842,qs),
(377,834,o),
(356,776,qs),
(71,-19,ls),
(44,-92,o),
(44,-119,o),
(65,-141,o),
(110,-141,o)
);
}
);
userData = {
assembly = "NPUSHB[ ]	/* 10 values pushed */
0 0 0 14 0 14 8 7 3 8
CALL[ ]	/* CallFunction */
NPUSHB[ ]	/* 13 values pushed */
2 1 1 0 1 56 0 0 0 14 0 35 2
PUSHB[ ]	/* 1 value pushed */
59
CALL[ ]	/* CallFunction */";
};
width = 492;
}
);
note = slash;
unicode = 47;
},
{
glyphname = zero;
lastChange = "2025-07-10 15:48:07 +0000";
layers = (
{
layerId = m01;
shapes = (
{
closed = 1;
nodes = (
(229,39,qs),
(302,-11,o),
(387,-11,qs),
(518,-11,o),
(600,92,qs),
(689,206,o),
(689,406,qs),
(689,557,o),
(611,663,qs),
(526,777,o),
(384,777,qs),
(238,777,o),
(152,663,qs),
(111,609,o),
(68,462,o),
(68,391,qs),
(68,147,o)
);
},
{
closed = 1;
nodes = (
(189,365,o),
(189,579,o),
(235,645,qs),
(279,706,o),
(353,706,qs),
(447,706,o),
(506,604,qs),
(567,500,o),
(567,331,qs),
(567,189,o),
(521,120,qs),
(500,88,o),
(446,62,o),
(374,62,o),
(291,114,o),
(228,216,o)
);
}
);
userData = {
assembly = "NPUSHB[ ]	/* 10 values pushed */
28 26 19 18 14 12 6 4 4 8
CALL[ ]	/* CallFunction */
MPPEM[ ]	/* MeasurePixelPerEm */
PUSHB[ ]	/* 1 value pushed */
13
LT[ ]	/* LessThan */
IF[ ]	/* If */
NPUSHB[ ]	/* 26 values pushed */
0 3 3 0 1 0 39 0 0 0 12 34 0 2 2 1 1 0 39 0 1 1 13 1 35 4
ELSE[ ]	/* Else */
MPPEM[ ]	/* MeasurePixelPerEm */
PUSHB[ ]	/* 1 value pushed */
17
LT[ ]	/* LessThan */
IF[ ]	/* If */
NPUSHB[ ]	/* 26 values pushed */
0 3 3 0 1 0 39 0 0 0 12 34 0 2 2 1 1 0 39 0 1 1 16 1 35 4
ELSE[ ]	/* Else */
MPPEM[ ]	/* MeasurePixelPerEm */
PUSHB[ ]	/* 1 value pushed */
21
LT[ ]	/* LessThan */
IF[ ]	/* If */
NPUSHB[ ]	/* 26 values pushed */
0 3 3 0 1 0 39 0 0 0 12 34 0 2 2 1 1 0 39 0 1 1 13 1 35 4
ELSE[ ]	/* Else */
NPUSHB[ ]	/* 26 values pushed */
0 3 3 0 1 0 39 0 0 0 12 34 0 2 2 1 1 0 39 0 1 1 16 1 35 4
EIF[ ]	/* EndIf */
EIF[ ]	/* EndIf */
EIF[ ]	/* EndIf */
PUSHB[ ]	/* 1 value pushed */
59
CALL[ ]	/* CallFunction */";
};
width = 749;
}
);
note = zero;
unicode = 48;
},
{
glyphname = one;
lastChange = "2025-07-10 15:48:07 +0000";
layers = (
{
layerId = m01;
shapes = (
{
closed = 1;
nodes = (
(293,53,o),
(276,89,o),
(276,153,qs),
(276,613,ls),
(276,665,o),
(279,707,qs),
(281,723,o),
(283,746,o),
(283,775,o),
(270,775,qs),
(263,775,o),
(256,771,qs),
(229,750,ls),
(208,735,o),
(162,715,qs),
(141,705,o),
(98,688,o),
(33,663,o),
(33,650,qs),
(33,636,o),
(73,636,o),
(105,643,o),
(117,643,qs),
(143,643,o),
(163,586,o),
(163,524,qs),
(163,153,ls),
(163,123,o),
(160,101,qs),
(154,40,o),
(107,40,q),
(61,45,l),
(52,45,o),
(42,29,o),
(42,12,o),
(55,3,qs),
(61,-1,o),
(80,-7,o),
(118,-7,o),
(161,-4,qs),
(189,-1,ls),
(203,0,o),
(234,0,o),
(247,-1,qs),
(273,-4,ls),
(286,-5,o),
(301,-6,qs),
(355,-11,o),
(372,3,qs),
(377,8,o),
(381,18,o),
(381,29,o),
(372,43,o),
(363,43,q),
(331,40,l),
(314,40,o)
);
}
);
userData = {
assembly = "NPUSHB[ ]	/* 26 values pushed */
0 0 0 55 0 55 46 44 35 34 33 31 25 24 23 22 17 16 13 12 9 8 2 1 11 8
CALL[ ]	/* CallFunction */
NPUSHB[ ]	/* 40 values pushed */
49 1 6 8 1 33 7 1 6 8 0 8 6 0 53 0 8 8 12 34 10 9 5 4 4 0 0 1 1 0 39 3 2 2 1 1 13 1 35 5
PUSHB[ ]	/* 1 value pushed */
59
CALL[ ]	/* CallFunction */";
};
width = 416;
}
);
note = one;
unicode = 49;
},
{
glyphname = two;
lastChange = "2025-07-10 15:48:07 +0000";
layers = (
{
layerId = m01;
shapes = (
{
closed = 1;
nodes = (
(569,180,qs),
(489,97,o),
(347,97,qs),
(163,97,l),
(182,136,o),
(240,196,qs),
(278,235,o),
(371,305,qs),
(492,396,o),
(541,462,qs),
(589,525,o),
(589,592,qs),
(589,677,o),
(521,727,qs),
(489,751,o),
(397,777,o),
(261,777,o),
(189,751,qs),
(146,735,o),
(90,690,q),
(90,553,ls),
(90,529,o),
(109,529,qs),
(112,529,o),
(128,541,o),
(132,558,qs),
(148,625,o),
(201,666,qs),
(252,706,o),
(318,706,qs),
(383,706,o),
(419,678,qs),
(456,647,o),
(456,592,qs),
(456,527,o),
(421,473,qs),
(388,421,o),
(298,343,qs),
(166,228,o),
(112,148,qs),
(87,110,o),
(68,49,o),
(68,11,o),
(82,0,o),
(91,0,qs),
(544,0,l),
(555,49,o),
(565,80,qs),
(571,96,o),
(583,126,o),
(606,172,o),
(606,185,qs),
(606,198,o),
(593,198,qs),
(586,198,o)
);
}
);
userData = {
assembly = "NPUSHB[ ]	/* 18 values pushed */
1 0 52 50 38 37 32 30 25 23 10 8 0 54 1 54 7 8
CALL[ ]	/* CallFunction */
NPUSHB[ ]	/* 48 values pushed */
34 1 3 2 1 33 0 3 2 0 2 3 0 53 6 1 0 5 2 0 5 51 0 2 2 4 1 0 39 0 4 4 12 34 0 5 5 1 1 0 39 0 1 1 13 1 35 7
PUSHB[ ]	/* 1 value pushed */
59
CALL[ ]	/* CallFunction */";
};
width = 668;
}
);
note = two;
unicode = 50;
},
{
glyphname = three;
lastChange = "2025-07-10 15:48:07 +0000";
layers = (
{
layerId = m01;
shapes = (
{
closed = 1;
nodes = (
(508,56,qs),
(598,128,o),
(598,235,qs),
(598,317,o),
(546,373,qs),
(498,425,o),
(419,439,q),
(480,467,o),
(521,514,qs),
(561,561,o),
(561,608,qs),
(561,687,o),
(497,732,qs),
(467,754,o),
(380,777,o),
(297,777,o),
(268,772,qs),
(173,757,o),
(100,708,q),
(100,577,ls),
(100,553,o),
(114,553,qs),
(120,553,o),
(129,566,o),
(143,616,o),
(160,639,qs),
(208,706,o),
(305,706,qs),
(369,706,o),
(407,677,qs),
(446,647,o),
(446,593,qs),
(446,483,o),
(296,439,qs),
(223,417,o),
(223,398,qs),
(223,388,o),
(228,380,qs),
(230,375,o),
(237,370,o),
(253,370,o),
(275,376,qs),
(286,379,o),
(296,379,qs),
(370,379,o),
(428,328,qs),
(489,275,o),
(489,199,qs),
(489,133,o),
(438,95,qs),
(393,62,o),
(324,62,qs),
(252,62,o),
(200,93,qs),
(173,109,o),
(131,161,o),
(115,227,o),
(88,227,o),
(88,203,qs),
(88,55,l),
(184,-12,o),
(321,-12,qs),
(423,-12,o)
);
}
);
userData = {
assembly = "NPUSHB[ ]	/* 22 values pushed */
1 0 47 46 41 39 35 33 22 21 19 17 11 9 5 4 0 62 1 62 9 8
CALL[ ]	/* CallFunction */
MPPEM[ ]	/* MeasurePixelPerEm */
PUSHB[ ]	/* 1 value pushed */
9
LT[ ]	/* LessThan */
IF[ ]	/* If */
NPUSHB[ ]	/* 64 values pushed */
43 1 5 7 55 1 3 6 2 1 0 2 3 33 0 6 5 3 5 6 3 53 4 1 3 1 5 3 1 51 0 1 2 5 1 2 51 0 5 5 7 1 0 39 0 7 7 12 34 0 2 2 0 1 0 39 8 1 0 0 13 0 35 8
ELSE[ ]	/* Else */
MPPEM[ ]	/* MeasurePixelPerEm */
PUSHB[ ]	/* 1 value pushed */
13
LT[ ]	/* LessThan */
IF[ ]	/* If */
NPUSHB[ ]	/* 64 values pushed */
43 1 5 7 55 1 3 6 2 1 0 2 3 33 0 6 5 3 5 6 3 53 4 1 3 1 5 3 1 51 0 1 2 5 1 2 51 0 5 5 7 1 0 39 0 7 7 12 34 0 2 2 0 1 0 39 8 1 0 0 16 0 35 8
ELSE[ ]	/* Else */
MPPEM[ ]	/* MeasurePixelPerEm */
PUSHB[ ]	/* 1 value pushed */
17
LT[ ]	/* LessThan */
IF[ ]	/* If */
NPUSHB[ ]	/* 64 values pushed */
43 1 5 7 55 1 3 6 2 1 0 2 3 33 0 6 5 3 5 6 3 53 4 1 3 1 5 3 1 51 0 1 2 5 1 2 51 0 5 5 7 1 0 39 0 7 7 12 34 0 2 2 0 1 0 39 8 1 0 0 13 0 35 8
ELSE[ ]	/* Else */
MPPEM[ ]	/* MeasurePixelPerEm */
PUSHB[ ]	/* 1 value pushed */
21
LT[ ]	/* LessThan */
IF[ ]	/* If */
NPUSHB[ ]	/* 64 values pushed */
43 1 5 7 55 1 3 6 2 1 0 2 3 33 0 6 5 3 5 6 3 53 4 1 3 1 5 3 1 51 0 1 2 5 1 2 51 0 5 5 7 1 0 39 0 7 7 12 34 0 2 2 0 1 0 39 8 1 0 0 16 0 35 8
ELSE[ ]	/* Else */
NPUSHB[ ]	/* 64 values pushed */
43 1 5 7 55 1 3 6 2 1 0 2 3 33 0 6 5 3 5 6 3 53 4 1 3 1 5 3 1 51 0 1 2 5 1 2 51 0 5 5 7 1 0 39 0 7 7 12 34 0 2 2 0 1 0 39 8 1 0 0 13 0 35 8
EIF[ ]	/* EndIf */
EIF[ ]	/* EndIf */
EIF[ ]	/* EndIf */
EIF[ ]	/* EndIf */
PUSHB[ ]	/* 1 value pushed */
59
CALL[ ]	/* CallFunction */";
};
width = 666;
}
);
note = three;
unicode = 51;
},
{
glyphname = four;
lastChange = "2025-07-10 15:48:07 +0000";
layers = (
{
layerId = m01;
shapes = (
{
closed = 1;
nodes = (
(484,55,o),
(467,96,o),
(467,161,qs),
(467,228,l),
(522,228,o),
(558,218,qs),
(572,214,o),
(590,205,o),
(601,197,o),
(607,192,o),
(610,192,qs),
(616,192,o),
(629,230,qs),
(635,247,o),
(649,285,o),
(668,313,o),
(668,320,qs),
(668,332,o),
(655,332,qs),
(649,332,o),
(635,323,qs),
(627,318,o),
(617,313,qs),
(585,296,o),
(535,296,qs),
(467,296,l),
(467,746,ls),
(467,779,o),
(450,779,qs),
(441,779,o),
(417,753,o),
(403,736,q),
(403,737,l),
(40,294,ls),
(15,264,o),
(15,249,qs),
(15,241,o),
(33,228,o),
(59,228,qs),
(353,228,l),
(353,161,ls),
(353,96,o),
(342,70,qs),
(331,40,o),
(298,40,q),
(251,45,l),
(243,45,o),
(233,29,o),
(233,12,o),
(245,3,qs),
(251,-1,o),
(271,-7,o),
(309,-7,o),
(352,-4,qs),
(380,-1,ls),
(394,0,o),
(425,0,o),
(438,-1,qs),
(464,-4,ls),
(477,-5,o),
(492,-6,qs),
(546,-11,o),
(563,3,qs),
(568,8,o),
(572,18,o),
(572,29,o),
(563,43,o),
(553,43,q),
(522,40,l),
(505,40,o)
);
},
{
closed = 1;
nodes = (
(353,296,l),
(141,296,ls),
(121,296,o),
(121,300,qs),
(121,308,o),
(134,325,qs),
(353,592,l)
);
}
);
userData = {
assembly = "NPUSHB[ ]	/* 34 values pushed */
0 0 75 73 0 69 0 69 65 64 59 57 51 49 45 43 41 39 31 29 25 24 23 22 17 16 13 12 9 8 2 1 15 8
CALL[ ]	/* CallFunction */
NPUSHB[ ]	/* 61 values pushed */
76 37 36 3 9 7 1 33 0 9 7 8 7 9 8 53 0 10 6 0 6 10 0 53 13 1 8 11 1 6 10 8 6 1 0 41 0 7 7 12 34 14 12 5 4 4 0 0 1 1 0 39 3 2 2 1 1 13 1 35 7
PUSHB[ ]	/* 1 value pushed */
59
CALL[ ]	/* CallFunction */";
};
width = 669;
}
);
note = four;
unicode = 52;
},
{
glyphname = five;
lastChange = "2025-07-10 15:48:07 +0000";
layers = (
{
layerId = m01;
shapes = (
{
closed = 1;
nodes = (
(489,665,l),
(492,690,o),
(511,746,qs),
(523,782,ls),
(529,799,o),
(529,806,qs),
(529,819,o),
(516,819,qs),
(510,819,o),
(493,804,qs),
(467,780,o),
(415,769,qs),
(383,762,o),
(287,762,qs),
(134,762,ls),
(115,762,o),
(111,742,q),
(111,407,ls),
(111,384,o),
(127,384,qs),
(133,384,o),
(139,390,qs),
(154,402,ls),
(195,440,o),
(289,440,qs),
(375,440,o),
(430,380,qs),
(456,352,o),
(485,272,o),
(485,188,o),
(478,163,qs),
(447,56,o),
(323,56,qs),
(245,56,o),
(188,94,qs),
(160,112,o),
(119,165,o),
(99,213,o),
(90,227,o),
(83,227,qs),
(69,227,o),
(69,203,qs),
(69,55,l),
(94,38,o),
(124,25,qs),
(209,-12,o),
(297,-12,qs),
(414,-12,o),
(501,55,qs),
(599,128,o),
(599,251,qs),
(599,365,o),
(525,438,qs),
(489,473,o),
(385,514,o),
(227,514,o),
(162,483,q),
(162,665,l)
);
}
);
userData = {
assembly = "NPUSHB[ ]	/* 20 values pushed */
57 56 50 48 44 41 38 36 33 31 25 23 18 16 11 9 2 1 9 8
CALL[ ]	/* CallFunction */
MPPEM[ ]	/* MeasurePixelPerEm */
PUSHB[ ]	/* 1 value pushed */
9
LT[ ]	/* LessThan */
IF[ ]	/* If */
NPUSHB[ ]	/* 72 values pushed */
40 1 8 6 0 1 4 0 14 1 1 3 3 33 0 7 6 7 55 0 5 4 2 4 5 2 53 0 2 3 4 2 3 51 0 8 8 6 1 0 39 0 6 6 12 34 0 4 4 0 1 0 39 0 0 0 15 34 0 3 3 1 1 0 39 0 1 1 13 1 35 10
ELSE[ ]	/* Else */
MPPEM[ ]	/* MeasurePixelPerEm */
PUSHB[ ]	/* 1 value pushed */
13
LT[ ]	/* LessThan */
IF[ ]	/* If */
NPUSHB[ ]	/* 72 values pushed */
40 1 8 6 0 1 4 0 14 1 1 3 3 33 0 7 6 7 55 0 5 4 2 4 5 2 53 0 2 3 4 2 3 51 0 8 8 6 1 0 39 0 6 6 12 34 0 4 4 0 1 0 39 0 0 0 15 34 0 3 3 1 1 0 39 0 1 1 16 1 35 10
ELSE[ ]	/* Else */
MPPEM[ ]	/* MeasurePixelPerEm */
PUSHB[ ]	/* 1 value pushed */
17
LT[ ]	/* LessThan */
IF[ ]	/* If */
NPUSHB[ ]	/* 72 values pushed */
40 1 8 6 0 1 4 0 14 1 1 3 3 33 0 7 6 7 55 0 5 4 2 4 5 2 53 0 2 3 4 2 3 51 0 8 8 6 1 0 39 0 6 6 12 34 0 4 4 0 1 0 39 0 0 0 15 34 0 3 3 1 1 0 39 0 1 1 13 1 35 10
ELSE[ ]	/* Else */
MPPEM[ ]	/* MeasurePixelPerEm */
PUSHB[ ]	/* 1 value pushed */
21
LT[ ]	/* LessThan */
IF[ ]	/* If */
NPUSHB[ ]	/* 72 values pushed */
40 1 8 6 0 1 4 0 14 1 1 3 3 33 0 7 6 7 55 0 5 4 2 4 5 2 53 0 2 3 4 2 3 51 0 8 8 6 1 0 39 0 6 6 12 34 0 4 4 0 1 0 39 0 0 0 15 34 0 3 3 1 1 0 39 0 1 1 16 1 35 10
ELSE[ ]	/* Else */
NPUSHB[ ]	/* 72 values pushed */
40 1 8 6 0 1 4 0 14 1 1 3 3 33 0 7 6 7 55 0 5 4 2 4 5 2 53 0 2 3 4 2 3 51 0 8 8 6 1 0 39 0 6 6 12 34 0 4 4 0 1 0 39 0 0 0 15 34 0 3 3 1 1 0 39 0 1 1 13 1 35 10
EIF[ ]	/* EndIf */
EIF[ ]	/* EndIf */
EIF[ ]	/* EndIf */
EIF[ ]	/* EndIf */
PUSHB[ ]	/* 1 value pushed */
59
CALL[ ]	/* CallFunction */";
};
width = 666;
}
);
note = five;
unicode = 53;
},
{
glyphname = six;
lastChange = "2025-07-10 15:48:07 +0000";
layers = (
{
layerId = m01;
shapes = (
{
closed = 1;
nodes = (
(524,61,qs),
(615,143,o),
(615,278,qs),
(615,381,o),
(550,447,qs),
(520,479,o),
(433,514,o),
(343,514,o),
(309,506,qs),
(199,479,o),
(158,389,q),
(164,545,o),
(224,628,qs),
(281,706,o),
(376,706,qs),
(492,706,o),
(531,632,qs),
(541,611,o),
(554,611,qs),
(560,611,o),
(572,624,o),
(572,643,qs),
(572,670,o),
(554,698,qs),
(545,713,o),
(515,742,o),
(471,764,o),
(413,777,o),
(328,777,o),
(285,763,qs),
(197,733,o),
(136,660,qs),
(38,544,o),
(38,382,qs),
(38,198,o),
(121,92,qs),
(202,-12,o),
(340,-12,qs),
(443,-12,o)
);
},
{
closed = 1;
nodes = (
(230,395,qs),
(275,440,o),
(334,440,qs),
(399,440,o),
(446,384,qs),
(471,355,o),
(501,269,o),
(501,143,o),
(429,59,o),
(370,59,qs),
(297,59,o),
(243,109,qs),
(187,162,o),
(167,261,q),
(182,346,o)
);
}
);
userData = {
assembly = "NPUSHB[ ]	/* 20 values pushed */
1 0 51 49 44 42 31 30 24 22 20 18 10 9 0 38 1 38 8 8
CALL[ ]	/* CallFunction */
MPPEM[ ]	/* MeasurePixelPerEm */
PUSHB[ ]	/* 1 value pushed */
9
LT[ ]	/* LessThan */
IF[ ]	/* If */
NPUSHB[ ]	/* 54 values pushed */
39 27 2 5 6 1 33 0 2 3 4 3 2 4 53 0 3 3 1 1 0 39 0 1 1 12 34 0 6 6 4 1 0 39 0 4 4 15 34 0 5 5 0 1 0 39 7 1 0 0 13 0 35 8
ELSE[ ]	/* Else */
MPPEM[ ]	/* MeasurePixelPerEm */
PUSHB[ ]	/* 1 value pushed */
13
LT[ ]	/* LessThan */
IF[ ]	/* If */
NPUSHB[ ]	/* 54 values pushed */
39 27 2 5 6 1 33 0 2 3 4 3 2 4 53 0 3 3 1 1 0 39 0 1 1 12 34 0 6 6 4 1 0 39 0 4 4 15 34 0 5 5 0 1 0 39 7 1 0 0 16 0 35 8
ELSE[ ]	/* Else */
MPPEM[ ]	/* MeasurePixelPerEm */
PUSHB[ ]	/* 1 value pushed */
17
LT[ ]	/* LessThan */
IF[ ]	/* If */
NPUSHB[ ]	/* 54 values pushed */
39 27 2 5 6 1 33 0 2 3 4 3 2 4 53 0 3 3 1 1 0 39 0 1 1 12 34 0 6 6 4 1 0 39 0 4 4 15 34 0 5 5 0 1 0 39 7 1 0 0 13 0 35 8
ELSE[ ]	/* Else */
MPPEM[ ]	/* MeasurePixelPerEm */
PUSHB[ ]	/* 1 value pushed */
21
LT[ ]	/* LessThan */
IF[ ]	/* If */
NPUSHB[ ]	/* 54 values pushed */
39 27 2 5 6 1 33 0 2 3 4 3 2 4 53 0 3 3 1 1 0 39 0 1 1 12 34 0 6 6 4 1 0 39 0 4 4 15 34 0 5 5 0 1 0 39 7 1 0 0 16 0 35 8
ELSE[ ]	/* Else */
NPUSHB[ ]	/* 54 values pushed */
39 27 2 5 6 1 33 0 2 3 4 3 2 4 53 0 3 3 1 1 0 39 0 1 1 12 34 0 6 6 4 1 0 39 0 4 4 15 34 0 5 5 0 1 0 39 7 1 0 0 13 0 35 8
EIF[ ]	/* EndIf */
EIF[ ]	/* EndIf */
EIF[ ]	/* EndIf */
EIF[ ]	/* EndIf */
PUSHB[ ]	/* 1 value pushed */
59
CALL[ ]	/* CallFunction */";
};
width = 667;
}
);
note = six;
unicode = 54;
},
{
glyphname = seven;
lastChange = "2025-07-10 15:48:07 +0000";
layers = (
{
layerId = m01;
shapes = (
{
closed = 1;
nodes = (
(322,-4,o),
(325,15,qs),
(350,162,o),
(404,328,qs),
(432,415,o),
(532,672,o),
(565,739,qs),
(569,745,o),
(569,759,o),
(555,762,o),
(538,762,qs),
(173,762,ls),
(129,762,o),
(120,773,qs),
(104,793,o),
(94,793,qs),
(88,793,o),
(79,783,o),
(71,734,o),
(63,705,qs),
(37,622,ls),
(33,608,o),
(33,583,o),
(45,583,qs),
(52,583,o),
(64,595,q),
(122,665,o),
(191,665,qs),
(472,665,l),
(398,518,l),
(325,366,ls),
(287,286,o),
(209,107,qs),
(172,20,o),
(177,8,qs),
(181,-4,o),
(197,-4,q),
(250,0,l),
(305,-4,l)
);
}
);
userData = {
assembly = "NPUSHB[ ]	/* 14 values pushed */
38 37 28 25 23 21 15 13 11 9 2 1 6 8
CALL[ ]	/* CallFunction */
NPUSHB[ ]	/* 39 values pushed */
0 1 0 2 1 33 0 2 1 0 1 2 0 53 0 3 3 18 34 0 1 1 4 1 0 39 0 4 4 12 34 5 1 0 0 13 0 35 6
PUSHB[ ]	/* 1 value pushed */
59
CALL[ ]	/* CallFunction */";
};
width = 583;
}
);
note = seven;
unicode = 55;
},
{
glyphname = eight;
lastChange = "2025-07-10 15:48:07 +0000";
layers = (
{
layerId = m01;
shapes = (
{
closed = 1;
nodes = (
(560,489,qs),
(594,540,o),
(594,597,qs),
(594,670,o),
(525,722,qs),
(452,777,o),
(336,777,qs),
(219,777,o),
(145,716,qs),
(112,689,o),
(78,622,o),
(78,589,qs),
(78,488,o),
(200,409,q),
(129,386,o),
(83,333,qs),
(34,276,o),
(34,207,qs),
(34,117,o),
(104,58,qs),
(185,-12,o),
(337,-12,qs),
(470,-12,o),
(555,57,qs),
(635,122,o),
(635,215,qs),
(635,330,o),
(474,413,q),
(528,440,o)
);
},
{
closed = 1;
nodes = (
(487,542,qs),
(473,474,o),
(416,439,q),
(403,444,o),
(390,449,qs),
(285,489,o),
(233,541,qs),
(191,583,o),
(191,619,qs),
(191,661,o),
(261,706,o),
(326,706,qs),
(492,706,o),
(492,580,qs),
(492,562,o)
);
},
{
closed = 1;
nodes = (
(261,375,q),
(294,360,l),
(396,318,o),
(445,282,qs),
(476,260,o),
(515,207,o),
(515,144,o),
(504,123,qs),
(472,62,o),
(364,62,qs),
(265,62,o),
(203,104,qs),
(174,124,o),
(141,180,o),
(141,247,o),
(150,273,qs),
(177,350,o)
);
}
);
userData = {
assembly = "NPUSHB[ ]	/* 10 values pushed */
51 49 32 30 22 20 7 5 4 8
CALL[ ]	/* CallFunction */
MPPEM[ ]	/* MeasurePixelPerEm */
PUSHB[ ]	/* 1 value pushed */
9
LT[ ]	/* LessThan */
IF[ ]	/* If */
NPUSHB[ ]	/* 35 values pushed */
59 40 14 0 4 3 2 1 33 0 2 2 1 1 0 39 0 1 1 12 34 0 3 3 0 1 0 39 0 0 0 13 0 35 5
ELSE[ ]	/* Else */
MPPEM[ ]	/* MeasurePixelPerEm */
PUSHB[ ]	/* 1 value pushed */
13
LT[ ]	/* LessThan */
IF[ ]	/* If */
NPUSHB[ ]	/* 35 values pushed */
59 40 14 0 4 3 2 1 33 0 2 2 1 1 0 39 0 1 1 12 34 0 3 3 0 1 0 39 0 0 0 16 0 35 5
ELSE[ ]	/* Else */
MPPEM[ ]	/* MeasurePixelPerEm */
PUSHB[ ]	/* 1 value pushed */
17
LT[ ]	/* LessThan */
IF[ ]	/* If */
NPUSHB[ ]	/* 35 values pushed */
59 40 14 0 4 3 2 1 33 0 2 2 1 1 0 39 0 1 1 12 34 0 3 3 0 1 0 39 0 0 0 13 0 35 5
ELSE[ ]	/* Else */
MPPEM[ ]	/* MeasurePixelPerEm */
PUSHB[ ]	/* 1 value pushed */
21
LT[ ]	/* LessThan */
IF[ ]	/* If */
NPUSHB[ ]	/* 35 values pushed */
59 40 14 0 4 3 2 1 33 0 2 2 1 1 0 39 0 1 1 12 34 0 3 3 0 1 0 39 0 0 0 16 0 35 5
ELSE[ ]	/* Else */
NPUSHB[ ]	/* 35 values pushed */
59 40 14 0 4 3 2 1 33 0 2 2 1 1 0 39 0 1 1 12 34 0 3 3 0 1 0 39 0 0 0 13 0 35 5
EIF[ ]	/* EndIf */
EIF[ ]	/* EndIf */
EIF[ ]	/* EndIf */
EIF[ ]	/* EndIf */
PUSHB[ ]	/* 1 value pushed */
59
CALL[ ]	/* CallFunction */";
};
width = 667;
}
);
note = eight;
unicode = 56;
},
{
glyphname = nine;
lastChange = "2025-07-10 15:48:07 +0000";
layers = (
{
layerId = m01;
shapes = (
{
closed = 1;
nodes = (
(189,-12,o),
(286,-12,qs),
(438,-12,o),
(529,108,qs),
(618,225,o),
(618,409,qs),
(618,575,o),
(537,675,qs),
(455,777,o),
(315,777,qs),
(206,777,o),
(129,706,qs),
(48,632,o),
(48,513,qs),
(48,402,o),
(122,328,qs),
(155,294,o),
(244,257,o),
(327,257,o),
(356,265,qs),
(445,287,o),
(497,359,q),
(491,207,o),
(420,129,qs),
(387,93,o),
(306,62,o),
(208,62,o),
(140,94,o),
(124,130,qs),
(114,152,o),
(99,152,qs),
(91,152,o),
(86,141,qs),
(84,136,o),
(83,125,o),
(83,102,o),
(106,57,o),
(131,36,qs)
);
},
{
closed = 1;
nodes = (
(166,507,o),
(166,599,o),
(176,626,qs),
(206,706,o),
(308,706,qs),
(380,706,o),
(426,648,qs),
(477,586,o),
(489,462,q),
(467,396,o),
(433,367,qs),
(414,352,o),
(366,336,o),
(307,336,o),
(248,366,o),
(198,423,o)
);
}
);
userData = {
assembly = "NPUSHB[ ]	/* 16 values pushed */
49 47 40 39 36 34 28 26 19 18 11 10 7 5 7 8
CALL[ ]	/* CallFunction */
MPPEM[ ]	/* MeasurePixelPerEm */
PUSHB[ ]	/* 1 value pushed */
9
LT[ ]	/* LessThan */
IF[ ]	/* If */
NPUSHB[ ]	/* 51 values pushed */
44 15 2 5 6 1 33 0 0 2 1 2 0 1 53 0 5 0 2 0 5 2 1 0 41 0 6 6 3 1 0 39 0 3 3 12 34 0 1 1 4 1 0 39 0 4 4 13 4 35 7
ELSE[ ]	/* Else */
MPPEM[ ]	/* MeasurePixelPerEm */
PUSHB[ ]	/* 1 value pushed */
13
LT[ ]	/* LessThan */
IF[ ]	/* If */
NPUSHB[ ]	/* 51 values pushed */
44 15 2 5 6 1 33 0 0 2 1 2 0 1 53 0 5 0 2 0 5 2 1 0 41 0 6 6 3 1 0 39 0 3 3 12 34 0 1 1 4 1 0 39 0 4 4 16 4 35 7
ELSE[ ]	/* Else */
MPPEM[ ]	/* MeasurePixelPerEm */
PUSHB[ ]	/* 1 value pushed */
17
LT[ ]	/* LessThan */
IF[ ]	/* If */
NPUSHB[ ]	/* 51 values pushed */
44 15 2 5 6 1 33 0 0 2 1 2 0 1 53 0 5 0 2 0 5 2 1 0 41 0 6 6 3 1 0 39 0 3 3 12 34 0 1 1 4 1 0 39 0 4 4 13 4 35 7
ELSE[ ]	/* Else */
MPPEM[ ]	/* MeasurePixelPerEm */
PUSHB[ ]	/* 1 value pushed */
21
LT[ ]	/* LessThan */
IF[ ]	/* If */
NPUSHB[ ]	/* 51 values pushed */
44 15 2 5 6 1 33 0 0 2 1 2 0 1 53 0 5 0 2 0 5 2 1 0 41 0 6 6 3 1 0 39 0 3 3 12 34 0 1 1 4 1 0 39 0 4 4 16 4 35 7
ELSE[ ]	/* Else */
NPUSHB[ ]	/* 51 values pushed */
44 15 2 5 6 1 33 0 0 2 1 2 0 1 53 0 5 0 2 0 5 2 1 0 41 0 6 6 3 1 0 39 0 3 3 12 34 0 1 1 4 1 0 39 0 4 4 13 4 35 7
EIF[ ]	/* EndIf */
EIF[ ]	/* EndIf */
EIF[ ]	/* EndIf */
EIF[ ]	/* EndIf */
PUSHB[ ]	/* 1 value pushed */
59
CALL[ ]	/* CallFunction */";
};
width = 667;
}
);
note = nine;
unicode = 57;
},
{
glyphname = less;
lastChange = "2025-07-10 15:48:07 +0000";
layers = (
{
layerId = m01;
shapes = (
{
closed = 1;
nodes = (
(423,43,l),
(423,132,l),
(197,272,l),
(423,410,l),
(423,496,l),
(78,287,l),
(78,254,l)
);
}
);
userData = {
assembly = "NPUSHB[ ]	/* 4 values pushed */
1 5 1 13
CALL[ ]	/* CallFunction */";
};
width = 501;
}
);
note = less;
unicode = 60;
},
{
glyphname = equal;
lastChange = "2025-07-10 15:48:07 +0000";
layers = (
{
layerId = m01;
shapes = (
{
closed = 1;
nodes = (
(559,354,l),
(559,426,l),
(68,426,l),
(68,354,l)
);
},
{
closed = 1;
nodes = (
(559,191,l),
(559,264,l),
(68,264,l),
(68,191,l)
);
}
);
userData = {
assembly = "NPUSHB[ ]	/* 10 values pushed */
7 6 5 4 3 2 1 0 4 8
CALL[ ]	/* CallFunction */
NPUSHB[ ]	/* 33 values pushed */
0 0 0 1 2 0 1 0 0 41 0 2 3 3 2 0 0 38 0 2 2 3 0 0 39 0 3 2 3 0 0 36 4
PUSHB[ ]	/* 1 value pushed */
59
CALL[ ]	/* CallFunction */";
};
width = 627;
}
);
note = equal;
unicode = 61;
},
{
glyphname = greater;
lastChange = "2025-07-10 15:48:07 +0000";
layers = (
{
layerId = m01;
shapes = (
{
closed = 1;
nodes = (
(423,254,l),
(423,287,l),
(78,496,l),
(78,410,l),
(304,272,l),
(78,132,l),
(78,43,l)
);
}
);
userData = {
assembly = "NPUSHB[ ]	/* 4 values pushed */
3 6 1 13
CALL[ ]	/* CallFunction */";
};
width = 501;
}
);
note = greater;
unicode = 62;
},
{
glyphname = question;
lastChange = "2025-07-10 15:48:07 +0000";
layers = (
{
layerId = m01;
shapes = (
{
closed = 1;
nodes = (
(272,266,o),
(253,272,o),
(236,281,o),
(236,292,qs),
(236,337,o),
(322,408,qs),
(360,439,o),
(387,467,qs),
(469,549,o),
(469,628,qs),
(469,693,o),
(419,732,qs),
(364,775,o),
(257,775,qs),
(157,775,o),
(68,724,q),
(68,587,ls),
(68,563,o),
(86,563,qs),
(94,563,o),
(108,583,o),
(110,592,qs),
(126,653,o),
(198,717,o),
(245,717,qs),
(268,717,o),
(287,711,qs),
(349,694,o),
(349,624,qs),
(349,556,o),
(281,474,qs),
(188,362,o),
(188,294,qs),
(188,259,o),
(215,233,qs),
(229,219,o),
(255,219,qs),
(289,219,o),
(289,244,qs),
(289,257,o)
);
},
{
closed = 1;
nodes = (
(229,-12,o),
(277,-12,o),
(298,7,qs),
(308,16,o),
(319,41,o),
(319,84,o),
(302,105,qs),
(293,116,o),
(267,129,o),
(217,129,o),
(196,107,qs),
(186,98,o),
(175,71,o),
(175,46,o),
(184,21,o),
(202,1,o)
);
}
);
userData = {
assembly = "NPUSHB[ ]	/* 14 values pushed */
54 53 46 45 26 24 21 19 15 13 3 1 6 8
CALL[ ]	/* CallFunction */
MPPEM[ ]	/* MeasurePixelPerEm */
PUSHB[ ]	/* 1 value pushed */
9
LT[ ]	/* LessThan */
IF[ ]	/* If */
NPUSHB[ ]	/* 47 values pushed */
23 1 1 3 1 33 0 2 1 0 1 2 0 53 0 0 4 1 0 4 51 0 1 1 3 1 0 39 0 3 3 12 34 0 4 4 5 1 0 39 0 5 5 13 5 35 7
ELSE[ ]	/* Else */
MPPEM[ ]	/* MeasurePixelPerEm */
PUSHB[ ]	/* 1 value pushed */
13
LT[ ]	/* LessThan */
IF[ ]	/* If */
NPUSHB[ ]	/* 47 values pushed */
23 1 1 3 1 33 0 2 1 0 1 2 0 53 0 0 4 1 0 4 51 0 1 1 3 1 0 39 0 3 3 12 34 0 4 4 5 1 0 39 0 5 5 16 5 35 7
ELSE[ ]	/* Else */
MPPEM[ ]	/* MeasurePixelPerEm */
PUSHB[ ]	/* 1 value pushed */
17
LT[ ]	/* LessThan */
IF[ ]	/* If */
NPUSHB[ ]	/* 47 values pushed */
23 1 1 3 1 33 0 2 1 0 1 2 0 53 0 0 4 1 0 4 51 0 1 1 3 1 0 39 0 3 3 12 34 0 4 4 5 1 0 39 0 5 5 13 5 35 7
ELSE[ ]	/* Else */
MPPEM[ ]	/* MeasurePixelPerEm */
PUSHB[ ]	/* 1 value pushed */
21
LT[ ]	/* LessThan */
IF[ ]	/* If */
NPUSHB[ ]	/* 47 values pushed */
23 1 1 3 1 33 0 2 1 0 1 2 0 53 0 0 4 1 0 4 51 0 1 1 3 1 0 39 0 3 3 12 34 0 4 4 5 1 0 39 0 5 5 16 5 35 7
ELSE[ ]	/* Else */
NPUSHB[ ]	/* 47 values pushed */
23 1 1 3 1 33 0 2 1 0 1 2 0 53 0 0 4 1 0 4 51 0 1 1 3 1 0 39 0 3 3 12 34 0 4 4 5 1 0 39 0 5 5 13 5 35 7
EIF[ ]	/* EndIf */
EIF[ ]	/* EndIf */
EIF[ ]	/* EndIf */
EIF[ ]	/* EndIf */
PUSHB[ ]	/* 1 value pushed */
59
CALL[ ]	/* CallFunction */";
};
width = 505;
}
);
note = question;
unicode = 63;
},
{
glyphname = at;
lastChange = "2025-07-10 15:48:07 +0000";
layers = (
{
layerId = m01;
shapes = (
{
closed = 1;
nodes = (
(749,432,o),
(640,432,qs),
(569,432,o),
(457,383,o),
(378,302,o),
(336,200,o),
(336,146,qs),
(336,138,ls),
(336,79,o),
(368,40,qs),
(406,-7,o),
(490,-7,qs),
(563,-7,o),
(631,58,q),
(631,54,o),
(631,48,o),
(631,44,qs),
(634,5,o),
(664,5,q),
(719,8,l),
(755,6,l),
(827,6,o),
(904,58,qs),
(982,111,o),
(1032,193,qs),
(1086,283,o),
(1086,378,qs),
(1086,389,ls),
(1086,393,o),
(1086,398,qs),
(1077,534,o),
(976,608,qs),
(878,681,o),
(720,681,qs),
(533,681,o),
(382,598,qs),
(240,520,o),
(159,386,qs),
(79,254,o),
(79,104,qs),
(79,-83,o),
(210,-179,qs),
(265,-219,o),
(403,-257,o),
(599,-257,o),
(675,-232,qs),
(713,-220,o),
(766,-181,o),
(783,-143,o),
(774,-119,o),
(751,-107,o),
(727,-107,o),
(721,-120,qs),
(718,-125,o),
(718,-134,o),
(717,-137,qs),
(707,-158,o),
(619,-184,qs),
(568,-199,o),
(498,-199,qs),
(348,-199,o),
(268,-115,qs),
(186,-29,o),
(186,124,qs),
(186,246,o),
(247,358,qs),
(310,477,o),
(419,547,qs),
(540,625,o),
(689,625,qs),
(818,625,o),
(896,559,qs),
(974,492,o),
(982,373,qs),
(983,359,o),
(983,325,qs),
(983,297,o),
(973,258,qs),
(945,145,o),
(858,91,qs),
(808,59,o),
(758,59,qs),
(756,59,o),
(756,62,q),
(756,63,l),
(808,374,l)
);
},
{
closed = 1;
nodes = (
(468,242,o),
(520,314,qs),
(542,345,o),
(596,381,o),
(656,381,o),
(681,354,q),
(644,136,l),
(631,118,o),
(617,103,qs),
(571,52,o),
(529,52,qs),
(468,52,o),
(468,145,qs),
(468,153,ls)
);
}
);
userData = {
assembly = "NPUSHB[ ]	/* 24 values pushed */
95 94 89 87 84 82 74 72 67 63 52 50 41 40 34 33 26 24 16 14 4 2 11 8
CALL[ ]	/* CallFunction */
MPPEM[ ]	/* MeasurePixelPerEm */
PUSHB[ ]	/* 1 value pushed */
19
LT[ ]	/* LessThan */
IF[ ]	/* If */
NPUSHB[ ]	/* 73 values pushed */
55 1 10 8 93 85 11 1 4 0 10 71 1 6 0 3 33 0 3 6 2 6 3 2 53 0 5 0 1 8 5 1 1 0 41 0 8 0 10 0 8 10 1 0 41 9 1 0 0 6 1 0 39 7 1 6 6 13 34 0 2 2 4 1 0 39 0 4 4 17 4 35 8
ELSE[ ]	/* Else */
NPUSHB[ ]	/* 85 values pushed */
55 1 10 8 93 85 11 1 4 0 10 71 1 6 0 3 33 0 3 7 2 7 3 2 53 0 5 0 1 8 5 1 1 0 41 0 8 0 10 0 8 10 1 0 41 9 1 0 0 6 1 0 39 0 6 6 13 34 9 1 0 0 7 1 0 39 0 7 7 13 34 0 2 2 4 1 0 39 0 4 4 17 4 35 10
EIF[ ]	/* EndIf */
PUSHB[ ]	/* 1 value pushed */
59
CALL[ ]	/* CallFunction */";
};
width = 1135;
}
);
note = at;
unicode = 64;
},
{
glyphname = A;
kernLeft = A;
kernRight = A;
lastChange = "2025-07-10 15:49:17 +0000";
layers = (
{
layerId = m01;
shapes = (
{
closed = 1;
nodes = (
(219,-7,o),
(244,11,o),
(244,31,o),
(233,44,o),
(225,44,q),
(201,41,l),
(166,41,o),
(166,62,qs),
(167,79,o),
(192,140,q),
(207,182,l),
(220,213,o),
(270,213,qs),
(526,213,ls),
(552,213,o),
(577,199,o),
(583,185,qs),
(617,120,l),
(637,77,o),
(637,56,qs),
(637,39,o),
(607,39,q),
(572,43,l),
(554,43,o),
(554,22,qs),
(554,18,o),
(557,13,qs),
(567,-7,o),
(603,-7,q),
(724,0,l),
(820,-7,l),
(842,-7,o),
(862,11,o),
(862,30,o),
(854,44,o),
(844,44,q),
(819,41,l),
(800,41,o),
(777,64,qs),
(761,80,o),
(736,134,qs),
(478,698,ls),
(457,746,o),
(444,765,qs),
(438,774,o),
(427,782,o),
(418,782,o),
(407,775,o),
(393,745,qs),
(131,179,ls),
(89,89,o),
(64,58,qs),
(51,41,o),
(28,41,q),
(4,43,l),
(-15,43,o),
(-15,21,qs),
(-15,12,o),
(5,-7,o),
(26,-7,q),
(96,0,l),
(194,-7,l)
);
},
{
closed = 1;
nodes = (
(258,275,o),
(258,289,qs),
(258,294,o),
(265,310,qs),
(378,568,ls),
(392,602,o),
(401,602,qs),
(409,602,o),
(427,556,qs),
(532,300,ls),
(536,292,o),
(536,289,qs),
(536,275,o),
(481,275,qs),
(312,275,ls)
);
}
);
userData = {
assembly = "NPUSHB[ ]	/* 38 values pushed */
63 62 70 68 62 76 63 75 61 60 57 56 55 54 49 46 40 39 38 37 33 31 30 29 26 25 24 23 15 14 8 7 6 5 2 1 17 8
CALL[ ]	/* CallFunction */
NPUSHB[ ]	/* 54 values pushed */
0 1 0 1 1 33 0 15 3 14 3 15 14 53 16 1 14 0 10 1 14 10 1 2 41 0 3 3 12 34 12 11 9 8 5 4 2 7 1 1 0 1 0 39 13 7 6 3 0 0 13 0 35 6
PUSHB[ ]	/* 1 value pushed */
59
CALL[ ]	/* CallFunction */";
};
width = 833;
}
);
note = A;
unicode = 65;
},
{
glyphname = B;
kernLeft = H;
kernRight = B;
lastChange = "2025-07-10 15:51:30 +0000";
layers = (
{
layerId = m01;
shapes = (
{
closed = 1;
nodes = (
(353,-8,qs),
(402,-12,o),
(425,-12,qs),
(567,-12,o),
(648,60,qs),
(724,125,o),
(724,229,qs),
(724,299,o),
(668,353,qs),
(614,405,o),
(523,427,q),
(587,455,o),
(657,548,o),
(657,652,o),
(637,688,qs),
(625,707,o),
(589,740,o),
(535,764,o),
(461,777,o),
(393,777,o),
(370,775,qs),
(322,770,ls),
(297,767,o),
(244,762,o),
(183,762,o),
(154,766,qs),
(143,767,o),
(116,769,o),
(73,769,o),
(61,758,qs),
(55,754,o),
(51,744,o),
(51,731,o),
(61,718,o),
(70,718,q),
(94,721,l),
(113,721,o),
(138,707,o),
(156,667,o),
(156,602,qs),
(156,154,ls),
(156,91,o),
(146,67,qs),
(135,41,o),
(101,41,q),
(70,44,l),
(61,44,o),
(51,30,o),
(51,19,o),
(53,14,qs),
(62,-7,o),
(97,-7,q),
(217,0,l),
(255,0,o)
);
},
{
closed = 1;
nodes = (
(270,664,o),
(284,682,o),
(325,696,o),
(389,696,qs),
(536,696,o),
(536,587,qs),
(536,514,o),
(491,477,qs),
(470,459,o),
(413,442,o),
(319,442,o),
(270,452,q),
(270,649,ls)
);
},
{
closed = 1;
nodes = (
(600,225,qs),
(600,135,o),
(548,96,qs),
(524,77,o),
(458,62,o),
(342,62,o),
(270,95,o),
(270,129,qs),
(270,373,l),
(316,380,o),
(417,380,o),
(461,371,qs),
(600,343,o)
);
}
);
userData = {
assembly = "NPUSHB[ ]	/* 32 values pushed */
2 0 74 73 69 68 63 61 56 55 51 49 34 33 29 28 25 24 19 18 17 16 9 8 7 6 0 53 2 53 14 8
CALL[ ]	/* CallFunction */
NPUSHB[ ]	/* 84 values pushed */
54 1 9 10 42 1 11 9 70 1 12 11 3 33 0 9 0 11 12 9 11 1 0 41 4 1 3 3 5 1 0 39 7 6 2 5 5 12 34 0 10 10 5 1 0 39 7 6 2 5 5 12 34 0 12 12 0 1 0 39 8 13 2 0 0 13 34 2 1 1 1 0 1 2 39 8 13 2 0 0 13 0 35 10
PUSHB[ ]	/* 1 value pushed */
59
CALL[ ]	/* CallFunction */";
};
width = 772;
}
);
note = B;
unicode = 66;
},
{
glyphname = C;
kernLeft = O;
kernRight = C;
lastChange = "2025-07-10 15:51:32 +0000";
layers = (
{
layerId = m01;
shapes = (
{
closed = 1;
nodes = (
(755,274,o),
(737,274,qs),
(718,274,o),
(710,243,qs),
(696,188,o),
(674,153,qs),
(615,60,o),
(501,60,qs),
(358,60,o),
(264,150,qs),
(164,247,o),
(164,406,qs),
(164,531,o),
(246,620,qs),
(283,661,o),
(378,706,o),
(429,706,qs),
(633,706,o),
(717,552,qs),
(724,539,o),
(739,539,qs),
(746,539,o),
(758,549,o),
(758,574,o),
(741,640,qs),
(733,670,o),
(729,698,qs),
(727,712,o),
(726,742,o),
(726,785,o),
(712,785,qs),
(705,785,o),
(691,772,o),
(652,733,o),
(629,733,o),
(615,740,qs),
(538,777,o),
(455,777,qs),
(340,777,o),
(247,728,qs),
(202,704,o),
(128,633,o),
(77,543,o),
(48,435,o),
(48,294,o),
(105,155,o),
(158,103,qs),
(272,-11,o),
(460,-11,qs),
(636,-11,o),
(755,102,q),
(755,243,ls)
);
}
);
userData = {
assembly = "NPUSHB[ ]	/* 18 values pushed */
50 48 44 42 35 33 31 29 21 19 17 16 14 12 3 1 8 8
CALL[ ]	/* CallFunction */
MPPEM[ ]	/* MeasurePixelPerEm */
PUSHB[ ]	/* 1 value pushed */
13
LT[ ]	/* LessThan */
IF[ ]	/* If */
NPUSHB[ ]	/* 55 values pushed */
0 1 6 7 1 33 0 2 1 5 1 2 45 0 4 5 7 5 4 7 53 0 7 6 5 7 6 51 0 5 5 1 1 0 39 3 1 1 1 12 34 0 6 6 0 1 0 39 0 0 0 13 0 35 8
ELSE[ ]	/* Else */
MPPEM[ ]	/* MeasurePixelPerEm */
PUSHB[ ]	/* 1 value pushed */
17
LT[ ]	/* LessThan */
IF[ ]	/* If */
NPUSHB[ ]	/* 55 values pushed */
0 1 6 7 1 33 0 2 1 5 1 2 45 0 4 5 7 5 4 7 53 0 7 6 5 7 6 51 0 5 5 1 1 0 39 3 1 1 1 12 34 0 6 6 0 1 0 39 0 0 0 16 0 35 8
ELSE[ ]	/* Else */
MPPEM[ ]	/* MeasurePixelPerEm */
PUSHB[ ]	/* 1 value pushed */
21
LT[ ]	/* LessThan */
IF[ ]	/* If */
NPUSHB[ ]	/* 55 values pushed */
0 1 6 7 1 33 0 2 1 5 1 2 45 0 4 5 7 5 4 7 53 0 7 6 5 7 6 51 0 5 5 1 1 0 39 3 1 1 1 12 34 0 6 6 0 1 0 39 0 0 0 13 0 35 8
ELSE[ ]	/* Else */
NPUSHB[ ]	/* 55 values pushed */
0 1 6 7 1 33 0 2 1 5 1 2 45 0 4 5 7 5 4 7 53 0 7 6 5 7 6 51 0 5 5 1 1 0 39 3 1 1 1 12 34 0 6 6 0 1 0 39 0 0 0 16 0 35 8
EIF[ ]	/* EndIf */
EIF[ ]	/* EndIf */
EIF[ ]	/* EndIf */
PUSHB[ ]	/* 1 value pushed */
59
CALL[ ]	/* CallFunction */";
};
width = 814;
}
);
note = C;
unicode = 67;
},
{
glyphname = D;
kernLeft = H;
kernRight = O;
lastChange = "2025-07-10 15:51:33 +0000";
layers = (
{
layerId = m01;
shapes = (
{
closed = 1;
nodes = (
(138,707,o),
(156,666,o),
(156,602,qs),
(156,153,ls),
(156,90,o),
(146,66,qs),
(135,40,o),
(102,40,q),
(70,43,l),
(51,43,o),
(51,20,qs),
(51,11,o),
(61,3,qs),
(66,-1,o),
(83,-8,o),
(124,-8,o),
(161,-4,qs),
(174,-2,o),
(201,0,o),
(245,0,o),
(268,-2,qs),
(334,-8,ls),
(377,-12,o),
(435,-12,qs),
(559,-12,o),
(660,40,qs),
(761,91,o),
(818,179,qs),
(878,271,o),
(878,383,qs),
(878,566,o),
(770,668,qs),
(653,777,o),
(427,777,qs),
(390,777,o),
(322,770,qs),
(298,767,o),
(249,762,o),
(187,762,o),
(157,766,qs),
(145,767,o),
(117,769,o),
(74,769,o),
(61,758,qs),
(55,754,o),
(51,744,o),
(51,731,o),
(61,718,o),
(70,718,q),
(94,721,l),
(114,721,o)
);
},
{
closed = 1;
nodes = (
(273,667,o),
(292,688,o),
(343,706,o),
(416,706,qs),
(576,706,o),
(662,625,qs),
(752,540,o),
(752,373,qs),
(752,201,o),
(667,127,qs),
(626,91,o),
(507,61,o),
(336,61,o),
(305,75,qs),
(273,90,o),
(273,131,qs),
(273,650,ls)
);
}
);
userData = {
assembly = "NPUSHB[ ]	/* 30 values pushed */
0 0 64 62 55 54 0 50 0 50 43 42 41 40 35 34 31 30 27 25 17 15 12 11 8 7 2 1 13 8
CALL[ ]	/* CallFunction */
MPPEM[ ]	/* MeasurePixelPerEm */
PUSHB[ ]	/* 1 value pushed */
9
LT[ ]	/* LessThan */
IF[ ]	/* If */
NPUSHB[ ]	/* 48 values pushed */
11 12 9 3 0 0 1 1 0 39 3 2 2 1 1 12 34 0 10 10 4 1 0 39 6 5 2 4 4 13 34 8 1 7 7 4 1 0 39 6 5 2 4 4 13 4 35 6
ELSE[ ]	/* Else */
MPPEM[ ]	/* MeasurePixelPerEm */
PUSHB[ ]	/* 1 value pushed */
13
LT[ ]	/* LessThan */
IF[ ]	/* If */
NPUSHB[ ]	/* 48 values pushed */
11 12 9 3 0 0 1 1 0 39 3 2 2 1 1 12 34 0 10 10 4 1 0 39 6 5 2 4 4 16 34 8 1 7 7 4 1 0 39 6 5 2 4 4 16 4 35 6
ELSE[ ]	/* Else */
MPPEM[ ]	/* MeasurePixelPerEm */
PUSHB[ ]	/* 1 value pushed */
17
LT[ ]	/* LessThan */
IF[ ]	/* If */
NPUSHB[ ]	/* 48 values pushed */
11 12 9 3 0 0 1 1 0 39 3 2 2 1 1 12 34 0 10 10 4 1 0 39 6 5 2 4 4 13 34 8 1 7 7 4 1 0 39 6 5 2 4 4 13 4 35 6
ELSE[ ]	/* Else */
MPPEM[ ]	/* MeasurePixelPerEm */
PUSHB[ ]	/* 1 value pushed */
21
LT[ ]	/* LessThan */
IF[ ]	/* If */
NPUSHB[ ]	/* 48 values pushed */
11 12 9 3 0 0 1 1 0 39 3 2 2 1 1 12 34 0 10 10 4 1 0 39 6 5 2 4 4 16 34 8 1 7 7 4 1 0 39 6 5 2 4 4 16 4 35 6
ELSE[ ]	/* Else */
NPUSHB[ ]	/* 64 values pushed */
12 9 2 0 0 1 1 0 39 3 2 2 1 1 12 34 0 11 11 1 1 0 39 3 2 2 1 1 12 34 0 10 10 4 1 0 39 6 1 4 4 13 34 0 5 5 13 34 8 1 7 7 4 1 0 39 6 1 4 4 13 4 35 9
EIF[ ]	/* EndIf */
EIF[ ]	/* EndIf */
EIF[ ]	/* EndIf */
EIF[ ]	/* EndIf */
PUSHB[ ]	/* 1 value pushed */
59
CALL[ ]	/* CallFunction */";
};
width = 897;
}
);
note = D;
unicode = 68;
},
{
glyphname = E;
kernLeft = H;
kernRight = E;
lastChange = "2025-07-10 15:51:34 +0000";
layers = (
{
layerId = m01;
shapes = (
{
closed = 1;
nodes = (
(271,341,o),
(293,358,o),
(313,358,qs),
(435,358,ls),
(456,358,o),
(477,344,qs),
(487,336,o),
(507,313,o),
(517,291,o),
(523,282,o),
(529,282,qs),
(544,282,o),
(544,310,q),
(541,392,l),
(544,471,l),
(544,498,o),
(529,498,qs),
(523,498,o),
(517,490,o),
(507,467,o),
(497,456,qs),
(469,421,o),
(435,421,qs),
(314,421,ls),
(271,421,o),
(271,447,qs),
(271,655,ls),
(271,676,o),
(291,699,o),
(317,699,qs),
(449,699,ls),
(489,699,o),
(514,693,qs),
(527,690,o),
(560,675,o),
(587,646,qs),
(616,614,ls),
(633,595,o),
(640,595,qs),
(650,595,o),
(650,609,qs),
(650,616,o),
(646,632,qs),
(633,687,ls),
(624,727,o),
(621,762,q),
(217,762,ls),
(190,762,o),
(154,766,qs),
(129,769,ls),
(116,770,o),
(73,770,o),
(61,759,qs),
(55,754,o),
(51,744,o),
(51,731,o),
(61,719,o),
(70,719,q),
(94,722,l),
(113,722,o),
(138,707,o),
(156,667,o),
(156,602,qs),
(156,161,ls),
(156,95,o),
(146,70,qs),
(135,41,o),
(101,41,q),
(70,44,l),
(61,44,o),
(51,30,o),
(51,12,o),
(61,3,qs),
(65,-1,o),
(83,-7,o),
(116,-7,o),
(131,-6,qs),
(188,-1,ls),
(202,0,o),
(222,0,qs),
(629,0,l),
(649,74,o),
(678,133,qs),
(707,189,o),
(682,188,qs),
(678,187,o),
(667,185,o),
(650,169,qs),
(633,150,ls),
(618,133,o),
(600,117,qs),
(540,63,o),
(419,63,qs),
(317,63,ls),
(271,63,o),
(271,129,qs),
(271,328,ls)
);
}
);
userData = {
assembly = "NPUSHB[ ]	/* 34 values pushed */
94 91 86 84 80 78 74 71 67 64 58 56 50 48 45 44 39 38 37 36 29 28 27 26 21 20 18 15 12 11 4 1 16 8
CALL[ ]	/* CallFunction */
NPUSHB[ ]	/* 94 values pushed */
0 10 11 13 11 10 13 53 0 1 14 0 14 1 0 53 0 12 0 15 14 12 15 1 0 41 7 1 6 6 8 1 0 39 9 1 8 8 12 34 0 11 11 8 1 0 39 9 1 8 8 12 34 0 14 14 13 1 0 39 0 13 13 15 34 0 0 0 2 1 0 39 3 1 2 2 13 34 5 1 4 4 2 1 0 39 3 1 2 2 13 2 35 13
PUSHB[ ]	/* 1 value pushed */
59
CALL[ ]	/* CallFunction */";
};
width = 703;
}
);
note = E;
unicode = 69;
},
{
glyphname = F;
kernLeft = H;
kernRight = F;
lastChange = "2025-07-10 15:51:35 +0000";
layers = (
{
layerId = m01;
shapes = (
{
closed = 1;
nodes = (
(395,4,qs),
(400,8,o),
(406,19,o),
(406,30,o),
(396,45,o),
(388,45,q),
(326,41,l),
(309,41,o),
(287,54,o),
(271,91,o),
(271,154,qs),
(271,326,ls),
(271,339,o),
(293,356,o),
(313,356,qs),
(448,356,ls),
(458,356,o),
(468,353,qs),
(506,340,o),
(527,295,q),
(532,280,o),
(542,280,qs),
(557,280,o),
(557,308,q),
(553,384,l),
(557,469,l),
(557,496,o),
(542,496,qs),
(536,496,o),
(529,488,o),
(520,465,o),
(510,454,qs),
(481,419,o),
(448,419,qs),
(314,419,ls),
(271,419,o),
(271,445,qs),
(271,646,ls),
(271,670,o),
(295,699,o),
(317,699,qs),
(458,699,ls),
(523,699,o),
(568,667,qs),
(588,652,o),
(621,616,o),
(647,583,o),
(655,583,qs),
(666,583,o),
(666,617,o),
(652,669,qs),
(640,716,ls),
(633,739,o),
(630,762,q),
(221,762,ls),
(203,762,o),
(189,764,qs),
(132,769,ls),
(117,770,o),
(74,770,o),
(61,759,qs),
(56,754,o),
(51,744,o),
(51,731,o),
(61,719,o),
(70,719,q),
(94,722,l),
(114,722,o),
(139,707,o),
(156,668,o),
(156,602,qs),
(156,154,ls),
(156,90,o),
(146,67,qs),
(135,41,o),
(102,41,q),
(70,44,l),
(51,44,o),
(51,21,qs),
(51,12,o),
(61,4,qs),
(66,0,o),
(84,-7,o),
(128,-7,o),
(168,-2,qs),
(190,0,o),
(214,0,q),
(355,-7,l),
(379,-7,o)
);
}
);
userData = {
assembly = "NPUSHB[ ]	/* 36 values pushed */
2 0 83 80 74 71 67 65 61 59 55 52 48 45 41 39 34 32 30 28 23 22 21 20 13 12 11 10 5 4 0 88 2 88 16 8
CALL[ ]	/* CallFunction */
NPUSHB[ ]	/* 75 values pushed */
0 8 9 11 9 8 11 53 0 10 0 13 12 10 13 1 0 41 5 1 4 4 6 1 0 39 7 1 6 6 12 34 0 9 9 6 1 0 39 7 1 6 6 12 34 0 12 12 11 1 0 39 0 11 11 15 34 14 3 2 2 2 0 1 0 39 1 15 2 0 0 13 0 35 10
PUSHB[ ]	/* 1 value pushed */
59
CALL[ ]	/* CallFunction */";
};
width = 689;
}
);
note = F;
unicode = 70;
},
{
glyphname = G;
kernLeft = O;
kernRight = G;
lastChange = "2025-07-10 15:51:36 +0000";
layers = (
{
layerId = m01;
shapes = (
{
closed = 1;
nodes = (
(882,374,o),
(882,385,o),
(880,391,qs),
(871,412,o),
(836,412,q),
(745,404,l),
(727,404,o),
(690,408,qs),
(677,409,o),
(646,412,o),
(601,412,o),
(589,400,qs),
(584,396,o),
(580,385,o),
(580,374,o),
(589,358,o),
(599,358,q),
(635,364,l),
(652,364,o),
(673,351,o),
(689,313,o),
(689,250,qs),
(689,157,ls),
(689,113,o),
(627,85,qs),
(572,60,o),
(511,60,qs),
(364,60,o),
(268,150,qs),
(168,245,o),
(168,398,qs),
(168,532,o),
(252,619,qs),
(292,660,o),
(403,706,o),
(560,706,o),
(634,674,qs),
(714,639,o),
(750,576,qs),
(756,564,o),
(767,564,qs),
(780,564,o),
(780,587,qs),
(780,598,o),
(775,619,qs),
(765,665,ls),
(758,690,o),
(749,743,o),
(749,791,o),
(734,791,qs),
(724,791,o),
(695,761,qs),
(678,742,o),
(663,742,qs),
(654,742,o),
(634,750,qs),
(564,777,o),
(487,777,qs),
(292,777,o),
(169,659,qs),
(111,604,o),
(48,452,o),
(48,363,qs),
(48,203,o),
(160,99,qs),
(215,48,o),
(374,-11,o),
(561,-11,o),
(623,7,qs),
(654,16,o),
(706,42,o),
(740,66,o),
(758,76,qs),
(802,99,l),
(802,250,ls),
(802,268,o),
(803,288,qs),
(803,364,o),
(828,364,q),
(863,359,l),
(872,359,o)
);
}
);
userData = {
assembly = "NPUSHB[ ]	/* 34 values pushed */
0 0 0 80 0 80 76 75 74 73 70 69 64 63 62 61 54 52 45 44 40 38 31 29 27 25 23 21 13 12 2 1 15 8
CALL[ ]	/* CallFunction */
MPPEM[ ]	/* MeasurePixelPerEm */
PUSHB[ ]	/* 1 value pushed */
13
LT[ ]	/* LessThan */
IF[ ]	/* If */
NPUSHB[ ]	/* 65 values pushed */
6 1 7 0 1 33 0 3 2 6 2 3 6 53 0 5 6 10 6 5 10 53 12 11 2 10 14 13 9 8 4 0 7 10 0 1 0 41 0 6 6 2 1 0 39 4 1 2 2 12 34 0 7 7 1 1 0 39 0 1 1 13 1 35 8
ELSE[ ]	/* Else */
MPPEM[ ]	/* MeasurePixelPerEm */
PUSHB[ ]	/* 1 value pushed */
17
LT[ ]	/* LessThan */
IF[ ]	/* If */
NPUSHB[ ]	/* 65 values pushed */
6 1 7 0 1 33 0 3 2 6 2 3 6 53 0 5 6 10 6 5 10 53 12 11 2 10 14 13 9 8 4 0 7 10 0 1 0 41 0 6 6 2 1 0 39 4 1 2 2 12 34 0 7 7 1 1 0 39 0 1 1 16 1 35 8
ELSE[ ]	/* Else */
MPPEM[ ]	/* MeasurePixelPerEm */
PUSHB[ ]	/* 1 value pushed */
19
LT[ ]	/* LessThan */
IF[ ]	/* If */
NPUSHB[ ]	/* 65 values pushed */
6 1 7 0 1 33 0 3 2 6 2 3 6 53 0 5 6 10 6 5 10 53 12 11 2 10 14 13 9 8 4 0 7 10 0 1 0 41 0 6 6 2 1 0 39 4 1 2 2 12 34 0 7 7 1 1 0 39 0 1 1 13 1 35 8
ELSE[ ]	/* Else */
MPPEM[ ]	/* MeasurePixelPerEm */
PUSHB[ ]	/* 1 value pushed */
21
LT[ ]	/* LessThan */
IF[ ]	/* If */
NPUSHB[ ]	/* 69 values pushed */
6 1 7 0 1 33 0 3 2 6 2 3 6 53 0 5 6 10 6 5 10 53 12 11 2 10 14 13 9 8 4 0 7 10 0 1 0 41 0 4 4 18 34 0 6 6 2 1 0 39 0 2 2 12 34 0 7 7 1 1 0 39 0 1 1 13 1 35 9
ELSE[ ]	/* Else */
NPUSHB[ ]	/* 69 values pushed */
6 1 7 0 1 33 0 3 2 6 2 3 6 53 0 5 6 10 6 5 10 53 12 11 2 10 14 13 9 8 4 0 7 10 0 1 0 41 0 4 4 18 34 0 6 6 2 1 0 39 0 2 2 12 34 0 7 7 1 1 0 39 0 1 1 16 1 35 9
EIF[ ]	/* EndIf */
EIF[ ]	/* EndIf */
EIF[ ]	/* EndIf */
EIF[ ]	/* EndIf */
PUSHB[ ]	/* 1 value pushed */
59
CALL[ ]	/* CallFunction */";
};
width = 892;
}
);
note = G;
unicode = 71;
},
{
glyphname = H;
kernLeft = H;
kernRight = H;
lastChange = "2025-07-10 15:51:38 +0000";
layers = (
{
layerId = m01;
shapes = (
{
closed = 1;
nodes = (
(287,53,o),
(271,90,o),
(271,154,qs),
(271,374,ls),
(271,387,o),
(295,405,o),
(323,405,qs),
(623,405,ls),
(650,405,o),
(675,387,o),
(675,374,qs),
(675,154,ls),
(675,91,o),
(665,67,qs),
(653,41,o),
(620,41,q),
(588,43,l),
(580,43,o),
(570,30,o),
(570,12,o),
(579,3,qs),
(584,-1,o),
(602,-7,o),
(639,-7,o),
(678,-4,qs),
(704,-1,ls),
(717,0,o),
(748,0,o),
(761,-1,qs),
(787,-4,ls),
(800,-5,o),
(814,-6,qs),
(869,-11,o),
(886,3,qs),
(891,8,o),
(895,19,o),
(895,30,o),
(885,43,o),
(876,43,q),
(845,41,l),
(828,41,o),
(806,53,o),
(790,91,o),
(790,154,qs),
(790,608,ls),
(790,671,o),
(800,695,qs),
(812,722,o),
(845,722,q),
(876,719,l),
(885,719,o),
(895,732,o),
(895,750,o),
(886,759,qs),
(880,763,o),
(862,770,o),
(826,770,o),
(787,766,qs),
(761,764,ls),
(748,762,o),
(717,762,o),
(704,764,qs),
(678,766,ls),
(665,767,o),
(635,770,o),
(591,770,o),
(579,759,qs),
(574,754,o),
(570,744,o),
(570,732,o),
(580,719,o),
(588,719,q),
(620,722,o),
(620,722,q),
(637,722,o),
(659,709,o),
(675,671,o),
(675,608,qs),
(675,500,ls),
(675,475,o),
(623,475,qs),
(323,475,ls),
(271,475,o),
(271,500,qs),
(271,608,ls),
(271,672,o),
(281,695,qs),
(292,722,o),
(326,722,q),
(357,719,l),
(376,719,o),
(376,741,qs),
(376,750,o),
(367,759,qs),
(361,763,o),
(344,770,o),
(307,770,o),
(268,766,qs),
(241,764,ls),
(229,762,o),
(213,762,qs),
(198,762,o),
(186,764,qs),
(160,766,ls),
(146,767,o),
(116,770,o),
(73,770,o),
(61,759,qs),
(55,754,o),
(51,744,o),
(51,732,o),
(61,719,o),
(69,719,q),
(102,722,l),
(119,722,o),
(140,709,o),
(156,671,o),
(156,608,qs),
(156,154,ls),
(156,91,o),
(146,67,qs),
(135,41,o),
(102,41,q),
(69,43,l),
(61,43,o),
(51,30,o),
(51,11,o),
(61,3,qs),
(66,-1,o),
(83,-7,o),
(120,-7,o),
(160,-4,qs),
(186,-1,ls),
(198,0,o),
(213,0,qs),
(229,0,o),
(241,-1,qs),
(268,-4,ls),
(281,-5,o),
(296,-6,qs),
(350,-11,o),
(367,3,qs),
(372,8,o),
(376,19,o),
(376,30,o),
(367,43,o),
(357,43,q),
(326,41,l),
(309,41,o)
);
}
);
userData = {
assembly = "NPUSHB[ ]	/* 66 values pushed */
0 0 0 148 0 148 142 139 133 132 131 130 125 124 121 120 117 116 110 109 108 107 100 99 98 97 92 91 88 87 83 82 77 76 74 73 68 65 60 59 58 57 52 51 48 46 42 41 36 35 34 33 26 25 24 23 18 17 14 12 9 8 2 1 31 8
CALL[ ]	/* CallFunction */
NPUSHB[ ]	/* 61 values pushed */
0 13 0 28 0 13 28 1 0 41 20 19 15 14 12 11 7 7 6 6 8 1 0 39 18 17 16 10 9 5 8 8 12 34 30 29 27 26 22 21 5 4 8 0 0 1 1 0 39 25 24 23 3 2 5 1 1 13 1 35 5
PUSHB[ ]	/* 1 value pushed */
59
CALL[ ]	/* CallFunction */";
};
width = 946;
}
);
note = H;
unicode = 72;
},
{
glyphname = I;
kernLeft = H;
kernRight = H;
lastChange = "2025-07-10 15:51:38 +0000";
layers = (
{
layerId = m01;
shapes = (
{
closed = 1;
nodes = (
(288,54,o),
(271,91,o),
(271,154,qs),
(271,608,ls),
(271,671,o),
(282,695,qs),
(293,722,o),
(326,722,q),
(358,719,l),
(376,719,o),
(376,741,qs),
(376,750,o),
(367,759,qs),
(362,763,o),
(344,770,o),
(308,770,o),
(268,766,qs),
(242,764,ls),
(229,762,o),
(199,762,o),
(186,764,qs),
(160,766,ls),
(147,767,o),
(117,770,o),
(73,770,o),
(61,759,qs),
(56,754,o),
(51,744,o),
(51,732,o),
(61,719,o),
(70,719,q),
(102,722,l),
(119,722,o),
(140,709,o),
(156,671,o),
(156,608,qs),
(156,154,ls),
(156,91,o),
(146,67,qs),
(135,41,o),
(102,41,q),
(70,44,l),
(61,44,o),
(51,30,o),
(51,12,o),
(61,4,qs),
(66,0,o),
(84,-7,o),
(129,-7,o),
(181,-1,qs),
(214,2,o),
(268,-3,qs),
(281,-5,o),
(311,-7,o),
(354,-7,o),
(367,4,qs),
(372,8,o),
(376,19,o),
(376,30,o),
(367,44,o),
(358,44,q),
(326,41,l),
(309,41,o)
);
}
);
userData = {
assembly = "NPUSHB[ ]	/* 32 values pushed */
0 0 0 62 0 62 55 54 53 52 47 46 43 42 38 37 32 31 30 29 22 21 20 19 14 13 9 7 2 1 14 8
CALL[ ]	/* CallFunction */
NPUSHB[ ]	/* 36 values pushed */
11 10 6 3 5 5 7 1 0 39 9 8 2 7 7 12 34 13 12 4 3 4 0 0 1 1 0 39 2 1 1 1 13 1 35 4
PUSHB[ ]	/* 1 value pushed */
59
CALL[ ]	/* CallFunction */";
};
width = 428;
}
);
note = I;
unicode = 73;
},
{
glyphname = J;
kernLeft = J;
kernRight = J;
lastChange = "2025-07-10 15:51:40 +0000";
layers = (
{
layerId = m01;
shapes = (
{
closed = 1;
nodes = (
(677,741,qs),
(677,750,o),
(667,759,qs),
(662,763,o),
(645,770,o),
(608,770,o),
(568,766,qs),
(542,764,ls),
(530,762,o),
(499,762,o),
(484,764,qs),
(423,769,ls),
(407,770,o),
(363,770,o),
(352,759,qs),
(346,754,o),
(342,744,o),
(342,732,o),
(352,719,o),
(360,719,q),
(397,722,l),
(415,722,o),
(438,709,o),
(457,671,o),
(457,608,qs),
(457,256,ls),
(457,154,o),
(413,103,qs),
(393,79,o),
(338,57,o),
(281,57,o),
(254,66,qs),
(166,98,o),
(124,265,qs),
(116,294,o),
(100,294,qs),
(76,294,o),
(76,235,qs),
(76,52,l),
(103,34,o),
(132,22,qs),
(212,-11,o),
(285,-11,qs),
(399,-11,o),
(480,50,qs),
(572,119,o),
(572,239,qs),
(572,608,ls),
(572,671,o),
(582,695,qs),
(593,722,o),
(626,722,q),
(658,719,l),
(677,719,o)
);
}
);
userData = {
assembly = "NPUSHB[ ]	/* 26 values pushed */
0 0 0 53 0 53 48 47 44 43 41 39 34 33 32 31 23 22 18 16 11 9 2 1 11 8
CALL[ ]	/* CallFunction */
MPPEM[ ]	/* MeasurePixelPerEm */
PUSHB[ ]	/* 1 value pushed */
13
LT[ ]	/* LessThan */
IF[ ]	/* If */
NPUSHB[ ]	/* 46 values pushed */
14 1 1 3 1 33 0 2 0 3 0 2 3 53 10 9 5 4 4 0 0 6 1 0 39 8 7 2 6 6 12 34 0 3 3 1 1 0 39 0 1 1 13 1 35 6
ELSE[ ]	/* Else */
MPPEM[ ]	/* MeasurePixelPerEm */
PUSHB[ ]	/* 1 value pushed */
17
LT[ ]	/* LessThan */
IF[ ]	/* If */
NPUSHB[ ]	/* 46 values pushed */
14 1 1 3 1 33 0 2 0 3 0 2 3 53 10 9 5 4 4 0 0 6 1 0 39 8 7 2 6 6 12 34 0 3 3 1 1 0 39 0 1 1 16 1 35 6
ELSE[ ]	/* Else */
MPPEM[ ]	/* MeasurePixelPerEm */
PUSHB[ ]	/* 1 value pushed */
21
LT[ ]	/* LessThan */
IF[ ]	/* If */
NPUSHB[ ]	/* 46 values pushed */
14 1 1 3 1 33 0 2 0 3 0 2 3 53 10 9 5 4 4 0 0 6 1 0 39 8 7 2 6 6 12 34 0 3 3 1 1 0 39 0 1 1 13 1 35 6
ELSE[ ]	/* Else */
NPUSHB[ ]	/* 46 values pushed */
14 1 1 3 1 33 0 2 0 3 0 2 3 53 10 9 5 4 4 0 0 6 1 0 39 8 7 2 6 6 12 34 0 3 3 1 1 0 39 0 1 1 16 1 35 6
EIF[ ]	/* EndIf */
EIF[ ]	/* EndIf */
EIF[ ]	/* EndIf */
PUSHB[ ]	/* 1 value pushed */
59
CALL[ ]	/* CallFunction */";
};
width = 694;
}
);
note = J;
unicode = 74;
},
{
glyphname = K;
kernLeft = H;
kernRight = K;
lastChange = "2025-07-10 15:51:41 +0000";
layers = (
{
layerId = m01;
shapes = (
{
closed = 1;
nodes = (
(287,54,o),
(271,91,o),
(271,154,qs),
(271,360,l),
(301,357,o),
(327,349,qs),
(410,322,o),
(468,205,qs),
(522,95,o),
(585,45,qs),
(618,19,o),
(692,-6,o),
(759,-6,o),
(776,3,qs),
(784,7,o),
(793,18,o),
(793,27,o),
(792,32,qs),
(788,55,o),
(773,55,q),
(750,50,l),
(725,50,o),
(692,83,qs),
(653,124,o),
(621,191,qs),
(567,298,o),
(498,348,qs),
(437,393,o),
(337,409,q),
(442,459,o),
(649,662,qs),
(710,721,o),
(736,721,q),
(769,718,ls),
(773,718,o),
(787,729,o),
(787,744,qs),
(787,769,o),
(742,769,q),
(666,762,l),
(558,769,l),
(517,769,o),
(517,744,qs),
(517,736,o),
(527,723,o),
(536,723,qs),
(567,722,ls),
(588,722,o),
(588,708,qs),
(588,687,o),
(524,626,qs),
(431,538,o),
(355,482,qs),
(312,451,o),
(271,438,q),
(271,608,ls),
(271,671,o),
(281,695,qs),
(292,722,o),
(326,722,q),
(357,719,l),
(376,719,o),
(376,741,qs),
(376,750,o),
(367,759,qs),
(361,763,o),
(344,770,o),
(308,770,o),
(268,766,qs),
(255,765,o),
(229,762,o),
(213,762,qs),
(198,762,o),
(186,764,qs),
(159,766,ls),
(146,767,o),
(116,770,o),
(73,770,o),
(61,759,qs),
(55,754,o),
(51,744,o),
(51,732,o),
(61,719,o),
(70,719,q),
(102,722,l),
(119,722,o),
(140,709,o),
(156,671,o),
(156,608,qs),
(156,154,ls),
(156,91,o),
(146,67,qs),
(135,41,o),
(102,41,q),
(70,44,l),
(51,44,o),
(51,21,qs),
(51,12,o),
(61,4,qs),
(66,0,o),
(83,-7,o),
(128,-7,o),
(168,-2,qs),
(190,0,o),
(213,0,qs),
(237,0,o),
(268,-3,qs),
(281,-5,o),
(311,-7,o),
(354,-7,o),
(367,4,qs),
(372,8,o),
(376,19,o),
(376,30,o),
(367,44,o),
(357,44,q),
(326,41,l),
(309,41,o)
);
}
);
userData = {
assembly = "NPUSHB[ ]	/* 50 values pushed */
0 0 0 117 0 117 105 104 98 97 96 95 85 84 83 82 79 78 77 75 72 69 58 57 56 55 50 49 46 44 40 39 34 33 32 31 24 23 22 21 16 15 13 11 9 7 2 1 23 8
CALL[ ]	/* CallFunction */
NPUSHB[ ]	/* 53 values pushed */
113 88 62 3 0 6 1 33 17 16 13 12 11 7 6 6 6 8 1 0 39 15 14 10 9 4 8 8 12 34 22 21 19 18 5 4 6 0 0 1 1 0 39 20 3 2 3 1 1 13 1 35 5
PUSHB[ ]	/* 1 value pushed */
59
CALL[ ]	/* CallFunction */";
};
width = 793;
}
);
note = K;
unicode = 75;
},
{
glyphname = L;
kernLeft = H;
kernRight = L;
lastChange = "2025-07-10 15:51:42 +0000";
layers = (
{
layerId = m01;
shapes = (
{
closed = 1;
nodes = (
(618,182,q),
(587,144,o),
(537,98,o),
(473,63,o),
(416,63,qs),
(316,63,ls),
(271,63,o),
(271,129,qs),
(271,608,ls),
(271,672,o),
(281,695,qs),
(293,722,o),
(326,722,q),
(358,719,l),
(367,719,o),
(377,732,o),
(377,750,o),
(367,759,qs),
(362,763,o),
(344,770,o),
(308,770,o),
(268,766,qs),
(242,764,ls),
(229,762,o),
(198,762,o),
(186,764,qs),
(160,766,ls),
(146,767,o),
(117,770,o),
(73,770,o),
(61,759,qs),
(56,754,o),
(51,744,o),
(51,732,o),
(61,719,o),
(70,719,q),
(102,722,l),
(119,722,o),
(140,709,o),
(156,671,o),
(156,608,qs),
(156,161,ls),
(156,94,o),
(147,70,qs),
(135,41,o),
(102,41,q),
(70,44,l),
(61,44,o),
(51,30,o),
(51,12,o),
(61,3,qs),
(66,-1,o),
(83,-7,o),
(117,-7,o),
(133,-6,qs),
(181,-2,ls),
(213,0,o),
(247,0,qs),
(627,0,l),
(625,16,o),
(625,67,o),
(640,134,qs),
(646,162,o),
(655,180,o),
(655,185,qs),
(655,198,o),
(643,198,qs),
(634,198,o)
);
}
);
userData = {
assembly = "NPUSHB[ ]	/* 32 values pushed */
1 0 63 60 55 54 53 52 47 46 43 42 38 37 32 31 30 29 22 21 20 19 14 13 10 8 0 67 1 67 14 8
CALL[ ]	/* CallFunction */
NPUSHB[ ]	/* 55 values pushed */
13 1 0 5 12 5 0 12 53 11 10 6 3 5 5 7 1 0 39 9 8 2 7 7 12 34 0 12 12 1 1 2 39 2 1 1 1 13 34 4 1 3 3 1 1 0 39 2 1 1 1 13 1 35 7
PUSHB[ ]	/* 1 value pushed */
59
CALL[ ]	/* CallFunction */";
};
width = 681;
}
);
note = L;
unicode = 76;
},
{
glyphname = M;
kernLeft = N;
kernRight = N;
lastChange = "2025-07-10 15:51:45 +0000";
layers = (
{
layerId = m01;
shapes = (
{
closed = 1;
nodes = (
(306,3,qs),
(312,8,o),
(316,19,o),
(316,30,o),
(306,43,o),
(297,43,q),
(266,41,l),
(248,41,o),
(227,53,o),
(210,91,o),
(210,154,qs),
(210,544,l),
(246,490,o),
(401,232,qs),
(455,147,ls),
(476,114,o),
(489,97,o),
(497,97,qs),
(512,97,o),
(526,125,qs),
(784,617,l),
(779,154,ls),
(779,91,o),
(769,67,qs),
(758,41,o),
(725,41,q),
(693,43,l),
(674,43,o),
(674,21,qs),
(674,12,o),
(684,3,qs),
(689,-1,o),
(707,-7,o),
(743,-7,o),
(783,-4,qs),
(809,-1,ls),
(821,0,o),
(836,0,qs),
(852,0,o),
(864,-1,qs),
(891,-4,ls),
(904,-5,o),
(919,-6,qs),
(974,-11,o),
(990,3,qs),
(995,8,o),
(1000,19,o),
(1000,30,o),
(990,43,o),
(981,43,q),
(949,41,l),
(932,41,o),
(910,53,o),
(895,90,o),
(895,154,qs),
(895,607,ls),
(895,676,o),
(904,699,qs),
(914,723,o),
(946,723,q),
(978,719,l),
(986,719,o),
(996,733,o),
(996,751,o),
(986,760,qs),
(981,764,o),
(963,771,o),
(924,771,o),
(860,766,qs),
(826,763,o),
(783,763,q),
(526,264,l),
(208,762,l),
(165,762,o),
(125,766,qs),
(108,767,o),
(77,769,o),
(42,769,o),
(35,760,qs),
(32,756,o),
(29,747,o),
(29,738,o),
(44,730,o),
(70,717,o),
(102,694,o),
(127,657,o),
(146,613,o),
(146,568,qs),
(145,154,ls),
(145,87,o),
(138,67,qs),
(127,41,o),
(95,41,q),
(64,43,l),
(55,43,o),
(45,30,o),
(45,12,o),
(55,3,qs),
(60,-1,o),
(78,-7,o),
(108,-7,o),
(139,-4,qs),
(159,-1,ls),
(169,0,o),
(180,0,q),
(270,-7,l),
(293,-7,o)
);
}
);
userData = {
assembly = "NPUSHB[ ]	/* 48 values pushed */
0 0 0 106 0 106 101 100 99 98 89 87 81 80 79 78 73 72 69 67 64 63 57 56 55 54 47 46 45 44 39 38 36 35 33 32 30 28 14 13 12 11 6 5 2 1 22 8
CALL[ ]	/* CallFunction */
NPUSHB[ ]	/* 59 values pushed */
94 85 34 3 17 8 1 33 0 17 8 2 8 17 2 53 9 1 8 8 4 1 0 39 7 6 5 3 4 4 12 34 19 18 16 15 11 10 3 7 2 2 0 1 2 39 21 20 14 13 12 1 6 0 0 13 0 35 6
PUSHB[ ]	/* 1 value pushed */
59
CALL[ ]	/* CallFunction */";
};
width = 1033;
}
);
note = M;
unicode = 77;
},
{
glyphname = N;
kernLeft = N;
kernRight = N;
lastChange = "2025-07-10 15:51:47 +0000";
layers = (
{
layerId = m01;
shapes = (
{
closed = 1;
nodes = (
(307,3,qs),
(312,8,o),
(317,19,o),
(317,30,o),
(307,43,o),
(298,43,q),
(262,41,l),
(245,41,o),
(223,53,o),
(207,91,o),
(207,154,qs),
(207,565,l),
(724,5,l),
(759,-19,o),
(777,-19,qs),
(793,-19,o),
(793,-4,qs),
(793,4,o),
(786,9,qs),
(781,13,o),
(767,32,o),
(767,69,qs),
(769,608,ls),
(769,676,o),
(776,696,qs),
(786,723,o),
(818,723,q),
(851,719,l),
(859,719,o),
(869,733,o),
(869,750,o),
(859,759,qs),
(854,764,o),
(836,770,o),
(804,770,o),
(773,767,qs),
(754,764,ls),
(744,763,o),
(733,763,q),
(640,770,l),
(616,770,o),
(604,759,qs),
(598,754,o),
(593,744,o),
(593,733,o),
(604,719,o),
(612,719,q),
(648,723,l),
(665,723,o),
(687,710,o),
(703,672,o),
(703,608,qs),
(703,190,l),
(182,762,l),
(53,769,l),
(37,769,o),
(24,755,o),
(24,750,qs),
(24,735,o),
(53,722,qs),
(71,713,o),
(109,673,o),
(142,612,o),
(142,581,qs),
(142,154,ls),
(142,87,o),
(134,67,qs),
(124,41,o),
(91,41,q),
(60,43,l),
(41,43,o),
(41,21,qs),
(41,11,o),
(51,3,qs),
(56,-1,o),
(74,-7,o),
(104,-7,o),
(136,-4,qs),
(156,-1,ls),
(166,0,o),
(176,0,q),
(270,-7,l),
(293,-7,o)
);
}
);
userData = {
assembly = "NPUSHB[ ]	/* 38 values pushed */
0 0 0 82 0 82 77 76 75 74 68 66 56 55 54 53 48 47 44 43 42 41 36 35 34 33 28 26 14 13 12 11 6 5 2 1 17 8
CALL[ ]	/* CallFunction */
MPPEM[ ]	/* MeasurePixelPerEm */
PUSHB[ ]	/* 1 value pushed */
15
LT[ ]	/* LessThan */
IF[ ]	/* If */
NPUSHB[ ]	/* 50 values pushed */
70 29 2 2 5 1 33 11 10 6 3 5 5 4 1 0 39 9 8 7 3 4 4 12 34 14 13 3 3 2 2 0 1 2 39 1 1 0 0 13 34 16 15 2 12 12 13 12 35 6
ELSE[ ]	/* Else */
MPPEM[ ]	/* MeasurePixelPerEm */
PUSHB[ ]	/* 1 value pushed */
19
LT[ ]	/* LessThan */
IF[ ]	/* If */
NPUSHB[ ]	/* 50 values pushed */
70 29 2 2 5 1 33 11 10 6 3 5 5 4 1 0 39 9 8 7 3 4 4 12 34 14 13 3 3 2 2 0 1 2 39 1 1 0 0 13 34 16 15 2 12 12 16 12 35 6
ELSE[ ]	/* Else */
MPPEM[ ]	/* MeasurePixelPerEm */
PUSHB[ ]	/* 1 value pushed */
21
LT[ ]	/* LessThan */
IF[ ]	/* If */
NPUSHB[ ]	/* 50 values pushed */
70 29 2 2 5 1 33 11 10 6 3 5 5 4 1 0 39 9 8 7 3 4 4 12 34 14 13 3 3 2 2 0 1 2 39 1 1 0 0 13 34 16 15 2 12 12 13 12 35 6
ELSE[ ]	/* Else */
NPUSHB[ ]	/* 50 values pushed */
70 29 2 2 5 1 33 11 10 6 3 5 5 4 1 0 39 9 8 7 3 4 4 12 34 14 13 3 3 2 2 0 1 2 39 16 15 1 3 0 0 13 34 0 12 12 13 12 35 6
EIF[ ]	/* EndIf */
EIF[ ]	/* EndIf */
EIF[ ]	/* EndIf */
PUSHB[ ]	/* 1 value pushed */
59
CALL[ ]	/* CallFunction */";
};
width = 862;
}
);
note = N;
unicode = 78;
},
{
glyphname = O;
kernLeft = O;
kernRight = O;
lastChange = "2025-07-10 15:51:48 +0000";
layers = (
{
layerId = m01;
shapes = (
{
closed = 1;
nodes = (
(235,41,qs),
(328,-11,o),
(445,-11,qs),
(557,-11,o),
(648,36,qs),
(744,85,o),
(796,173,qs),
(853,267,o),
(853,392,qs),
(853,495,o),
(802,584,qs),
(751,672,o),
(665,724,qs),
(574,777,o),
(464,777,qs),
(274,777,o),
(160,662,qs),
(106,607,o),
(48,457,o),
(48,387,qs),
(48,145,o)
);
},
{
closed = 1;
nodes = (
(229,635,qs),
(299,706,o),
(408,706,qs),
(540,706,o),
(634,602,qs),
(733,493,o),
(733,323,qs),
(733,195,o),
(664,125,qs),
(601,62,o),
(501,62,qs),
(414,62,o),
(337,104,qs),
(299,125,o),
(232,188,o),
(184,273,o),
(156,378,o),
(156,440,qs),
(156,561,o)
);
}
);
userData = {
assembly = "NPUSHB[ ]	/* 10 values pushed */
37 35 29 27 18 16 6 4 4 8
CALL[ ]	/* CallFunction */
MPPEM[ ]	/* MeasurePixelPerEm */
PUSHB[ ]	/* 1 value pushed */
13
LT[ ]	/* LessThan */
IF[ ]	/* If */
NPUSHB[ ]	/* 26 values pushed */
0 3 3 0 1 0 39 0 0 0 12 34 0 2 2 1 1 0 39 0 1 1 13 1 35 4
ELSE[ ]	/* Else */
MPPEM[ ]	/* MeasurePixelPerEm */
PUSHB[ ]	/* 1 value pushed */
17
LT[ ]	/* LessThan */
IF[ ]	/* If */
NPUSHB[ ]	/* 26 values pushed */
0 3 3 0 1 0 39 0 0 0 12 34 0 2 2 1 1 0 39 0 1 1 16 1 35 4
ELSE[ ]	/* Else */
MPPEM[ ]	/* MeasurePixelPerEm */
PUSHB[ ]	/* 1 value pushed */
21
LT[ ]	/* LessThan */
IF[ ]	/* If */
NPUSHB[ ]	/* 26 values pushed */
0 3 3 0 1 0 39 0 0 0 12 34 0 2 2 1 1 0 39 0 1 1 13 1 35 4
ELSE[ ]	/* Else */
NPUSHB[ ]	/* 26 values pushed */
0 3 3 0 1 0 39 0 0 0 12 34 0 2 2 1 1 0 39 0 1 1 16 1 35 4
EIF[ ]	/* EndIf */
EIF[ ]	/* EndIf */
EIF[ ]	/* EndIf */
PUSHB[ ]	/* 1 value pushed */
59
CALL[ ]	/* CallFunction */";
};
width = 902;
}
);
note = O;
unicode = 79;
},
{
glyphname = P;
kernLeft = H;
kernRight = P;
lastChange = "2025-07-10 15:51:49 +0000";
layers = (
{
layerId = m01;
shapes = (
{
closed = 1;
nodes = (
(610,354,qs),
(701,426,o),
(701,551,qs),
(701,655,o),
(640,713,qs),
(607,743,o),
(503,777,o),
(394,777,o),
(354,773,qs),
(340,772,o),
(314,768,o),
(286,765,o),
(252,762,o),
(205,762,o),
(167,766,qs),
(155,767,o),
(127,770,o),
(83,770,o),
(70,759,qs),
(65,754,o),
(61,744,o),
(61,731,o),
(71,719,o),
(80,719,q),
(104,722,l),
(123,722,o),
(148,707,o),
(166,667,o),
(166,602,qs),
(166,154,ls),
(166,91,o),
(156,67,qs),
(145,41,o),
(111,41,q),
(80,44,l),
(71,44,o),
(61,30,o),
(61,12,o),
(70,4,qs),
(76,0,o),
(104,-11,o),
(189,-1,qs),
(223,2,o),
(281,-3,qs),
(296,-5,o),
(329,-7,o),
(374,-7,o),
(389,4,qs),
(395,8,o),
(401,19,o),
(401,30,o),
(391,45,o),
(376,45,o),
(371,45,qs),
(360,43,ls),
(355,42,o),
(343,41,o),
(318,41,o),
(297,54,o),
(281,92,o),
(281,154,qs),
(281,308,l),
(347,290,o),
(396,290,qs),
(528,290,o)
);
},
{
closed = 1;
nodes = (
(459,695,qs),
(576,660,o),
(576,517,qs),
(576,445,o),
(535,402,qs),
(493,358,o),
(417,358,qs),
(343,358,o),
(281,392,q),
(281,650,ls),
(281,706,o),
(378,706,qs),
(422,706,o)
);
}
);
userData = {
assembly = "NPUSHB[ ]	/* 36 values pushed */
66 65 1 0 71 69 65 77 66 77 57 56 51 50 47 46 41 40 39 38 31 30 29 28 19 17 12 11 7 6 0 64 1 64 15 8
CALL[ ]	/* CallFunction */
NPUSHB[ ]	/* 68 values pushed */
68 1 12 11 2 1 0 12 2 33 0 12 13 1 0 1 12 0 1 0 41 7 1 6 6 8 1 0 39 10 9 2 8 8 12 34 14 1 11 11 8 1 0 39 10 9 2 8 8 12 34 5 4 2 3 1 1 3 1 0 39 0 3 3 13 3 35 8
PUSHB[ ]	/* 1 value pushed */
59
CALL[ ]	/* CallFunction */";
};
width = 726;
}
);
note = P;
unicode = 80;
},
{
glyphname = Q;
kernLeft = O;
kernRight = Q;
lastChange = "2025-07-10 15:51:51 +0000";
layers = (
{
layerId = m01;
shapes = (
{
closed = 1;
nodes = (
(355,-77,qs),
(373,-64,ls),
(387,-55,o),
(422,-41,o),
(475,-41,o),
(498,-51,qs),
(511,-56,o),
(542,-84,qs),
(609,-148,o),
(666,-180,qs),
(698,-197,o),
(766,-215,o),
(855,-215,o),
(894,-190,qs),
(910,-179,o),
(927,-155,o),
(927,-138,o),
(920,-129,qs),
(917,-125,o),
(909,-120,o),
(898,-120,o),
(892,-124,qs),
(874,-135,ls),
(860,-142,o),
(837,-142,qs),
(784,-142,o),
(743,-105,qs),
(703,-72,ls),
(632,-13,o),
(541,0,q),
(678,29,o),
(763,129,qs),
(805,179,o),
(853,312,o),
(853,446,o),
(840,494,qs),
(813,592,o),
(743,664,qs),
(630,777,o),
(464,777,qs),
(275,777,o),
(160,660,qs),
(48,547,o),
(48,366,qs),
(48,210,o),
(142,110,qs),
(234,9,o),
(393,-6,q),
(358,-16,o),
(323,-44,o),
(323,-63,o),
(335,-80,o),
(351,-80,o)
);
},
{
closed = 1;
nodes = (
(229,636,qs),
(300,706,o),
(408,706,qs),
(540,706,o),
(634,603,qs),
(733,496,o),
(733,326,qs),
(733,196,o),
(664,126,qs),
(601,62,o),
(501,62,qs),
(414,62,o),
(337,104,qs),
(299,126,o),
(232,190,o),
(184,275,o),
(156,381,o),
(156,443,qs),
(156,563,o)
);
}
);
userData = {
assembly = "NPUSHB[ ]	/* 22 values pushed */
0 0 69 67 61 59 0 52 0 52 48 47 40 39 32 31 28 26 13 11 9 8
CALL[ ]	/* CallFunction */
NPUSHB[ ]	/* 56 values pushed */
22 4 2 4 6 1 33 8 1 5 4 2 4 5 2 53 0 2 1 4 2 1 51 0 6 0 4 5 6 4 1 0 41 0 1 0 3 1 3 1 0 40 0 7 7 0 1 0 39 0 0 0 12 7 35 7
PUSHB[ ]	/* 1 value pushed */
59
CALL[ ]	/* CallFunction */";
};
width = 902;
}
);
note = Q;
unicode = 81;
},
{
glyphname = R;
kernLeft = H;
kernRight = R;
lastChange = "2025-07-10 15:51:52 +0000";
layers = (
{
layerId = m01;
shapes = (
{
closed = 1;
nodes = (
(287,53,o),
(271,90,o),
(271,154,qs),
(271,340,l),
(321,340,o),
(351,320,qs),
(366,310,o),
(391,278,o),
(434,203,o),
(510,83,o),
(553,45,qs),
(595,7,o),
(650,-1,qs),
(733,-15,o),
(771,5,qs),
(781,10,o),
(790,21,o),
(790,39,o),
(786,48,qs),
(783,55,o),
(769,56,q),
(741,50,l),
(711,50,o),
(684,68,qs),
(667,80,o),
(630,121,o),
(567,229,o),
(518,281,qs),
(489,313,o),
(442,339,q),
(450,339,ls),
(561,339,o),
(632,394,qs),
(710,455,o),
(710,563,qs),
(710,653,o),
(649,711,qs),
(618,741,o),
(517,777,o),
(416,777,o),
(273,765,qs),
(245,762,o),
(185,762,o),
(156,766,qs),
(144,767,o),
(116,769,o),
(73,769,o),
(60,758,qs),
(55,754,o),
(50,744,o),
(50,731,o),
(61,718,o),
(69,718,q),
(94,721,l),
(113,721,o),
(138,707,o),
(156,667,o),
(156,602,qs),
(156,154,ls),
(156,90,o),
(146,67,qs),
(134,41,o),
(101,41,q),
(69,43,l),
(61,43,o),
(50,30,o),
(50,11,o),
(60,3,qs),
(65,-1,o),
(83,-7,o),
(119,-7,o),
(159,-4,qs),
(185,-1,ls),
(198,0,o),
(229,0,o),
(255,-2,o),
(281,-5,o),
(311,-7,o),
(354,-7,o),
(367,3,qs),
(372,8,o),
(376,19,o),
(376,30,o),
(366,43,o),
(357,43,q),
(326,41,l),
(309,41,o)
);
},
{
closed = 1;
nodes = (
(271,404,q),
(271,649,ls),
(271,666,o),
(280,688,o),
(315,706,o),
(381,706,qs),
(486,706,o),
(538,658,qs),
(563,636,o),
(585,575,o),
(585,500,o),
(571,472,qs),
(529,390,o),
(411,390,qs),
(358,390,ls),
(304,390,o)
);
}
);
userData = {
assembly = "NPUSHB[ ]	/* 46 values pushed */
89 87 0 0 97 95 87 102 89 102 0 86 0 86 82 81 66 65 64 63 56 54 47 46 44 43 40 39 34 33 32 31 24 23 22 21 16 15 12 11 8 7 2 1 20 8
CALL[ ]	/* CallFunction */
MPPEM[ ]	/* MeasurePixelPerEm */
PUSHB[ ]	/* 1 value pushed */
21
LT[ ]	/* LessThan */
IF[ ]	/* If */
NPUSHB[ ]	/* 69 values pushed */
101 1 16 17 1 33 19 1 16 14 1 11 0 16 11 1 0 41 7 1 6 6 8 1 0 39 10 9 2 8 8 12 34 0 17 17 8 1 0 39 10 9 2 8 8 12 34 18 15 13 12 5 4 6 0 0 1 1 0 39 3 2 2 1 1 13 1 35 8
ELSE[ ]	/* Else */
NPUSHB[ ]	/* 76 values pushed */
101 1 16 17 1 33 0 13 11 0 11 13 0 53 19 1 16 14 1 11 13 16 11 1 0 41 7 1 6 6 8 1 0 39 10 9 2 8 8 12 34 0 17 17 8 1 0 39 10 9 2 8 8 12 34 18 15 12 5 4 5 0 0 1 1 0 39 3 2 2 1 1 13 1 35 9
EIF[ ]	/* EndIf */
PUSHB[ ]	/* 1 value pushed */
59
CALL[ ]	/* CallFunction */";
};
width = 790;
}
);
note = R;
unicode = 82;
},
{
glyphname = S;
kernLeft = S;
kernRight = S;
lastChange = "2025-07-10 15:51:54 +0000";
layers = (
{
layerId = m01;
shapes = (
{
closed = 1;
nodes = (
(592,597,o),
(578,656,qs),
(569,692,o),
(567,764,qs),
(566,789,o),
(546,789,qs),
(538,789,o),
(522,769,qs),
(514,757,o),
(509,754,qs),
(506,751,o),
(502,750,o),
(500,750,o),
(489,755,qs),
(435,777,o),
(350,777,qs),
(222,777,o),
(149,710,qs),
(86,652,o),
(86,566,qs),
(86,486,o),
(147,429,qs),
(213,365,o),
(344,335,qs),
(452,311,o),
(497,262,qs),
(531,226,o),
(531,173,qs),
(531,57,o),
(359,57,qs),
(272,57,o),
(201,112,qs),
(124,172,o),
(114,265,qs),
(109,294,o),
(95,294,qs),
(75,294,o),
(75,235,qs),
(75,62,l),
(130,36,ls),
(231,-11,o),
(363,-11,qs),
(492,-11,o),
(565,49,qs),
(638,109,o),
(638,211,qs),
(638,299,o),
(575,356,qs),
(542,387,o),
(437,435,o),
(262,480,o),
(223,522,qs),
(190,556,o),
(190,607,qs),
(190,648,o),
(224,675,qs),
(263,706,o),
(336,706,qs),
(415,706,o),
(468,678,qs),
(495,664,o),
(539,618,o),
(562,572,o),
(571,558,o),
(578,558,qs),
(592,558,o)
);
}
);
userData = {
assembly = "NPUSHB[ ]	/* 22 values pushed */
1 0 60 58 53 52 50 48 36 34 30 28 24 22 8 6 0 65 1 65 9 8
CALL[ ]	/* CallFunction */
MPPEM[ ]	/* MeasurePixelPerEm */
PUSHB[ ]	/* 1 value pushed */
13
LT[ ]	/* LessThan */
IF[ ]	/* If */
NPUSHB[ ]	/* 57 values pushed */
26 1 4 3 1 33 0 6 5 1 5 6 1 53 8 1 0 1 3 1 0 3 53 0 3 4 1 3 4 51 0 1 1 5 1 0 39 7 1 5 5 12 34 0 4 4 2 1 0 39 0 2 2 13 2 35 8
ELSE[ ]	/* Else */
MPPEM[ ]	/* MeasurePixelPerEm */
PUSHB[ ]	/* 1 value pushed */
17
LT[ ]	/* LessThan */
IF[ ]	/* If */
NPUSHB[ ]	/* 57 values pushed */
26 1 4 3 1 33 0 6 5 1 5 6 1 53 8 1 0 1 3 1 0 3 53 0 3 4 1 3 4 51 0 1 1 5 1 0 39 7 1 5 5 12 34 0 4 4 2 1 0 39 0 2 2 16 2 35 8
ELSE[ ]	/* Else */
MPPEM[ ]	/* MeasurePixelPerEm */
PUSHB[ ]	/* 1 value pushed */
21
LT[ ]	/* LessThan */
IF[ ]	/* If */
NPUSHB[ ]	/* 57 values pushed */
26 1 4 3 1 33 0 6 5 1 5 6 1 53 8 1 0 1 3 1 0 3 53 0 3 4 1 3 4 51 0 1 1 5 1 0 39 7 1 5 5 12 34 0 4 4 2 1 0 39 0 2 2 13 2 35 8
ELSE[ ]	/* Else */
NPUSHB[ ]	/* 61 values pushed */
26 1 4 3 1 33 0 6 5 1 5 6 1 53 8 1 0 1 3 1 0 3 53 0 3 4 1 3 4 51 0 7 7 18 34 0 1 1 5 1 0 39 0 5 5 12 34 0 4 4 2 1 0 39 0 2 2 16 2 35 9
EIF[ ]	/* EndIf */
EIF[ ]	/* EndIf */
EIF[ ]	/* EndIf */
PUSHB[ ]	/* 1 value pushed */
59
CALL[ ]	/* CallFunction */";
};
width = 686;
}
);
note = S;
unicode = 83;
},
{
glyphname = T;
kernLeft = T;
kernRight = T;
lastChange = "2025-07-10 15:51:55 +0000";
layers = (
{
layerId = m01;
shapes = (
{
closed = 1;
nodes = (
(66,599,o),
(101,635,o),
(147,669,o),
(183,678,o),
(189,680,qs),
(232,694,o),
(329,694,q),
(329,164,ls),
(329,99,o),
(318,72,qs),
(313,56,o),
(291,41,o),
(265,41,o),
(249,43,qs),
(244,43,o),
(234,45,o),
(218,45,o),
(208,30,o),
(208,12,o),
(221,3,qs),
(227,-1,o),
(246,-7,o),
(286,-7,o),
(328,-4,qs),
(356,-1,ls),
(370,0,o),
(386,0,qs),
(402,0,o),
(416,-1,qs),
(444,-4,ls),
(458,-5,o),
(491,-7,o),
(536,-7,o),
(551,3,qs),
(558,8,o),
(563,19,o),
(563,30,o),
(554,45,o),
(539,45,o),
(526,43,o),
(512,41,qs),
(506,41,o),
(481,41,o),
(459,57,o),
(443,100,o),
(443,164,qs),
(443,693,l),
(616,693,o),
(649,635,qs),
(655,625,o),
(662,601,o),
(667,570,o),
(680,570,qs),
(692,570,o),
(699,604,qs),
(704,629,o),
(717,675,qs),
(725,700,o),
(742,752,o),
(756,786,o),
(748,791,qs),
(745,792,o),
(739,793,o),
(731,793,o),
(719,784,o),
(688,762,o),
(657,762,qs),
(163,762,ls),
(149,762,o),
(118,764,o),
(110,773,qs),
(95,793,o),
(85,793,qs),
(79,793,o),
(69,783,o),
(61,730,o),
(49,697,qs),
(40,672,ls),
(35,660,o),
(28,634,o),
(24,606,o),
(24,572,o),
(36,572,qs),
(42,572,o)
);
}
);
userData = {
assembly = "NPUSHB[ ]	/* 36 values pushed */
1 0 77 76 71 70 67 66 61 60 57 55 53 52 51 50 45 44 41 40 36 35 31 29 20 19 17 13 11 9 0 83 1 83 16 8
CALL[ ]	/* CallFunction */
MPPEM[ ]	/* MeasurePixelPerEm */
PUSHB[ ]	/* 1 value pushed */
11
LT[ ]	/* LessThan */
IF[ ]	/* If */
NPUSHB[ ]	/* 48 values pushed */
4 15 2 0 5 6 5 0 45 3 1 1 1 18 34 14 1 5 5 2 1 0 39 0 2 2 12 34 13 12 7 3 6 6 8 1 0 39 11 10 9 3 8 8 13 8 35 6
ELSE[ ]	/* Else */
NPUSHB[ ]	/* 49 values pushed */
4 15 2 0 5 6 5 0 6 53 3 1 1 1 18 34 14 1 5 5 2 1 0 39 0 2 2 12 34 13 12 7 3 6 6 8 1 0 39 11 10 9 3 8 8 13 8 35 6
EIF[ ]	/* EndIf */
PUSHB[ ]	/* 1 value pushed */
59
CALL[ ]	/* CallFunction */";
};
width = 751;
}
);
note = T;
unicode = 84;
},
{
glyphname = U;
kernLeft = U;
kernRight = U;
lastChange = "2025-07-10 15:51:56 +0000";
layers = (
{
layerId = m01;
shapes = (
{
closed = 1;
nodes = (
(749,0,o),
(768,-1,o),
(778,-2,qs),
(800,-4,ls),
(810,-4,o),
(844,-4,o),
(857,7,qs),
(863,11,o),
(867,22,o),
(867,33,o),
(857,44,o),
(845,44,o),
(831,39,o),
(803,39,o),
(783,51,o),
(770,89,o),
(770,173,qs),
(769,608,ls),
(769,636,o),
(771,657,qs),
(776,722,o),
(823,722,q),
(855,719,l),
(874,719,o),
(874,741,qs),
(874,750,o),
(864,759,qs),
(859,763,o),
(841,770,o),
(805,770,o),
(765,766,qs),
(739,764,ls),
(727,762,o),
(696,762,o),
(683,764,qs),
(657,766,ls),
(644,767,o),
(614,770,o),
(571,770,o),
(558,759,qs),
(553,754,o),
(548,744,o),
(548,732,o),
(558,719,o),
(567,719,q),
(599,722,l),
(616,722,o),
(637,709,o),
(653,671,o),
(653,608,qs),
(653,135,l),
(567,62,o),
(361,62,o),
(306,111,qs),
(248,165,o),
(248,263,qs),
(248,608,ls),
(248,672,o),
(257,695,qs),
(269,722,o),
(302,722,q),
(334,719,l),
(343,719,o),
(353,732,o),
(353,750,o),
(343,759,qs),
(338,763,o),
(320,770,o),
(283,770,o),
(244,766,qs),
(218,764,ls),
(205,762,o),
(190,762,qs),
(175,762,o),
(162,764,qs),
(136,766,ls),
(123,767,o),
(92,770,o),
(49,770,o),
(37,759,qs),
(32,754,o),
(27,744,o),
(27,732,o),
(37,719,o),
(46,719,q),
(78,722,l),
(95,722,o),
(116,709,o),
(133,671,o),
(133,608,qs),
(133,272,ls),
(133,138,o),
(213,64,qs),
(293,-11,o),
(443,-11,qs),
(556,-11,o),
(654,56,q),
(658,-3,o),
(689,-3,q),
(743,0,ls)
);
}
);
userData = {
assembly = "NPUSHB[ ]	/* 48 values pushed */
1 0 97 96 95 93 88 87 86 85 78 77 76 75 70 69 66 65 61 60 55 54 53 52 47 46 39 38 37 36 31 30 27 25 21 20 15 14 13 12 5 3 0 99 1 98 22 8
CALL[ ]	/* CallFunction */
NPUSHB[ ]	/* 69 values pushed */
48 1 9 2 2 1 17 9 2 33 16 15 11 10 8 7 3 7 2 2 4 1 0 39 14 13 12 6 5 5 4 4 12 34 0 9 9 0 1 0 39 20 19 1 21 4 0 0 13 34 18 1 17 17 0 1 0 39 20 19 1 21 4 0 0 13 0 35 7
PUSHB[ ]	/* 1 value pushed */
59
CALL[ ]	/* CallFunction */";
};
width = 915;
}
);
note = U;
unicode = 85;
},
{
glyphname = V;
kernLeft = V;
kernRight = V;
lastChange = "2025-07-10 15:51:57 +0000";
layers = (
{
layerId = m01;
shapes = (
{
closed = 1;
nodes = (
(862,740,qs),
(862,750,o),
(838,769,o),
(822,769,q),
(741,762,l),
(722,762,o),
(664,769,o),
(604,769,o),
(581,749,o),
(581,731,o),
(591,719,o),
(600,719,q),
(642,723,l),
(668,723,o),
(668,705,qs),
(668,663,o),
(648,618,qs),
(466,224,l),
(455,196,o),
(451,196,qs),
(449,196,o),
(440,201,o),
(423,242,q),
(244,637,ls),
(224,682,o),
(224,700,qs),
(224,723,o),
(254,723,q),
(292,719,l),
(311,719,o),
(311,738,qs),
(311,750,o),
(285,769,o),
(260,769,q),
(129,762,l),
(101,762,o),
(55,769,o),
(10,769,o),
(-3,759,qs),
(-9,754,o),
(-15,743,o),
(-15,730,o),
(-4,718,o),
(4,718,q),
(31,722,l),
(39,722,o),
(54,715,o),
(81,685,o),
(108,623,qs),
(319,166,ls),
(368,59,o),
(420,13,qs),
(441,-7,o),
(474,-19,o),
(497,-19,o),
(497,-9,qs),
(497,-5,o),
(493,-2,q),
(481,6,ls),
(474,12,o),
(474,24,qs),
(474,50,o),
(509,134,qs),
(711,588,ls),
(750,671,o),
(777,704,qs),
(792,722,o),
(816,722,q),
(844,718,l),
(862,718,o)
);
}
);
userData = {
assembly = "NPUSHB[ ]	/* 36 values pushed */
0 0 0 69 0 69 66 65 64 63 62 61 58 57 56 55 50 48 42 41 40 39 36 33 32 31 26 25 24 23 15 14 2 1 16 8
CALL[ ]	/* CallFunction */
MPPEM[ ]	/* MeasurePixelPerEm */
PUSHB[ ]	/* 1 value pushed */
11
LT[ ]	/* LessThan */
IF[ ]	/* If */
NPUSHB[ ]	/* 39 values pushed */
0 8 0 1 0 8 1 53 15 14 10 9 7 6 3 2 8 0 0 4 1 0 39 13 12 11 5 4 4 4 12 34 0 1 1 16 1 35 4
ELSE[ ]	/* Else */
MPPEM[ ]	/* MeasurePixelPerEm */
PUSHB[ ]	/* 1 value pushed */
19
LT[ ]	/* LessThan */
IF[ ]	/* If */
NPUSHB[ ]	/* 39 values pushed */
0 8 0 1 0 8 1 53 15 14 10 9 7 6 3 2 8 0 0 4 1 0 39 13 12 11 5 4 4 4 12 34 0 1 1 13 1 35 4
ELSE[ ]	/* Else */
NPUSHB[ ]	/* 39 values pushed */
0 8 0 1 0 8 1 53 15 14 10 9 7 6 3 2 8 0 0 4 1 0 39 13 12 11 5 4 4 4 12 34 0 1 1 16 1 35 4
EIF[ ]	/* EndIf */
EIF[ ]	/* EndIf */
PUSHB[ ]	/* 1 value pushed */
59
CALL[ ]	/* CallFunction */";
};
width = 833;
}
);
note = V;
unicode = 86;
},
{
glyphname = W;
kernLeft = W;
kernRight = W;
lastChange = "2025-07-10 15:51:58 +0000";
layers = (
{
background = {
shapes = (
{
closed = 1;
nodes = (
(852,740,qs),
(852,750,o),
(828,769,o),
(812,769,q),
(731,762,l),
(712,762,o),
(654,769,o),
(594,769,o),
(571,749,o),
(571,731,o),
(581,719,o),
(590,719,q),
(632,723,l),
(658,723,o),
(658,705,qs),
(658,663,o),
(638,618,qs),
(456,224,l),
(445,196,o),
(441,196,qs),
(439,196,o),
(430,201,o),
(413,242,q),
(234,637,ls),
(214,682,o),
(214,700,qs),
(214,723,o),
(244,723,q),
(282,719,l),
(301,719,o),
(301,738,qs),
(301,750,o),
(275,769,o),
(250,769,q),
(119,762,l),
(91,762,o),
(45,769,o),
(0,769,o),
(-13,759,qs),
(-19,754,o),
(-25,743,o),
(-25,730,o),
(-14,718,o),
(-6,718,q),
(21,722,l),
(29,722,o),
(44,715,o),
(71,685,o),
(98,623,qs),
(309,166,ls),
(358,59,o),
(410,13,qs),
(431,-7,o),
(464,-19,o),
(487,-19,o),
(487,-9,qs),
(487,-5,o),
(483,-2,q),
(471,6,ls),
(464,12,o),
(464,24,qs),
(464,50,o),
(499,134,qs),
(701,588,ls),
(740,671,o),
(767,704,qs),
(782,722,o),
(806,722,q),
(834,718,l),
(852,718,o)
);
}
);
};
layerId = m01;
shapes = (
{
closed = 1;
nodes = (
(372,-9,qs),
(459,25,o),
(502,146,qs),
(611,448,l),
(720,140,ls),
(746,69,o),
(804,21,qs),
(827,1,o),
(868,-19,o),
(877,-19,qs),
(896,-19,o),
(896,2,qs),
(896,8,o),
(885,16,qs),
(881,19,o),
(875,27,o),
(875,48,o),
(894,100,qs),
(938,220,l),
(1065,588,ls),
(1097,678,o),
(1119,704,qs),
(1130,717,o),
(1152,722,o),
(1165,722,q),
(1192,719,l),
(1201,719,o),
(1211,731,o),
(1211,750,o),
(1199,760,qs),
(1193,764,o),
(1178,770,o),
(1148,770,o),
(1109,762,o),
(1071,762,o),
(1015,770,o),
(955,770,o),
(931,749,o),
(931,731,o),
(941,719,o),
(950,719,q),
(988,724,l),
(1019,724,o),
(1019,686,o),
(998,627,qs),
(855,213,ls),
(849,196,o),
(846,190,qs),
(839,179,o),
(823,194,qs),
(815,202,o),
(806,230,qs),
(672,638,ls),
(655,691,o),
(655,704,qs),
(655,713,o),
(667,723,o),
(684,723,q),
(721,719,l),
(740,719,o),
(740,739,qs),
(740,750,o),
(714,770,o),
(672,770,o),
(657,769,qs),
(599,764,ls),
(584,762,o),
(568,762,q),
(475,770,l),
(453,770,o),
(439,759,qs),
(434,754,o),
(428,744,o),
(428,731,o),
(438,719,o),
(447,719,q),
(475,722,l),
(485,722,o),
(502,716,o),
(529,687,o),
(551,623,q),
(574,566,l),
(448,208,ls),
(438,180,o),
(425,180,qs),
(420,180,o),
(410,190,qs),
(401,198,o),
(391,226,qs),
(222,638,ls),
(202,687,o),
(202,701,qs),
(202,723,o),
(233,723,q),
(271,719,l),
(289,719,o),
(289,739,qs),
(289,750,o),
(264,770,o),
(222,770,o),
(207,769,qs),
(147,764,ls),
(133,762,o),
(89,762,o),
(42,770,o),
(-2,770,o),
(-15,759,qs),
(-21,754,o),
(-26,744,o),
(-26,731,o),
(-17,719,o),
(-7,719,q),
(20,722,l),
(27,722,o),
(35,718,qs),
(59,705,o),
(97,621,q),
(289,165,ls),
(322,87,o),
(331,58,qs),
(335,43,o),
(340,23,o),
(340,8,o),
(332,2,qs),
(327,-1,o),
(327,-8,qs),
(327,-17,o),
(334,-17,qs),
(351,-17,o)
);
}
);
userData = {
assembly = "NPUSHB[ ]	/* 54 values pushed */
1 0 119 117 104 103 102 101 96 95 94 93 92 91 88 87 86 85 71 70 69 68 65 63 61 60 59 58 53 52 51 50 44 42 35 34 33 32 29 27 25 24 23 22 17 16 15 14 0 128 1 128 25 8
CALL[ ]	/* CallFunction */
MPPEM[ ]	/* MeasurePixelPerEm */
PUSHB[ ]	/* 1 value pushed */
11
LT[ ]	/* LessThan */
IF[ ]	/* If */
NPUSHB[ ]	/* 55 values pushed */
124 46 2 8 1 1 33 0 8 1 0 1 8 0 53 22 21 17 16 15 14 10 9 7 6 2 11 1 1 3 1 0 39 20 19 18 13 12 11 5 4 8 3 3 12 34 23 24 2 0 0 13 0 35 5
ELSE[ ]	/* Else */
NPUSHB[ ]	/* 55 values pushed */
124 46 2 8 1 1 33 0 8 1 0 1 8 0 53 22 21 17 16 15 14 10 9 7 6 2 11 1 1 3 1 0 39 20 19 18 13 12 11 5 4 8 3 3 12 34 23 24 2 0 0 16 0 35 5
EIF[ ]	/* EndIf */
PUSHB[ ]	/* 1 value pushed */
59
CALL[ ]	/* CallFunction */";
};
width = 1167;
}
);
note = W;
unicode = 87;
},
{
glyphname = X;
kernLeft = X;
kernRight = X;
lastChange = "2025-07-10 15:52:00 +0000";
layers = (
{
layerId = m01;
shapes = (
{
closed = 1;
nodes = (
(186,-7,o),
(247,-7,o),
(270,13,o),
(270,31,o),
(260,43,o),
(252,43,q),
(214,39,l),
(183,39,o),
(183,57,qs),
(183,82,o),
(260,176,q),
(375,308,l),
(523,120,ls),
(552,82,o),
(552,57,qs),
(552,40,o),
(501,40,o),
(494,41,qs),
(491,42,o),
(487,43,o),
(483,43,qs),
(465,43,o),
(465,24,qs),
(465,12,o),
(490,-7,o),
(515,-7,q),
(646,0,l),
(676,0,o),
(721,-7,o),
(767,-7,o),
(790,14,o),
(790,31,o),
(780,44,o),
(771,44,q),
(744,41,l),
(738,41,o),
(734,42,qs),
(722,44,o),
(706,67,qs),
(461,398,l),
(668,665,ls),
(691,692,o),
(721,722,o),
(732,722,q),
(760,719,l),
(779,719,o),
(779,741,qs),
(779,750,o),
(755,770,o),
(716,770,o),
(677,762,o),
(639,762,o),
(587,770,o),
(528,770,o),
(505,749,o),
(505,731,o),
(515,719,o),
(523,719,q),
(561,724,l),
(592,724,o),
(592,706,qs),
(592,667,o),
(525,585,qs),
(417,454,l),
(253,681,ls),
(243,695,o),
(243,705,qs),
(243,723,o),
(274,723,q),
(312,719,l),
(330,719,o),
(330,739,qs),
(330,750,o),
(305,770,o),
(280,770,q),
(149,762,l),
(132,762,o),
(74,769,qs),
(63,770,o),
(51,770,qs),
(40,770,o),
(31,767,qs),
(5,758,o),
(5,739,qs),
(5,719,o),
(24,719,q),
(51,722,o),
(51,722,q),
(63,722,o),
(77,711,o),
(88,696,qs),
(331,369,l),
(102,93,ls),
(60,41,o),
(37,41,q),
(9,44,l),
(1,44,o),
(-9,31,o),
(-9,12,o),
(15,-7,o),
(31,-7,q),
(112,0,l),
(130,0,o)
);
}
);
userData = {
assembly = "NPUSHB[ ]	/* 58 values pushed */
0 0 0 102 0 102 101 100 97 96 95 94 86 85 82 80 77 74 73 72 69 68 67 66 59 58 57 56 53 52 51 50 49 48 45 44 43 42 34 33 32 31 28 25 23 21 17 16 14 13 8 7 6 5 2 1 27 8
CALL[ ]	/* CallFunction */
NPUSHB[ ]	/* 58 values pushed */
90 62 38 10 4 1 3 1 33 15 14 10 9 8 7 4 7 3 3 5 1 0 39 13 12 11 6 4 5 5 12 34 23 22 21 20 17 16 2 7 1 1 0 1 2 39 26 25 24 19 18 5 0 0 13 0 35 5
PUSHB[ ]	/* 1 value pushed */
59
CALL[ ]	/* CallFunction */";
};
width = 766;
}
);
note = X;
unicode = 88;
},
{
glyphname = Y;
kernLeft = Y;
kernRight = Y;
lastChange = "2025-07-10 15:52:00 +0000";
layers = (
{
layerId = m01;
shapes = (
{
closed = 1;
nodes = (
(776,734,o),
(776,748,qs),
(776,769,o),
(736,769,q),
(655,762,l),
(636,762,o),
(581,769,o),
(521,769,o),
(498,753,o),
(498,736,o),
(507,719,o),
(516,719,q),
(553,723,l),
(584,723,o),
(584,685,o),
(550,635,qs),
(402,404,l),
(230,655,l),
(209,691,o),
(209,705,qs),
(209,723,o),
(240,723,q),
(278,719,l),
(283,719,o),
(296,729,o),
(296,743,qs),
(296,769,o),
(246,769,q),
(115,762,l),
(17,769,l),
(-6,769,o),
(-29,753,o),
(-29,735,o),
(-19,718,o),
(-10,718,q),
(17,722,l),
(47,722,o),
(59,705,qs),
(322,328,l),
(322,161,ls),
(322,97,o),
(312,74,qs),
(306,61,o),
(285,48,o),
(258,48,o),
(242,50,qs),
(237,51,o),
(227,52,o),
(211,52,o),
(202,38,o),
(202,21,o),
(214,11,qs),
(220,6,o),
(248,-3,o),
(321,4,qs),
(350,6,ls),
(363,7,o),
(379,7,qs),
(396,7,o),
(409,6,qs),
(438,4,ls),
(452,2,o),
(484,0,o),
(529,0,o),
(544,11,qs),
(551,16,o),
(557,26,o),
(557,38,o),
(547,52,o),
(532,52,o),
(521,51,o),
(511,49,o),
(500,48,o),
(474,48,o),
(453,61,o),
(437,98,o),
(437,161,qs),
(437,331,l),
(686,705,l),
(699,722,o),
(725,722,qs),
(757,723,ls),
(762,723,o)
);
}
);
userData = {
assembly = "NPUSHB[ ]	/* 44 values pushed */
2 0 79 78 77 76 75 74 71 70 69 68 61 60 59 58 55 51 48 47 46 45 38 37 34 33 27 26 25 23 22 21 19 18 13 12 9 8 0 82 2 82 20 8
CALL[ ]	/* CallFunction */
NPUSHB[ ]	/* 50 values pushed */
65 43 4 3 1 0 1 33 15 14 13 12 10 9 19 7 0 0 11 1 0 39 18 17 16 3 11 11 12 34 8 7 2 3 1 1 3 1 0 39 6 5 4 3 3 3 13 3 35 5
PUSHB[ ]	/* 1 value pushed */
59
CALL[ ]	/* CallFunction */";
};
width = 751;
}
);
note = Y;
unicode = 89;
},
{
glyphname = Z;
kernLeft = Z;
kernRight = Z;
lastChange = "2025-07-10 15:52:02 +0000";
layers = (
{
layerId = m01;
shapes = (
{
closed = 1;
nodes = (
(670,83,o),
(699,145,q),
(699,145,l),
(713,173,o),
(713,185,qs),
(713,203,o),
(693,203,qs),
(686,203,o),
(671,187,qs),
(595,107,o),
(559,86,qs),
(519,63,o),
(455,63,qs),
(220,62,l),
(684,715,ls),
(696,731,o),
(696,746,qs),
(696,762,o),
(667,762,qs),
(214,762,ls),
(170,762,o),
(160,773,q),
(146,793,o),
(135,793,qs),
(129,793,o),
(119,783,o),
(108,717,o),
(90,662,qs),
(83,640,o),
(74,607,o),
(74,582,o),
(85,582,qs),
(90,582,o),
(100,589,o),
(126,621,o),
(151,642,qs),
(166,653,o),
(201,675,o),
(261,699,o),
(331,699,qs),
(529,699,l),
(71,54,ls),
(55,32,o),
(55,22,qs),
(55,0,o),
(93,0,qs),
(650,0,l)
);
}
);
userData = {
assembly = "NPUSHB[ ]	/* 22 values pushed */
1 0 44 43 40 38 34 32 28 25 23 21 15 13 7 5 0 46 1 46 9 8
CALL[ ]	/* CallFunction */
NPUSHB[ ]	/* 54 values pushed */
0 2 1 6 1 2 6 53 0 6 7 1 6 7 51 0 7 5 1 7 5 51 0 3 3 18 34 0 1 1 4 1 0 39 0 4 4 12 34 0 5 5 0 1 2 39 8 1 0 0 13 0 35 8
PUSHB[ ]	/* 1 value pushed */
59
CALL[ ]	/* CallFunction */";
};
width = 750;
}
);
note = Z;
unicode = 90;
},
{
glyphname = bracketleft;
lastChange = "2025-07-10 15:48:07 +0000";
layers = (
{
layerId = m01;
shapes = (
{
closed = 1;
nodes = (
(222,-88,qs),
(214,-85,o),
(214,-75,qs),
(214,779,ls),
(214,784,o),
(216,788,qs),
(221,797,o),
(269,797,q),
(334,792,l),
(344,792,o),
(354,808,o),
(354,819,o),
(351,824,qs),
(339,845,o),
(303,845,qs),
(126,845,ls),
(100,845,o),
(100,815,qs),
(100,-110,ls),
(100,-127,o),
(110,-141,o),
(123,-141,qs),
(303,-141,ls),
(326,-141,o),
(341,-130,qs),
(348,-125,o),
(354,-115,o),
(354,-104,o),
(344,-88,o),
(334,-88,q),
(269,-93,l),
(234,-93,o)
);
}
);
userData = {
assembly = "NPUSHB[ ]	/* 18 values pushed */
0 0 0 31 0 31 24 23 22 21 17 14 10 7 2 1 7 8
CALL[ ]	/* CallFunction */
NPUSHB[ ]	/* 26 values pushed */
6 5 2 0 0 1 0 1 1 0 40 4 1 3 3 2 1 0 39 0 2 2 14 3 35 3
PUSHB[ ]	/* 1 value pushed */
59
CALL[ ]	/* CallFunction */";
};
width = 417;
}
);
note = bracketleft;
unicode = 91;
},
{
glyphname = asciicircum;
lastChange = "2025-07-10 15:48:07 +0000";
layers = (
{
layerId = m01;
shapes = (
{
closed = 1;
nodes = (
(153,479,l),
(275,665,l),
(401,479,l),
(490,479,l),
(293,775,l),
(261,775,l),
(66,479,l)
);
}
);
userData = {
assembly = "NPUSHB[ ]	/* 8 values pushed */
6 5 3 2 1 0 3 8
CALL[ ]	/* CallFunction */
NPUSHB[ ]	/* 19 values pushed */
4 1 1 0 1 33 2 1 1 0 1 56 0 0 0 12 0 35 3
PUSHB[ ]	/* 1 value pushed */
59
CALL[ ]	/* CallFunction */";
};
width = 557;
}
);
note = asciicircum;
unicode = 94;
},
{
glyphname = underscore;
lastChange = "2025-07-10 15:48:07 +0000";
layers = (
{
layerId = m01;
shapes = (
{
closed = 1;
nodes = (
(-27,-85,o),
(-49,-104,o),
(-49,-138,o),
(-28,-157,o),
(-11,-157,qs),
(674,-157,ls),
(691,-157,o),
(712,-138,o),
(712,-104,o),
(690,-85,o),
(673,-85,qs),
(-10,-85,ls)
);
}
);
userData = {
assembly = "NPUSHB[ ]	/* 10 values pushed */
1 0 7 4 0 11 1 10 3 8
CALL[ ]	/* CallFunction */
NPUSHB[ ]	/* 25 values pushed */
2 1 0 1 1 0 1 0 38 2 1 0 0 1 1 0 39 0 1 0 1 1 0 36 3
PUSHB[ ]	/* 1 value pushed */
59
CALL[ ]	/* CallFunction */";
};
width = 664;
}
);
note = underscore;
unicode = 95;
},
{
glyphname = grave;
lastChange = "2025-07-10 15:48:07 +0000";
layers = (
{
layerId = m01;
shapes = (
{
closed = 1;
nodes = (
(218,619,qs),
(143,721,ls),
(105,773,o),
(75,779,qs),
(28,790,o),
(12,759,qs),
(-1,732,o),
(22,699,qs),
(33,685,o),
(73,662,qs),
(188,596,ls),
(202,587,o),
(211,587,qs),
(217,586,o),
(225,596,o),
(226,608,o)
);
}
);
userData = {
assembly = "NPUSHB[ ]	/* 4 values pushed */
3 2 1 8
CALL[ ]	/* CallFunction */
NPUSHB[ ]	/* 5 values pushed */
0 0 0 46 1
PUSHB[ ]	/* 1 value pushed */
59
CALL[ ]	/* CallFunction */";
};
width = 314;
}
);
note = grave;
unicode = 96;
},
{
glyphname = a;
kernLeft = a;
kernRight = a;
lastChange = "2025-07-10 15:54:14 +0000";
layers = (
{
layerId = m01;
shapes = (
{
closed = 1;
nodes = (
(603,-4,l),
(628,-4,o),
(642,7,qs),
(647,11,o),
(651,22,o),
(651,32,o),
(641,46,o),
(633,46,q),
(605,42,l),
(589,42,o),
(568,49,o),
(551,85,o),
(551,173,qs),
(551,314,ls),
(551,409,o),
(506,455,qs),
(479,482,o),
(387,514,o),
(266,514,o),
(196,497,q),
(193,497,o),
(173,509,qs),
(159,518,o),
(140,518,qs),
(121,518,o),
(121,493,qs),
(121,430,o),
(108,390,qs),
(103,371,o),
(103,362,qs),
(103,347,o),
(131,347,o),
(154,378,qs),
(184,419,o),
(218,434,qs),
(234,440,o),
(269,445,o),
(320,445,o),
(348,439,qs),
(437,422,o),
(437,326,qs),
(437,270,l),
(369,306,o),
(285,306,qs),
(198,306,o),
(140,270,qs),
(72,228,o),
(72,147,qs),
(72,73,o),
(124,31,qs),
(150,11,o),
(228,-12,o),
(302,-12,o),
(324,-8,qs),
(396,6,o),
(438,48,q),
(443,-3,o),
(472,-3,q),
(527,0,l)
);
},
{
closed = 1;
nodes = (
(389,57,o),
(314,57,qs),
(254,57,o),
(187,107,o),
(187,158,qs),
(187,177,o),
(195,192,qs),
(223,245,o),
(314,245,qs),
(379,245,o),
(437,208,q),
(437,116,l)
);
}
);
userData = {
assembly = "NPUSHB[ ]	/* 30 values pushed */
1 0 69 67 62 60 51 50 49 48 40 39 38 37 35 33 27 26 21 20 15 13 6 5 0 58 1 56 13 8
CALL[ ]	/* CallFunction */
MPPEM[ ]	/* MeasurePixelPerEm */
PUSHB[ ]	/* 1 value pushed */
9
LT[ ]	/* LessThan */
IF[ ]	/* If */
NPUSHB[ ]	/* 87 values pushed */
16 1 10 2 70 59 2 11 10 2 1 8 11 3 33 0 2 0 10 11 2 10 1 0 41 0 6 6 15 34 0 3 3 5 1 0 39 7 1 5 5 21 34 0 4 4 5 1 0 39 7 1 5 5 21 34 0 11 11 0 1 0 39 1 12 2 0 0 13 34 9 1 8 8 0 1 0 39 1 12 2 0 0 13 0 35 11
ELSE[ ]	/* Else */
MPPEM[ ]	/* MeasurePixelPerEm */
PUSHB[ ]	/* 1 value pushed */
11
LT[ ]	/* LessThan */
IF[ ]	/* If */
NPUSHB[ ]	/* 87 values pushed */
16 1 10 2 70 59 2 11 10 2 1 8 11 3 33 0 2 0 10 11 2 10 1 0 41 0 6 6 15 34 0 3 3 5 1 0 39 7 1 5 5 15 34 0 4 4 5 1 0 39 7 1 5 5 15 34 0 11 11 0 1 0 39 1 12 2 0 0 13 34 9 1 8 8 0 1 0 39 1 12 2 0 0 13 0 35 11
ELSE[ ]	/* Else */
MPPEM[ ]	/* MeasurePixelPerEm */
PUSHB[ ]	/* 1 value pushed */
13
LT[ ]	/* LessThan */
IF[ ]	/* If */
NPUSHB[ ]	/* 87 values pushed */
16 1 10 2 70 59 2 11 10 2 1 8 11 3 33 0 2 0 10 11 2 10 1 0 41 0 6 6 15 34 0 3 3 5 1 0 39 7 1 5 5 21 34 0 4 4 5 1 0 39 7 1 5 5 21 34 0 11 11 0 1 0 39 1 12 2 0 0 13 34 9 1 8 8 0 1 0 39 1 12 2 0 0 13 0 35 11
ELSE[ ]	/* Else */
MPPEM[ ]	/* MeasurePixelPerEm */
PUSHB[ ]	/* 1 value pushed */
17
LT[ ]	/* LessThan */
IF[ ]	/* If */
NPUSHB[ ]	/* 71 values pushed */
16 1 10 2 70 59 2 3 8 10 2 33 0 2 0 10 8 2 10 1 0 41 0 6 6 15 34 0 3 3 5 1 0 39 7 1 5 5 21 34 0 4 4 5 1 0 39 7 1 5 5 21 34 11 9 2 8 8 0 1 0 39 1 12 2 0 0 13 0 35 9
ELSE[ ]	/* Else */
NPUSHB[ ]	/* 87 values pushed */
16 1 10 2 70 59 2 11 10 2 1 8 11 3 33 0 2 0 10 11 2 10 1 0 41 0 6 6 15 34 0 3 3 5 1 0 39 7 1 5 5 21 34 0 4 4 5 1 0 39 7 1 5 5 21 34 0 11 11 0 1 0 39 1 12 2 0 0 13 34 9 1 8 8 0 1 0 39 1 12 2 0 0 13 0 35 11
EIF[ ]	/* EndIf */
EIF[ ]	/* EndIf */
EIF[ ]	/* EndIf */
EIF[ ]	/* EndIf */
PUSHB[ ]	/* 1 value pushed */
59
CALL[ ]	/* CallFunction */";
};
width = 660;
}
);
note = a;
unicode = 97;
},
{
glyphname = b;
kernRight = o;
lastChange = "2025-07-10 16:37:01 +0000";
layers = (
{
layerId = m01;
shapes = (
{
closed = 1;
nodes = (
(130,1,qs),
(164,12,ls),
(178,17,o),
(202,17,o),
(219,12,qs),
(273,-2,ls),
(312,-12,o),
(354,-12,qs),
(472,-12,o),
(550,67,qs),
(627,146,o),
(627,259,qs),
(627,374,o),
(554,444,qs),
(481,514,o),
(362,514,qs),
(268,514,o),
(211,466,q),
(211,781,ls),
(211,823,o),
(206,835,qs),
(203,841,o),
(190,845,o),
(174,845,o),
(139,838,o),
(103,838,qs),
(88,838,o),
(57,841,qs),
(37,843,ls),
(27,844,o),
(0,844,o),
(-15,828,o),
(-15,821,qs),
(-15,800,o),
(21,797,qs),
(40,795,o),
(72,782,o),
(95,743,o),
(95,658,qs),
(95,146,ls),
(95,82,o),
(91,59,qs),
(88,45,o),
(80,31,o),
(54,11,o),
(54,1,qs),
(54,-15,o),
(71,-15,qs),
(83,-15,o)
);
},
{
closed = 1;
nodes = (
(219,392,o),
(232,404,qs),
(272,440,o),
(328,440,qs),
(407,440,o),
(454,391,qs),
(505,336,o),
(505,230,qs),
(505,150,o),
(459,106,qs),
(413,62,o),
(328,62,qs),
(243,62,o),
(211,125,q),
(211,374,l)
);
}
);
userData = {
assembly = "NPUSHB[ ]	/* 24 values pushed */
1 0 60 58 52 50 45 44 41 39 33 31 25 24 23 21 18 17 0 48 1 48 10 8
CALL[ ]	/* CallFunction */
MPPEM[ ]	/* MeasurePixelPerEm */
PUSHB[ ]	/* 1 value pushed */
9
LT[ ]	/* LessThan */
IF[ ]	/* If */
NPUSHB[ ]	/* 53 values pushed */
30 1 8 4 63 49 2 7 8 2 33 0 8 8 4 1 0 39 0 4 4 15 34 0 6 6 1 1 0 39 3 2 2 1 1 14 34 0 7 7 0 1 0 39 5 9 2 0 0 13 0 35 7
ELSE[ ]	/* Else */
MPPEM[ ]	/* MeasurePixelPerEm */
PUSHB[ ]	/* 1 value pushed */
11
LT[ ]	/* LessThan */
IF[ ]	/* If */
NPUSHB[ ]	/* 53 values pushed */
30 1 8 4 63 49 2 7 8 2 33 0 8 8 4 1 0 39 0 4 4 15 34 0 6 6 1 1 0 39 3 2 2 1 1 14 34 0 7 7 0 1 0 39 5 9 2 0 0 16 0 35 7
ELSE[ ]	/* Else */
MPPEM[ ]	/* MeasurePixelPerEm */
PUSHB[ ]	/* 1 value pushed */
15
LT[ ]	/* LessThan */
IF[ ]	/* If */
NPUSHB[ ]	/* 53 values pushed */
30 1 8 4 63 49 2 7 8 2 33 0 8 8 4 1 0 39 0 4 4 15 34 0 6 6 1 1 0 39 3 2 2 1 1 14 34 0 7 7 0 1 0 39 5 9 2 0 0 13 0 35 7
ELSE[ ]	/* Else */
MPPEM[ ]	/* MeasurePixelPerEm */
PUSHB[ ]	/* 1 value pushed */
19
LT[ ]	/* LessThan */
IF[ ]	/* If */
NPUSHB[ ]	/* 53 values pushed */
30 1 8 4 63 49 2 7 8 2 33 0 8 8 4 1 0 39 0 4 4 15 34 0 6 6 1 1 0 39 3 2 2 1 1 14 34 0 7 7 0 1 0 39 5 9 2 0 0 16 0 35 7
ELSE[ ]	/* Else */
MPPEM[ ]	/* MeasurePixelPerEm */
PUSHB[ ]	/* 1 value pushed */
21
LT[ ]	/* LessThan */
IF[ ]	/* If */
NPUSHB[ ]	/* 53 values pushed */
30 1 8 4 63 49 2 7 8 2 33 0 8 8 4 1 0 39 0 4 4 15 34 0 6 6 1 1 0 39 3 2 2 1 1 14 34 0 7 7 0 1 0 39 5 9 2 0 0 13 0 35 7
ELSE[ ]	/* Else */
NPUSHB[ ]	/* 53 values pushed */
30 1 8 4 63 49 2 7 8 2 33 0 8 8 4 1 0 39 0 4 4 15 34 0 6 6 1 1 0 39 3 2 2 1 1 14 34 0 7 7 0 1 0 39 5 9 2 0 0 16 0 35 7
EIF[ ]	/* EndIf */
EIF[ ]	/* EndIf */
EIF[ ]	/* EndIf */
EIF[ ]	/* EndIf */
EIF[ ]	/* EndIf */
PUSHB[ ]	/* 1 value pushed */
59
CALL[ ]	/* CallFunction */";
};
width = 672;
}
);
metricRight = o;
note = b;
unicode = 98;
},
{
glyphname = c;
kernLeft = o;
kernRight = c;
lastChange = "2025-07-10 16:37:01 +0000";
layers = (
{
layerId = m01;
shapes = (
{
closed = 1;
nodes = (
(530,383,qs),
(521,406,o),
(518,433,qs),
(517,446,o),
(517,476,o),
(517,514,o),
(500,514,qs),
(495,514,o),
(487,511,qs),
(472,503,ls),
(463,500,o),
(446,493,o),
(434,493,o),
(426,496,qs),
(388,514,o),
(331,514,qs),
(251,514,o),
(183,476,qs),
(151,458,o),
(100,408,o),
(64,349,o),
(45,285,o),
(45,193,o),
(66,145,qs),
(108,47,o),
(211,8,qs),
(316,-32,o),
(415,9,qs),
(439,19,o),
(481,45,o),
(513,75,o),
(532,106,o),
(532,128,o),
(517,143,o),
(492,140,o),
(479,122,qs),
(437,62,o),
(351,62,qs),
(274,62,o),
(222,120,qs),
(166,181,o),
(166,280,qs),
(166,358,o),
(212,401,qs),
(233,421,o),
(288,440,o),
(376,440,o),
(409,429,qs),
(430,422,o),
(469,396,o),
(508,346,o),
(521,346,qs),
(535,346,o),
(535,361,qs),
(535,370,o)
);
}
);
userData = {
assembly = "NPUSHB[ ]	/* 14 values pushed */
48 46 42 41 39 37 17 15 8 7 3 1 6 8
CALL[ ]	/* CallFunction */
NPUSHB[ ]	/* 38 values pushed */
0 2 0 2 56 0 4 4 15 34 0 1 1 3 1 0 39 5 1 3 3 15 34 0 0 0 3 1 0 39 5 1 3 3 15 0 35 6
PUSHB[ ]	/* 1 value pushed */
59
CALL[ ]	/* CallFunction */";
};
width = 569;
}
);
metricLeft = o;
note = c;
unicode = 99;
},
{
glyphname = d;
kernLeft = o;
lastChange = "2025-07-10 16:37:01 +0000";
layers = (
{
layerId = m01;
shapes = (
{
closed = 1;
nodes = (
(483,-3,q),
(537,0,ls),
(542,0,o),
(561,-1,o),
(572,-2,qs),
(594,-4,ls),
(604,-4,o),
(637,-4,o),
(651,7,qs),
(656,11,o),
(660,22,o),
(660,33,o),
(650,42,o),
(642,42,q),
(614,38,l),
(597,38,o),
(577,50,o),
(564,88,o),
(564,173,qs),
(564,781,ls),
(564,824,o),
(558,835,qs),
(555,841,o),
(543,845,o),
(527,845,o),
(517,843,o),
(511,842,qs),
(481,839,ls),
(470,838,o),
(441,838,o),
(410,841,qs),
(400,842,o),
(380,844,o),
(353,844,o),
(338,828,o),
(338,821,qs),
(338,800,o),
(373,797,qs),
(392,795,o),
(424,783,o),
(448,742,o),
(448,659,qs),
(448,487,l),
(390,514,o),
(316,514,qs),
(201,514,o),
(122,438,qs),
(45,362,o),
(45,252,qs),
(45,132,o),
(119,62,qs),
(154,27,o),
(256,-11,o),
(391,-11,o),
(452,26,q),
(462,-3,o)
);
},
{
closed = 1;
nodes = (
(264,62,o),
(214,119,qs),
(163,178,o),
(163,277,qs),
(163,353,o),
(205,396,qs),
(247,440,o),
(323,440,qs),
(405,440,o),
(448,385,q),
(448,98,l),
(409,62,o)
);
}
);
userData = {
assembly = "NPUSHB[ ]	/* 26 values pushed */
67 66 60 58 55 52 51 50 49 47 42 41 40 39 31 30 26 25 22 21 11 9 2 1 12 8
CALL[ ]	/* CallFunction */
MPPEM[ ]	/* MeasurePixelPerEm */
PUSHB[ ]	/* 1 value pushed */
13
LT[ ]	/* LessThan */
IF[ ]	/* If */
NPUSHB[ ]	/* 67 values pushed */
12 1 10 1 57 56 2 11 10 0 1 0 5 3 33 4 3 2 2 2 14 34 0 10 10 1 1 0 39 0 1 1 15 34 0 11 11 0 1 0 39 9 8 7 3 0 0 13 34 6 1 5 5 0 1 0 39 9 8 7 3 0 0 13 0 35 8
ELSE[ ]	/* Else */
MPPEM[ ]	/* MeasurePixelPerEm */
PUSHB[ ]	/* 1 value pushed */
17
LT[ ]	/* LessThan */
IF[ ]	/* If */
NPUSHB[ ]	/* 67 values pushed */
12 1 10 1 57 56 2 11 10 0 1 0 5 3 33 4 3 2 2 2 14 34 0 10 10 1 1 0 39 0 1 1 15 34 0 11 11 0 1 0 39 9 8 7 3 0 0 16 34 6 1 5 5 0 1 0 39 9 8 7 3 0 0 16 0 35 8
ELSE[ ]	/* Else */
MPPEM[ ]	/* MeasurePixelPerEm */
PUSHB[ ]	/* 1 value pushed */
21
LT[ ]	/* LessThan */
IF[ ]	/* If */
NPUSHB[ ]	/* 67 values pushed */
12 1 10 1 57 56 2 11 10 0 1 0 5 3 33 4 3 2 2 2 14 34 0 10 10 1 1 0 39 0 1 1 15 34 0 11 11 0 1 0 39 9 8 7 3 0 0 13 34 6 1 5 5 0 1 0 39 9 8 7 3 0 0 13 0 35 8
ELSE[ ]	/* Else */
NPUSHB[ ]	/* 67 values pushed */
12 1 10 1 57 56 2 11 10 0 1 0 5 3 33 4 3 2 2 2 14 34 0 10 10 1 1 0 39 0 1 1 15 34 0 11 11 0 1 0 39 9 8 7 3 0 0 16 34 6 1 5 5 0 1 0 39 9 8 7 3 0 0 16 0 35 8
EIF[ ]	/* EndIf */
EIF[ ]	/* EndIf */
EIF[ ]	/* EndIf */
PUSHB[ ]	/* 1 value pushed */
59
CALL[ ]	/* CallFunction */";
};
width = 675;
}
);
metricLeft = o;
note = d;
unicode = 100;
},
{
glyphname = e;
kernLeft = o;
kernRight = e;
lastChange = "2025-07-10 16:37:01 +0000";
layers = (
{
layerId = m01;
shapes = (
{
closed = 1;
nodes = (
(267,-12,o),
(388,-12,o),
(494,33,o),
(527,77,qs),
(546,102,o),
(546,121,qs),
(546,125,o),
(544,129,qs),
(537,146,o),
(526,146,qs),
(509,146,o),
(494,124,qs),
(485,111,o),
(469,100,qs),
(420,62,o),
(361,62,qs),
(292,62,o),
(242,96,qs),
(185,135,o),
(168,206,q),
(254,227,ls),
(406,263,o),
(531,308,qs),
(546,313,o),
(551,325,qs),
(554,330,o),
(555,340,o),
(555,359,o),
(535,395,qs),
(506,443,o),
(463,473,qs),
(403,514,o),
(323,514,qs),
(203,514,o),
(121,434,qs),
(85,397,o),
(45,303,o),
(45,189,o),
(89,92,o),
(165,24,o)
);
},
{
closed = 1;
nodes = (
(161,276,qs),
(161,285,ls),
(161,371,o),
(223,411,qs),
(268,440,o),
(319,440,qs),
(371,440,o),
(404,410,qs),
(418,396,o),
(432,366,o),
(432,349,o),
(431,346,qs),
(425,337,o),
(301,304,qs),
(162,268,l),
(161,272,o)
);
}
);
userData = {
assembly = "NPUSHB[ ]	/* 12 values pushed */
50 48 38 37 30 28 24 22 7 5 5 8
CALL[ ]	/* CallFunction */
MPPEM[ ]	/* MeasurePixelPerEm */
PUSHB[ ]	/* 1 value pushed */
9
LT[ ]	/* LessThan */
IF[ ]	/* If */
NPUSHB[ ]	/* 40 values pushed */
19 1 2 4 1 33 0 2 4 1 4 2 1 53 0 4 4 0 1 0 39 0 0 0 15 34 0 1 1 3 1 0 39 0 3 3 13 3 35 6
ELSE[ ]	/* Else */
MPPEM[ ]	/* MeasurePixelPerEm */
PUSHB[ ]	/* 1 value pushed */
13
LT[ ]	/* LessThan */
IF[ ]	/* If */
NPUSHB[ ]	/* 40 values pushed */
19 1 2 4 1 33 0 2 4 1 4 2 1 53 0 4 4 0 1 0 39 0 0 0 15 34 0 1 1 3 1 0 39 0 3 3 16 3 35 6
ELSE[ ]	/* Else */
MPPEM[ ]	/* MeasurePixelPerEm */
PUSHB[ ]	/* 1 value pushed */
17
LT[ ]	/* LessThan */
IF[ ]	/* If */
NPUSHB[ ]	/* 40 values pushed */
19 1 2 4 1 33 0 2 4 1 4 2 1 53 0 4 4 0 1 0 39 0 0 0 15 34 0 1 1 3 1 0 39 0 3 3 13 3 35 6
ELSE[ ]	/* Else */
MPPEM[ ]	/* MeasurePixelPerEm */
PUSHB[ ]	/* 1 value pushed */
21
LT[ ]	/* LessThan */
IF[ ]	/* If */
NPUSHB[ ]	/* 40 values pushed */
19 1 2 4 1 33 0 2 4 1 4 2 1 53 0 4 4 0 1 0 39 0 0 0 15 34 0 1 1 3 1 0 39 0 3 3 16 3 35 6
ELSE[ ]	/* Else */
NPUSHB[ ]	/* 40 values pushed */
19 1 2 4 1 33 0 2 4 1 4 2 1 53 0 4 4 0 1 0 39 0 0 0 15 34 0 1 1 3 1 0 39 0 3 3 13 3 35 6
EIF[ ]	/* EndIf */
EIF[ ]	/* EndIf */
EIF[ ]	/* EndIf */
EIF[ ]	/* EndIf */
PUSHB[ ]	/* 1 value pushed */
59
CALL[ ]	/* CallFunction */";
};
width = 592;
}
);
metricLeft = o;
note = e;
unicode = 101;
},
{
glyphname = f;
kernLeft = f;
kernRight = f;
lastChange = "2025-07-10 15:54:38 +0000";
layers = (
{
layerId = m01;
shapes = (
{
closed = 1;
nodes = (
(125,-5,o),
(148,-2,o),
(204,2,o),
(260,-4,qs),
(271,-5,o),
(282,-6,qs),
(328,-11,o),
(350,2,qs),
(357,7,o),
(366,18,o),
(366,30,o),
(356,44,o),
(348,44,q),
(314,40,l),
(280,40,o),
(269,63,qs),
(255,92,o),
(255,174,qs),
(255,442,l),
(347,440,ls),
(375,440,o),
(391,454,qs),
(397,459,o),
(402,473,o),
(402,484,o),
(400,490,qs),
(394,514,o),
(359,514,qs),
(255,511,l),
(255,638,ls),
(255,721,o),
(281,762,qs),
(294,782,o),
(328,800,o),
(369,800,o),
(388,780,qs),
(399,770,o),
(420,734,o),
(433,693,o),
(441,686,o),
(448,686,qs),
(462,686,o),
(462,703,qs),
(462,845,l),
(406,858,o),
(312,858,o),
(271,842,qs),
(140,789,o),
(140,557,qs),
(140,512,l),
(133,513,o),
(125,513,qs),
(95,514,ls),
(87,514,o),
(62,514,o),
(44,492,o),
(44,465,o),
(54,454,qs),
(59,448,o),
(79,440,o),
(108,439,o),
(140,440,q),
(140,174,ls),
(140,138,o),
(137,112,qs),
(128,40,o),
(88,40,q),
(64,43,l),
(56,43,o),
(45,30,o),
(45,22,qs),
(45,-7,o),
(95,-7,qs),
(105,-7,o)
);
}
);
userData = {
assembly = "NPUSHB[ ]	/* 30 values pushed */
1 0 61 60 59 58 54 52 46 44 39 38 33 31 28 27 22 18 13 11 7 6 5 4 0 73 1 73 13 8
CALL[ ]	/* CallFunction */
NPUSHB[ ]	/* 62 values pushed */
29 1 7 5 23 1 3 4 2 33 0 6 7 4 7 6 4 53 0 7 7 5 1 0 39 0 5 5 14 34 9 1 3 3 4 1 0 39 8 1 4 4 15 34 11 10 2 3 1 1 0 1 0 39 12 1 0 0 13 0 35 8
PUSHB[ ]	/* 1 value pushed */
59
CALL[ ]	/* CallFunction */";
};
width = 417;
}
);
note = f;
unicode = 102;
},
{
glyphname = g;
kernLeft = g;
kernRight = g;
lastChange = "2025-07-10 15:54:51 +0000";
layers = (
{
layerId = m01;
shapes = (
{
closed = 1;
nodes = (
(113,-38,qs),
(55,-73,o),
(55,-125,qs),
(55,-179,o),
(112,-213,qs),
(179,-252,o),
(313,-252,qs),
(443,-252,o),
(521,-208,qs),
(596,-164,o),
(596,-93,qs),
(596,-32,o),
(540,1,qs),
(510,19,o),
(415,42,o),
(253,52,o),
(214,65,qs),
(195,72,o),
(195,87,qs),
(195,99,o),
(218,109,qs),
(229,114,o),
(267,121,o),
(299,121,o),
(310,121,o),
(316,120,q),
(422,123,o),
(490,186,qs),
(558,248,o),
(558,341,qs),
(558,412,o),
(499,458,q),
(556,460,o),
(620,493,o),
(620,518,qs),
(620,528,o),
(606,544,o),
(576,544,o),
(557,532,qs),
(539,521,ls),
(501,497,o),
(434,496,q),
(384,514,o),
(329,514,qs),
(209,514,o),
(136,459,qs),
(101,433,o),
(62,359,o),
(62,288,o),
(68,264,qs),
(91,184,o),
(177,145,q),
(138,131,o),
(97,85,o),
(97,62,qs),
(97,14,o),
(162,-16,q),
(133,-25,o)
);
},
{
closed = 1;
nodes = (
(186,388,qs),
(211,440,o),
(297,440,qs),
(358,440,o),
(396,404,qs),
(442,361,o),
(442,280,qs),
(442,189,o),
(326,189,qs),
(176,189,o),
(176,345,qs),
(176,370,o)
);
},
{
closed = 1;
nodes = (
(202,-50,o),
(240,-39,q),
(387,-44,o),
(453,-73,qs),
(482,-85,o),
(505,-115,o),
(505,-143,o),
(489,-164,o),
(436,-185,o),
(353,-185,qs),
(163,-185,o),
(163,-109,qs),
(163,-89,o)
);
}
);
userData = {
assembly = "NPUSHB[ ]	/* 26 values pushed */
80 79 73 71 67 65 61 59 51 49 42 41 34 32 31 30 25 24 20 19 16 15 14 12 12 8
CALL[ ]	/* CallFunction */
NPUSHB[ ]	/* 75 values pushed */
5 1 4 8 0 1 11 6 2 33 0 2 0 2 55 0 3 1 9 1 3 9 53 0 8 5 1 4 6 8 4 1 0 41 0 6 0 11 10 6 11 1 0 41 0 1 1 15 34 0 9 9 0 1 0 39 0 0 0 15 34 0 10 10 7 1 2 39 0 7 7 17 7 35 10
PUSHB[ ]	/* 1 value pushed */
59
CALL[ ]	/* CallFunction */";
};
width = 623;
}
);
note = g;
unicode = 103;
},
{
glyphname = h;
kernLeft = h;
kernRight = n;
lastChange = "2025-07-10 16:30:24 +0000";
layers = (
{
layerId = m01;
shapes = (
{
closed = 1;
nodes = (
(366,22,qs),
(366,30,o),
(355,43,o),
(347,43,q),
(323,40,l),
(309,40,o),
(288,47,o),
(268,86,o),
(268,167,qs),
(268,347,l),
(296,383,o),
(333,406,qs),
(351,417,o),
(392,431,o),
(444,431,o),
(484,408,o),
(514,359,o),
(514,306,qs),
(514,167,ls),
(514,92,o),
(495,40,o),
(466,40,q),
(440,43,l),
(431,43,o),
(421,30,o),
(421,18,o),
(423,13,qs),
(431,-7,o),
(473,-7,q),
(576,0,l),
(592,0,o),
(648,-6,qs),
(693,-11,o),
(711,3,qs),
(716,8,o),
(720,18,o),
(720,30,o),
(711,43,o),
(703,43,q),
(677,40,l),
(665,40,o),
(647,49,o),
(629,89,o),
(629,167,qs),
(629,334,ls),
(629,382,o),
(617,417,qs),
(581,514,o),
(458,514,qs),
(349,514,o),
(268,427,q),
(268,781,ls),
(268,824,o),
(263,835,qs),
(260,841,o),
(248,845,o),
(229,845,o),
(216,842,qs),
(186,839,ls),
(174,838,o),
(146,838,o),
(114,841,qs),
(94,843,ls),
(84,844,o),
(58,844,o),
(42,828,o),
(42,821,qs),
(42,800,o),
(78,797,qs),
(96,795,o),
(128,783,o),
(152,742,o),
(152,660,qs),
(152,167,ls),
(152,95,o),
(140,67,qs),
(128,40,o),
(101,40,q),
(77,43,l),
(68,43,o),
(58,30,o),
(58,11,o),
(67,3,qs),
(73,-1,o),
(92,-7,o),
(118,-7,o),
(178,0,o),
(209,0,q),
(314,-7,l),
(366,-7,o)
);
}
);
userData = {
assembly = "NPUSHB[ ]	/* 38 values pushed */
2 0 86 85 84 83 75 74 68 67 66 65 61 58 51 50 49 48 41 39 33 32 29 28 25 24 12 11 10 9 4 3 0 89 2 89 17 8
CALL[ ]	/* CallFunction */
NPUSHB[ ]	/* 50 values pushed */
79 38 2 2 13 1 33 6 5 2 4 4 14 34 0 13 13 7 1 0 39 0 7 7 15 34 15 14 12 11 9 8 3 7 2 2 0 1 2 39 10 1 16 3 0 0 13 0 35 6
PUSHB[ ]	/* 1 value pushed */
59
CALL[ ]	/* CallFunction */";
};
width = 749;
}
);
metricRight = n;
note = h;
unicode = 104;
},
{
glyphname = i;
kernLeft = i;
kernRight = i;
lastChange = "2025-07-10 16:31:07 +0000";
layers = (
{
layerId = m01;
shapes = (
{
closed = 1;
nodes = (
(267,663,o),
(267,708,o),
(249,729,qs),
(240,740,o),
(212,753,o),
(161,753,o),
(140,731,qs),
(130,721,o),
(119,693,o),
(119,646,o),
(136,626,qs),
(145,615,o),
(173,602,o),
(209,602,o),
(237,615,o),
(257,636,o)
);
},
{
closed = 1;
nodes = (
(359,22,qs),
(359,30,o),
(349,43,o),
(341,43,q),
(317,40,l),
(302,40,o),
(282,50,o),
(262,92,o),
(262,174,qs),
(262,438,ls),
(262,478,o),
(250,493,qs),
(243,500,o),
(223,500,q),
(149,495,l),
(78,500,l),
(60,500,o),
(52,491,qs),
(49,487,o),
(46,479,o),
(46,465,o),
(65,456,o),
(91,448,o),
(118,438,o),
(130,421,o),
(134,413,qs),
(146,387,o),
(146,318,qs),
(146,174,ls),
(146,138,o),
(143,112,qs),
(135,40,o),
(95,40,q),
(71,43,l),
(62,43,o),
(52,30,o),
(52,11,o),
(61,3,qs),
(67,-1,o),
(86,-7,o),
(112,-7,o),
(172,0,o),
(203,0,q),
(308,-7,l),
(359,-7,o)
);
}
);
userData = {
assembly = "NPUSHB[ ]	/* 26 values pushed */
18 16 57 56 55 54 47 46 44 43 28 27 26 25 20 19 16 60 18 60 10 9 2 1 11 8
CALL[ ]	/* CallFunction */
MPPEM[ ]	/* MeasurePixelPerEm */
PUSHB[ ]	/* 1 value pushed */
11
LT[ ]	/* LessThan */
IF[ ]	/* If */
NPUSHB[ ]	/* 41 values pushed */
45 1 4 6 1 33 0 1 0 0 6 1 0 1 0 41 7 1 6 6 15 34 9 8 5 3 4 4 2 1 2 39 3 10 2 2 2 13 2 35 5
ELSE[ ]	/* Else */
MPPEM[ ]	/* MeasurePixelPerEm */
PUSHB[ ]	/* 1 value pushed */
21
LT[ ]	/* LessThan */
IF[ ]	/* If */
NPUSHB[ ]	/* 43 values pushed */
45 1 4 6 1 33 0 0 0 1 1 0 39 0 1 1 12 34 7 1 6 6 15 34 9 8 5 3 4 4 2 1 2 39 3 10 2 2 2 13 2 35 6
ELSE[ ]	/* Else */
NPUSHB[ ]	/* 41 values pushed */
45 1 4 6 1 33 0 1 0 0 6 1 0 1 0 41 7 1 6 6 15 34 9 8 5 3 4 4 2 1 2 39 3 10 2 2 2 13 2 35 5
EIF[ ]	/* EndIf */
EIF[ ]	/* EndIf */
PUSHB[ ]	/* 1 value pushed */
59
CALL[ ]	/* CallFunction */";
};
width = 389;
}
);
metricLeft = n;
note = i;
unicode = 105;
},
{
glyphname = j;
kernLeft = j;
kernRight = j;
lastChange = "2025-07-10 16:31:34 +0000";
layers = (
{
layerId = m01;
shapes = (
{
closed = 1;
nodes = (
(290,663,o),
(290,708,o),
(271,729,qs),
(263,740,o),
(235,753,o),
(183,753,o),
(162,731,qs),
(152,721,o),
(141,693,o),
(141,646,o),
(158,626,qs),
(167,615,o),
(195,602,o),
(232,602,o),
(260,615,o),
(279,636,o)
);
},
{
closed = 1;
nodes = (
(16,-252,o),
(59,-252,qs),
(162,-252,o),
(219,-183,qs),
(283,-105,o),
(283,51,qs),
(283,438,ls),
(283,479,o),
(275,493,qs),
(271,500,o),
(252,500,q),
(170,495,l),
(151,495,o),
(127,498,qs),
(119,499,o),
(105,500,o),
(81,500,o),
(72,491,qs),
(69,487,o),
(66,479,o),
(66,465,o),
(85,456,o),
(136,441,o),
(145,429,qs),
(166,397,o),
(166,311,qs),
(166,51,ls),
(166,-93,o),
(142,-147,qs),
(131,-173,o),
(100,-189,o),
(58,-189,o),
(34,-170,qs),
(18,-158,o),
(-1,-117,qs),
(-13,-95,o),
(-27,-95,qs),
(-40,-95,o),
(-40,-110,qs),
(-40,-238,l)
);
}
);
userData = {
assembly = "NPUSHB[ ]	/* 16 values pushed */
54 52 45 42 39 38 24 23 19 17 10 9 2 1 7 8
CALL[ ]	/* CallFunction */
MPPEM[ ]	/* MeasurePixelPerEm */
PUSHB[ ]	/* 1 value pushed */
11
LT[ ]	/* LessThan */
IF[ ]	/* If */
NPUSHB[ ]	/* 44 values pushed */
55 1 6 3 1 33 0 2 4 3 4 2 3 53 0 1 0 0 4 1 0 1 0 41 5 1 4 4 15 34 0 3 3 6 1 2 39 0 6 6 17 6 35 6
ELSE[ ]	/* Else */
MPPEM[ ]	/* MeasurePixelPerEm */
PUSHB[ ]	/* 1 value pushed */
21
LT[ ]	/* LessThan */
IF[ ]	/* If */
NPUSHB[ ]	/* 46 values pushed */
55 1 6 3 1 33 0 2 4 3 4 2 3 53 0 0 0 1 1 0 39 0 1 1 12 34 5 1 4 4 15 34 0 3 3 6 1 2 39 0 6 6 17 6 35 7
ELSE[ ]	/* Else */
NPUSHB[ ]	/* 44 values pushed */
55 1 6 3 1 33 0 2 4 3 4 2 3 53 0 1 0 0 4 1 0 1 0 41 5 1 4 4 15 34 0 3 3 6 1 2 39 0 6 6 17 6 35 6
EIF[ ]	/* EndIf */
EIF[ ]	/* EndIf */
PUSHB[ ]	/* 1 value pushed */
59
CALL[ ]	/* CallFunction */";
};
width = 373;
}
);
note = j;
unicode = 106;
},
{
glyphname = k;
kernLeft = h;
kernRight = k;
lastChange = "2025-07-10 16:30:32 +0000";
layers = (
{
layerId = m01;
shapes = (
{
closed = 1;
nodes = (
(240,-1,qs),
(286,-6,ls),
(332,-11,o),
(349,3,qs),
(354,8,o),
(359,18,o),
(359,30,o),
(349,43,o),
(341,43,q),
(315,40,l),
(292,40,o),
(268,94,o),
(268,157,qs),
(268,244,l),
(369,140,l),
(439,70,ls),
(468,42,o),
(503,12,o),
(529,-4,o),
(547,-4,q),
(606,0,ls),
(612,0,o),
(630,-1,o),
(650,-3,o),
(670,-4,o),
(701,-4,o),
(712,7,qs),
(716,11,o),
(720,22,o),
(720,29,o),
(719,34,qs),
(713,51,o),
(702,51,q),
(680,48,l),
(634,48,o),
(574,104,qs),
(387,280,l),
(488,331,o),
(588,418,qs),
(629,455,o),
(650,455,q),
(677,451,l),
(686,451,o),
(696,465,o),
(696,471,qs),
(696,502,o),
(652,502,qs),
(629,502,o),
(591,495,o),
(542,495,o),
(487,502,o),
(433,502,o),
(421,491,qs),
(417,486,o),
(413,476,o),
(413,465,o),
(423,451,o),
(431,451,q),
(460,455,l),
(497,455,o),
(497,413,o),
(426,367,qs),
(355,322,o),
(268,292,q),
(268,781,ls),
(268,824,o),
(262,836,qs),
(257,845,o),
(237,845,q),
(162,838,l),
(146,838,o),
(115,841,qs),
(104,842,o),
(84,844,o),
(58,844,o),
(42,828,o),
(42,821,qs),
(42,800,o),
(78,797,qs),
(97,795,o),
(129,782,o),
(152,742,o),
(152,658,qs),
(152,167,ls),
(152,132,o),
(149,107,qs),
(141,40,o),
(103,40,q),
(77,43,l),
(68,43,o),
(58,30,o),
(58,18,o),
(60,13,qs),
(68,-7,o),
(110,-7,q),
(214,0,l),
(229,0,o)
);
}
);
userData = {
assembly = "NPUSHB[ ]	/* 46 values pushed */
2 0 88 87 86 85 77 76 75 74 71 70 64 63 62 61 56 55 54 53 50 48 47 46 45 44 39 38 37 36 28 27 26 25 22 21 9 8 7 6 0 96 2 96 21 8
CALL[ ]	/* CallFunction */
NPUSHB[ ]	/* 55 values pushed */
82 59 32 3 1 6 1 33 5 4 2 3 3 14 34 12 11 7 3 6 6 8 1 0 39 10 9 2 8 8 15 34 19 18 14 13 2 5 1 1 0 1 2 39 17 16 15 20 4 0 0 13 0 35 6
PUSHB[ ]	/* 1 value pushed */
59
CALL[ ]	/* CallFunction */";
};
width = 696;
}
);
metricLeft = h;
note = k;
unicode = 107;
},
{
glyphname = l;
kernLeft = l;
lastChange = "2025-07-10 16:30:35 +0000";
layers = (
{
layerId = m01;
shapes = (
{
closed = 1;
nodes = (
(286,49,o),
(268,89,o),
(268,167,qs),
(268,781,ls),
(268,822,o),
(260,836,qs),
(256,845,o),
(237,845,q),
(162,838,l),
(145,838,o),
(113,841,qs),
(93,843,ls),
(84,844,o),
(57,844,o),
(42,828,o),
(42,821,qs),
(42,800,o),
(78,797,qs),
(96,795,o),
(129,782,o),
(152,742,o),
(152,658,qs),
(152,167,ls),
(152,91,o),
(143,66,qs),
(133,40,o),
(104,40,q),
(78,43,l),
(70,43,o),
(60,30,o),
(60,11,o),
(69,3,qs),
(75,-1,o),
(95,-7,o),
(127,-7,o),
(183,0,o),
(229,0,o),
(241,-1,qs),
(286,-6,ls),
(332,-11,o),
(349,3,qs),
(355,8,o),
(359,18,o),
(359,30,o),
(349,43,o),
(341,43,q),
(316,40,l),
(303,40,o)
);
}
);
userData = {
assembly = "NPUSHB[ ]	/* 24 values pushed */
0 0 0 47 0 47 40 39 38 37 34 33 21 20 19 18 13 12 11 10 2 1 10 8
CALL[ ]	/* CallFunction */
NPUSHB[ ]	/* 26 values pushed */
7 6 2 5 5 14 34 9 8 4 3 4 0 0 1 1 0 39 2 1 1 1 13 1 35 3
PUSHB[ ]	/* 1 value pushed */
59
CALL[ ]	/* CallFunction */";
};
width = 390;
}
);
metricLeft = h;
note = l;
unicode = 108;
},
{
glyphname = m;
kernLeft = n;
lastChange = "2025-07-10 16:29:13 +0000";
layers = (
{
layerId = m01;
shapes = (
{
closed = 1;
nodes = (
(131,-5,o),
(155,-2,o),
(184,0,o),
(231,0,o),
(283,-7,o),
(308,-7,qs),
(359,-7,o),
(359,22,qs),
(359,30,o),
(350,43,o),
(341,43,q),
(317,40,l),
(303,40,o),
(282,50,o),
(262,92,o),
(262,174,qs),
(262,364,l),
(341,435,o),
(413,435,qs),
(459,435,o),
(512,376,o),
(512,325,qs),
(512,174,ls),
(512,97,o),
(502,69,qs),
(493,40,o),
(463,40,q),
(438,43,l),
(429,43,o),
(419,30,o),
(419,18,o),
(421,13,qs),
(429,-7,o),
(471,-7,q),
(574,0,l),
(588,0,o),
(601,-1,qs),
(646,-6,ls),
(691,-11,o),
(708,3,qs),
(714,8,o),
(718,18,o),
(718,30,o),
(709,43,o),
(701,43,q),
(675,40,l),
(663,40,o),
(646,51,o),
(627,96,o),
(627,174,qs),
(627,324,ls),
(627,340,o),
(624,362,q),
(703,435,o),
(782,435,qs),
(825,435,o),
(876,376,o),
(876,325,qs),
(876,174,ls),
(876,98,o),
(867,70,qs),
(857,40,o),
(828,40,q),
(803,43,l),
(794,43,o),
(784,30,o),
(784,22,qs),
(784,-7,o),
(836,-7,q),
(939,0,l),
(954,0,o),
(965,-1,qs),
(1011,-6,ls),
(1057,-11,o),
(1073,3,qs),
(1079,8,o),
(1083,18,o),
(1083,30,o),
(1073,43,o),
(1065,43,q),
(1040,40,l),
(1028,40,o),
(1010,51,o),
(993,97,o),
(993,174,qs),
(993,344,ls),
(993,420,o),
(943,467,qs),
(919,490,o),
(852,514,o),
(780,514,o),
(752,507,qs),
(669,487,o),
(607,428,q),
(586,468,o),
(502,514,o),
(444,514,qs),
(349,514,o),
(262,443,q),
(261,479,o),
(249,493,qs),
(243,500,o),
(223,500,q),
(149,495,l),
(78,500,l),
(46,500,o),
(46,479,qs),
(46,470,o),
(65,462,o),
(91,457,o),
(118,449,o),
(125,439,qs),
(146,411,o),
(146,318,qs),
(146,174,ls),
(146,137,o),
(144,111,qs),
(135,40,o),
(95,40,q),
(71,43,l),
(63,43,o),
(52,30,o),
(52,22,qs),
(52,-7,o),
(102,-7,qs),
(112,-7,o)
);
}
);
userData = {
assembly = "NPUSHB[ ]	/* 52 values pushed */
1 0 122 121 120 118 115 114 113 112 107 105 99 98 97 96 92 89 81 80 79 78 71 69 63 62 61 60 57 54 46 45 44 43 35 34 29 27 23 22 20 19 7 6 5 4 0 125 1 125 24 8
CALL[ ]	/* CallFunction */
MPPEM[ ]	/* MeasurePixelPerEm */
PUSHB[ ]	/* 1 value pushed */
19
LT[ ]	/* LessThan */
IF[ ]	/* If */
NPUSHB[ ]	/* 58 values pushed */
26 21 2 12 3 108 31 2 1 12 2 33 18 1 12 12 3 1 0 39 6 5 4 3 3 3 15 34 20 19 17 16 14 13 11 10 8 7 2 11 1 1 0 1 2 39 22 21 15 9 23 5 0 0 13 0 35 5
ELSE[ ]	/* Else */
NPUSHB[ ]	/* 62 values pushed */
26 21 2 12 3 108 31 2 1 12 2 33 4 1 3 3 15 34 18 1 12 12 5 1 0 39 6 1 5 5 15 34 20 19 17 16 14 13 11 10 8 7 2 11 1 1 0 1 2 39 22 21 15 9 23 5 0 0 13 0 35 6
EIF[ ]	/* EndIf */
PUSHB[ ]	/* 1 value pushed */
59
CALL[ ]	/* CallFunction */";
};
width = 1112;
}
);
metricLeft = n;
metricRight = n;
note = m;
unicode = 109;
},
{
glyphname = n;
kernLeft = n;
lastChange = "2025-07-10 15:53:10 +0000";
layers = (
{
layerId = m01;
shapes = (
{
closed = 1;
nodes = (
(360,22,qs),
(360,30,o),
(350,43,o),
(341,43,q),
(317,40,l),
(303,40,o),
(282,47,o),
(262,86,o),
(262,167,qs),
(262,347,l),
(290,383,o),
(327,406,qs),
(345,417,o),
(386,431,o),
(438,431,o),
(458,418,qs),
(508,386,o),
(508,296,qs),
(508,167,ls),
(508,92,o),
(489,40,o),
(460,40,q),
(434,43,l),
(425,43,o),
(415,30,o),
(415,18,o),
(417,13,qs),
(425,-7,o),
(467,-7,q),
(570,0,l),
(586,0,o),
(643,-6,qs),
(688,-11,o),
(705,3,qs),
(710,8,o),
(714,18,o),
(714,30,o),
(705,43,o),
(697,43,q),
(671,40,l),
(659,40,o),
(642,49,o),
(624,89,o),
(624,167,qs),
(624,334,ls),
(624,382,o),
(611,417,qs),
(575,514,o),
(452,514,qs),
(343,514,o),
(262,427,q),
(262,440,ls),
(262,479,o),
(250,493,qs),
(244,500,o),
(223,500,q),
(149,495,l),
(78,500,l),
(61,500,o),
(52,491,qs),
(49,487,o),
(46,479,o),
(46,465,o),
(65,456,o),
(116,441,o),
(125,429,qs),
(146,399,o),
(146,318,qs),
(146,167,ls),
(146,95,o),
(134,67,qs),
(123,40,o),
(95,40,q),
(71,43,l),
(63,43,o),
(52,30,o),
(52,11,o),
(62,3,qs),
(67,-1,o),
(86,-7,o),
(112,-7,o),
(172,0,o),
(203,0,q),
(309,-7,l),
(360,-7,o)
);
}
);
userData = {
assembly = "NPUSHB[ ]	/* 36 values pushed */
2 0 81 80 79 78 70 69 63 62 61 60 56 53 46 45 44 43 36 34 29 28 26 25 12 11 10 9 4 3 0 84 2 84 16 8
CALL[ ]	/* CallFunction */
MPPEM[ ]	/* MeasurePixelPerEm */
PUSHB[ ]	/* 1 value pushed */
19
LT[ ]	/* LessThan */
IF[ ]	/* If */
NPUSHB[ ]	/* 49 values pushed */
27 1 12 4 74 33 2 2 12 2 33 0 12 12 4 1 0 39 6 5 2 4 4 15 34 14 13 11 10 8 7 3 7 2 2 0 1 2 39 9 1 15 3 0 0 13 0 35 5
ELSE[ ]	/* Else */
NPUSHB[ ]	/* 53 values pushed */
27 1 12 4 74 33 2 2 12 2 33 5 1 4 4 15 34 0 12 12 6 1 0 39 0 6 6 15 34 14 13 11 10 8 7 3 7 2 2 0 1 2 39 9 1 15 3 0 0 13 0 35 6
EIF[ ]	/* EndIf */
PUSHB[ ]	/* 1 value pushed */
59
CALL[ ]	/* CallFunction */";
};
width = 743;
}
);
note = n;
unicode = 110;
},
{
glyphname = o;
kernLeft = o;
lastChange = "2025-07-10 16:36:38 +0000";
layers = (
{
layerId = m01;
shapes = (
{
closed = 1;
nodes = (
(71,130,qs),
(139,-12,o),
(327,-12,qs),
(456,-12,o),
(531,67,qs),
(602,141,o),
(602,260,qs),
(602,360,o),
(535,433,qs),
(460,514,o),
(325,514,qs),
(207,514,o),
(126,437,qs),
(88,400,o),
(45,305,o),
(45,263,qs),
(45,185,o)
);
},
{
closed = 1;
nodes = (
(297,440,qs),
(370,440,o),
(421,383,qs),
(447,354,o),
(479,266,o),
(479,167,o),
(469,141,qs),
(439,62,o),
(349,62,qs),
(276,62,o),
(223,123,qs),
(197,152,o),
(166,237,o),
(166,329,o),
(177,356,qs),
(207,440,o)
);
}
);
userData = {
assembly = "NPUSHB[ ]	/* 10 values pushed */
32 30 24 22 14 12 6 4 4 8
CALL[ ]	/* CallFunction */
MPPEM[ ]	/* MeasurePixelPerEm */
PUSHB[ ]	/* 1 value pushed */
9
LT[ ]	/* LessThan */
IF[ ]	/* If */
NPUSHB[ ]	/* 26 values pushed */
0 3 3 0 1 0 39 0 0 0 15 34 0 2 2 1 1 0 39 0 1 1 13 1 35 4
ELSE[ ]	/* Else */
MPPEM[ ]	/* MeasurePixelPerEm */
PUSHB[ ]	/* 1 value pushed */
13
LT[ ]	/* LessThan */
IF[ ]	/* If */
NPUSHB[ ]	/* 26 values pushed */
0 3 3 0 1 0 39 0 0 0 15 34 0 2 2 1 1 0 39 0 1 1 16 1 35 4
ELSE[ ]	/* Else */
MPPEM[ ]	/* MeasurePixelPerEm */
PUSHB[ ]	/* 1 value pushed */
17
LT[ ]	/* LessThan */
IF[ ]	/* If */
NPUSHB[ ]	/* 26 values pushed */
0 3 3 0 1 0 39 0 0 0 15 34 0 2 2 1 1 0 39 0 1 1 13 1 35 4
ELSE[ ]	/* Else */
MPPEM[ ]	/* MeasurePixelPerEm */
PUSHB[ ]	/* 1 value pushed */
21
LT[ ]	/* LessThan */
IF[ ]	/* If */
NPUSHB[ ]	/* 26 values pushed */
0 3 3 0 1 0 39 0 0 0 15 34 0 2 2 1 1 0 39 0 1 1 16 1 35 4
ELSE[ ]	/* Else */
NPUSHB[ ]	/* 26 values pushed */
0 3 3 0 1 0 39 0 0 0 15 34 0 2 2 1 1 0 39 0 1 1 13 1 35 4
EIF[ ]	/* EndIf */
EIF[ ]	/* EndIf */
EIF[ ]	/* EndIf */
EIF[ ]	/* EndIf */
PUSHB[ ]	/* 1 value pushed */
59
CALL[ ]	/* CallFunction */";
};
width = 647;
}
);
note = o;
unicode = 111;
},
{
glyphname = p;
lastChange = "2025-07-10 16:37:01 +0000";
layers = (
{
layerId = m01;
shapes = (
{
closed = 1;
nodes = (
(21,-214,o),
(21,-226,o),
(23,-231,qs),
(31,-252,o),
(71,-252,qs),
(172,-249,l),
(278,-252,ls),
(306,-252,o),
(319,-242,qs),
(325,-237,o),
(329,-227,o),
(329,-214,o),
(319,-201,o),
(310,-201,q),
(287,-205,l),
(272,-205,o),
(251,-198,o),
(232,-162,o),
(232,-83,qs),
(232,22,l),
(287,-12,o),
(372,-12,qs),
(488,-12,o),
(566,65,qs),
(643,142,o),
(643,251,qs),
(643,374,o),
(570,444,qs),
(534,478,o),
(432,514,o),
(291,514,o),
(229,473,q),
(225,492,o),
(215,498,qs),
(211,500,o),
(199,502,o),
(171,502,o),
(137,495,o),
(93,495,o),
(61,500,o),
(37,500,o),
(31,498,qs),
(15,491,o),
(15,475,qs),
(15,464,o),
(31,458,qs),
(39,455,o),
(71,446,o),
(82,439,qs),
(116,422,o),
(116,316,qs),
(116,-83,ls),
(116,-152,o),
(104,-180,qs),
(93,-205,o),
(64,-205,q),
(40,-201,l),
(32,-201,o)
);
},
{
closed = 1;
nodes = (
(243,404,o),
(257,413,qs),
(302,440,o),
(351,440,qs),
(431,440,o),
(477,388,qs),
(525,333,o),
(525,227,qs),
(525,151,o),
(483,107,qs),
(463,85,o),
(403,62,o),
(346,62,o),
(326,66,qs),
(260,82,o),
(232,141,q),
(232,394,l)
);
}
);
userData = {
assembly = "NPUSHB[ ]	/* 30 values pushed */
0 0 71 69 62 61 0 57 0 57 53 49 44 43 42 41 36 34 27 26 21 20 19 18 17 16 2 1 13 8
CALL[ ]	/* CallFunction */
MPPEM[ ]	/* MeasurePixelPerEm */
PUSHB[ ]	/* 1 value pushed */
9
LT[ ]	/* LessThan */
IF[ ]	/* If */
NPUSHB[ ]	/* 60 values pushed */
25 1 11 1 74 58 2 10 11 37 1 5 10 3 33 0 11 11 1 1 0 39 4 3 2 3 1 1 15 34 0 10 10 5 1 0 39 0 5 5 13 34 12 9 7 6 4 0 0 8 1 2 39 0 8 8 17 8 35 7
ELSE[ ]	/* Else */
MPPEM[ ]	/* MeasurePixelPerEm */
PUSHB[ ]	/* 1 value pushed */
13
LT[ ]	/* LessThan */
IF[ ]	/* If */
NPUSHB[ ]	/* 60 values pushed */
25 1 11 1 74 58 2 10 11 37 1 5 10 3 33 0 11 11 1 1 0 39 4 3 2 3 1 1 15 34 0 10 10 5 1 0 39 0 5 5 16 34 12 9 7 6 4 0 0 8 1 2 39 0 8 8 17 8 35 7
ELSE[ ]	/* Else */
MPPEM[ ]	/* MeasurePixelPerEm */
PUSHB[ ]	/* 1 value pushed */
17
LT[ ]	/* LessThan */
IF[ ]	/* If */
NPUSHB[ ]	/* 60 values pushed */
25 1 11 1 74 58 2 10 11 37 1 5 10 3 33 0 11 11 1 1 0 39 4 3 2 3 1 1 15 34 0 10 10 5 1 0 39 0 5 5 13 34 12 9 7 6 4 0 0 8 1 2 39 0 8 8 17 8 35 7
ELSE[ ]	/* Else */
MPPEM[ ]	/* MeasurePixelPerEm */
PUSHB[ ]	/* 1 value pushed */
19
LT[ ]	/* LessThan */
IF[ ]	/* If */
NPUSHB[ ]	/* 60 values pushed */
25 1 11 1 74 58 2 10 11 37 1 5 10 3 33 0 11 11 1 1 0 39 4 3 2 3 1 1 15 34 0 10 10 5 1 0 39 0 5 5 16 34 12 9 7 6 4 0 0 8 1 2 39 0 8 8 17 8 35 7
ELSE[ ]	/* Else */
MPPEM[ ]	/* MeasurePixelPerEm */
PUSHB[ ]	/* 1 value pushed */
21
LT[ ]	/* LessThan */
IF[ ]	/* If */
NPUSHB[ ]	/* 64 values pushed */
25 1 11 1 74 58 2 10 11 37 1 5 10 3 33 3 2 2 1 1 15 34 0 11 11 4 1 0 39 0 4 4 15 34 0 10 10 5 1 0 39 0 5 5 16 34 12 9 7 6 4 0 0 8 1 2 39 0 8 8 17 8 35 8
ELSE[ ]	/* Else */
NPUSHB[ ]	/* 64 values pushed */
25 1 11 1 74 58 2 10 11 37 1 5 10 3 33 3 2 2 1 1 15 34 0 11 11 4 1 0 39 0 4 4 15 34 0 10 10 5 1 0 39 0 5 5 13 34 12 9 7 6 4 0 0 8 1 2 39 0 8 8 17 8 35 8
EIF[ ]	/* EndIf */
EIF[ ]	/* EndIf */
EIF[ ]	/* EndIf */
EIF[ ]	/* EndIf */
EIF[ ]	/* EndIf */
PUSHB[ ]	/* 1 value pushed */
59
CALL[ ]	/* CallFunction */";
};
width = 688;
}
);
metricRight = o;
note = p;
unicode = 112;
},
{
glyphname = q;
kernLeft = o;
lastChange = "2025-07-10 16:37:01 +0000";
layers = (
{
layerId = m01;
shapes = (
{
closed = 1;
nodes = (
(466,-159,o),
(454,-185,qs),
(443,-209,o),
(415,-209,q),
(391,-206,l),
(382,-206,o),
(372,-219,o),
(372,-231,o),
(374,-236,qs),
(381,-257,o),
(421,-257,qs),
(523,-254,l),
(628,-257,ls),
(656,-257,o),
(669,-247,qs),
(675,-242,o),
(679,-231,o),
(679,-219,o),
(669,-206,o),
(661,-206,q),
(637,-209,o),
(637,-209,q),
(622,-209,o),
(601,-203,o),
(582,-167,o),
(582,-87,qs),
(582,353,ls),
(582,421,o),
(593,455,qs),
(597,469,o),
(609,481,o),
(617,487,o),
(624,492,o),
(624,499,qs),
(624,514,o),
(607,514,qs),
(577,514,o),
(484,465,q),
(418,514,o),
(201,514,o),
(122,438,qs),
(45,362,o),
(45,252,qs),
(45,132,o),
(119,62,qs),
(154,27,o),
(256,-11,o),
(402,-11,o),
(466,36,q),
(466,-87,ls)
);
},
{
closed = 1;
nodes = (
(285,440,o),
(342,440,o),
(363,436,qs),
(436,417,o),
(466,358,q),
(466,118,l),
(419,62,o),
(348,62,qs),
(268,62,o),
(217,119,qs),
(192,146,o),
(163,226,o),
(163,314,o),
(184,375,o),
(225,417,o)
);
}
);
userData = {
assembly = "NPUSHB[ ]	/* 22 values pushed */
63 62 57 55 46 45 44 43 39 35 30 29 27 26 14 12 10 9 2 1 10 8
CALL[ ]	/* CallFunction */
MPPEM[ ]	/* MeasurePixelPerEm */
PUSHB[ ]	/* 1 value pushed */
13
LT[ ]	/* LessThan */
IF[ ]	/* If */
NPUSHB[ ]	/* 57 values pushed */
11 1 9 1 59 58 2 8 9 0 1 0 8 3 33 0 9 9 1 1 0 39 2 1 1 1 15 34 0 8 8 0 1 0 39 0 0 0 13 34 7 6 4 3 3 3 5 1 2 39 0 5 5 17 5 35 7
ELSE[ ]	/* Else */
MPPEM[ ]	/* MeasurePixelPerEm */
PUSHB[ ]	/* 1 value pushed */
17
LT[ ]	/* LessThan */
IF[ ]	/* If */
NPUSHB[ ]	/* 57 values pushed */
11 1 9 1 59 58 2 8 9 0 1 0 8 3 33 0 9 9 1 1 0 39 2 1 1 1 15 34 0 8 8 0 1 0 39 0 0 0 16 34 7 6 4 3 3 3 5 1 2 39 0 5 5 17 5 35 7
ELSE[ ]	/* Else */
MPPEM[ ]	/* MeasurePixelPerEm */
PUSHB[ ]	/* 1 value pushed */
21
LT[ ]	/* LessThan */
IF[ ]	/* If */
NPUSHB[ ]	/* 57 values pushed */
11 1 9 1 59 58 2 8 9 0 1 0 8 3 33 0 9 9 1 1 0 39 2 1 1 1 15 34 0 8 8 0 1 0 39 0 0 0 13 34 7 6 4 3 3 3 5 1 2 39 0 5 5 17 5 35 7
ELSE[ ]	/* Else */
NPUSHB[ ]	/* 57 values pushed */
11 1 9 1 59 58 2 8 9 0 1 0 8 3 33 0 9 9 1 1 0 39 2 1 1 1 15 34 0 8 8 0 1 0 39 0 0 0 16 34 7 6 4 3 3 3 5 1 2 39 0 5 5 17 5 35 7
EIF[ ]	/* EndIf */
EIF[ ]	/* EndIf */
EIF[ ]	/* EndIf */
PUSHB[ ]	/* 1 value pushed */
59
CALL[ ]	/* CallFunction */";
};
width = 679;
}
);
metricLeft = o;
note = q;
unicode = 113;
},
{
glyphname = r;
kernLeft = n;
kernRight = r;
lastChange = "2025-07-10 16:33:26 +0000";
layers = (
{
layerId = m01;
shapes = (
{
closed = 1;
nodes = (
(131,-5,o),
(155,-2,o),
(210,2,o),
(267,-4,qs),
(278,-5,o),
(289,-6,qs),
(335,-11,o),
(357,2,qs),
(364,7,o),
(373,18,o),
(373,30,o),
(363,44,o),
(354,44,q),
(321,40,l),
(287,40,o),
(275,61,qs),
(262,86,o),
(262,167,qs),
(262,324,l),
(279,360,o),
(311,389,qs),
(328,403,o),
(367,421,o),
(424,421,o),
(449,405,qs),
(463,396,o),
(484,364,o),
(496,319,o),
(509,319,qs),
(514,319,o),
(522,329,o),
(522,335,qs),
(523,456,ls),
(523,514,o),
(433,514,qs),
(406,514,o),
(382,507,qs),
(308,486,o),
(262,416,q),
(262,450,ls),
(262,500,o),
(223,500,q),
(149,495,l),
(78,500,l),
(61,500,o),
(52,491,qs),
(49,487,o),
(46,479,o),
(46,465,o),
(65,456,o),
(91,448,o),
(123,437,o),
(135,413,qs),
(146,387,o),
(146,316,qs),
(146,167,ls),
(146,95,o),
(134,66,qs),
(123,40,o),
(95,40,q),
(71,43,l),
(63,43,o),
(52,30,o),
(52,22,qs),
(52,-7,o),
(102,-7,qs),
(112,-7,o)
);
}
);
userData = {
assembly = "NPUSHB[ ]	/* 26 values pushed */
1 0 54 53 52 51 43 42 38 36 32 30 25 24 22 21 7 6 5 4 0 66 1 66 11 8
CALL[ ]	/* CallFunction */
MPPEM[ ]	/* MeasurePixelPerEm */
PUSHB[ ]	/* 1 value pushed */
13
LT[ ]	/* LessThan */
IF[ ]	/* If */
NPUSHB[ ]	/* 50 values pushed */
23 1 7 3 47 27 2 6 7 2 33 0 6 7 1 7 6 45 0 7 7 3 1 0 39 5 4 2 3 3 15 34 9 8 2 3 1 1 0 1 2 39 10 1 0 0 13 0 35 6
ELSE[ ]	/* Else */
MPPEM[ ]	/* MeasurePixelPerEm */
PUSHB[ ]	/* 1 value pushed */
19
LT[ ]	/* LessThan */
IF[ ]	/* If */
NPUSHB[ ]	/* 51 values pushed */
23 1 7 3 47 27 2 6 7 2 33 0 6 7 1 7 6 1 53 0 7 7 3 1 0 39 5 4 2 3 3 15 34 9 8 2 3 1 1 0 1 2 39 10 1 0 0 13 0 35 6
ELSE[ ]	/* Else */
NPUSHB[ ]	/* 55 values pushed */
23 1 7 3 47 27 2 6 7 2 33 0 6 7 1 7 6 1 53 4 1 3 3 15 34 0 7 7 5 1 0 39 0 5 5 15 34 9 8 2 3 1 1 0 1 2 39 10 1 0 0 13 0 35 7
EIF[ ]	/* EndIf */
EIF[ ]	/* EndIf */
PUSHB[ ]	/* 1 value pushed */
59
CALL[ ]	/* CallFunction */";
};
width = 561;
}
);
metricLeft = n;
note = r;
unicode = 114;
},
{
glyphname = s;
kernLeft = s;
kernRight = s;
lastChange = "2025-07-10 16:33:58 +0000";
layers = (
{
layerId = m01;
shapes = (
{
closed = 1;
nodes = (
(453,501,qs),
(444,492,ls),
(440,488,o),
(427,488,o),
(417,492,qs),
(361,514,o),
(288,514,qs),
(185,514,o),
(123,466,qs),
(69,424,o),
(69,371,qs),
(69,313,o),
(113,273,qs),
(136,252,o),
(216,215,o),
(356,180,o),
(391,158,qs),
(409,147,o),
(424,125,o),
(424,92,o),
(408,66,o),
(369,46,o),
(314,46,qs),
(234,46,o),
(170,80,qs),
(140,96,o),
(99,138,o),
(83,182,o),
(71,182,qs),
(64,182,o),
(56,174,o),
(56,168,qs),
(56,46,l),
(89,24,o),
(184,1,qs),
(239,-12,o),
(298,-12,qs),
(428,-12,o),
(488,41,qs),
(534,83,o),
(534,143,qs),
(534,206,o),
(485,244,qs),
(460,264,o),
(378,295,o),
(236,329,o),
(206,349,qs),
(191,360,o),
(179,385,o),
(179,424,o),
(231,456,o),
(286,456,qs),
(403,456,o),
(464,370,q),
(474,350,o),
(486,350,qs),
(499,350,o),
(499,363,qs),
(499,371,o),
(491,437,o),
(491,493,qs),
(491,514,o),
(475,514,qs),
(467,514,o)
);
}
);
userData = {
assembly = "NPUSHB[ ]	/* 22 values pushed */
1 0 60 59 57 55 41 39 35 33 27 25 12 10 8 6 0 63 1 63 9 8
CALL[ ]	/* CallFunction */
MPPEM[ ]	/* MeasurePixelPerEm */
PUSHB[ ]	/* 1 value pushed */
9
LT[ ]	/* LessThan */
IF[ ]	/* If */
NPUSHB[ ]	/* 64 values pushed */
30 1 5 4 1 33 0 7 0 2 0 7 2 53 0 4 1 5 1 4 5 53 0 2 2 0 1 0 39 6 8 2 0 0 15 34 0 1 1 0 1 0 39 6 8 2 0 0 15 34 0 5 5 3 1 0 39 0 3 3 13 3 35 9
ELSE[ ]	/* Else */
MPPEM[ ]	/* MeasurePixelPerEm */
PUSHB[ ]	/* 1 value pushed */
13
LT[ ]	/* LessThan */
IF[ ]	/* If */
NPUSHB[ ]	/* 64 values pushed */
30 1 5 4 1 33 0 7 0 2 0 7 2 53 0 4 1 5 1 4 5 53 0 2 2 0 1 0 39 6 8 2 0 0 15 34 0 1 1 0 1 0 39 6 8 2 0 0 15 34 0 5 5 3 1 0 39 0 3 3 16 3 35 9
ELSE[ ]	/* Else */
MPPEM[ ]	/* MeasurePixelPerEm */
PUSHB[ ]	/* 1 value pushed */
17
LT[ ]	/* LessThan */
IF[ ]	/* If */
NPUSHB[ ]	/* 64 values pushed */
30 1 5 4 1 33 0 7 0 2 0 7 2 53 0 4 1 5 1 4 5 53 0 2 2 0 1 0 39 6 8 2 0 0 15 34 0 1 1 0 1 0 39 6 8 2 0 0 15 34 0 5 5 3 1 0 39 0 3 3 13 3 35 9
ELSE[ ]	/* Else */
MPPEM[ ]	/* MeasurePixelPerEm */
PUSHB[ ]	/* 1 value pushed */
21
LT[ ]	/* LessThan */
IF[ ]	/* If */
NPUSHB[ ]	/* 64 values pushed */
30 1 5 4 1 33 0 7 0 2 0 7 2 53 0 4 1 5 1 4 5 53 0 2 2 0 1 0 39 6 8 2 0 0 15 34 0 1 1 0 1 0 39 6 8 2 0 0 15 34 0 5 5 3 1 0 39 0 3 3 16 3 35 9
ELSE[ ]	/* Else */
NPUSHB[ ]	/* 64 values pushed */
30 1 5 4 1 33 0 7 0 2 0 7 2 53 0 4 1 5 1 4 5 53 0 2 2 0 1 0 39 6 8 2 0 0 15 34 0 1 1 0 1 0 39 6 8 2 0 0 15 34 0 5 5 3 1 0 39 0 3 3 13 3 35 9
EIF[ ]	/* EndIf */
EIF[ ]	/* EndIf */
EIF[ ]	/* EndIf */
EIF[ ]	/* EndIf */
PUSHB[ ]	/* 1 value pushed */
59
CALL[ ]	/* CallFunction */";
};
width = 570;
}
);
note = s;
unicode = 115;
},
{
glyphname = t;
kernLeft = t;
lastChange = "2025-07-10 15:54:00 +0000";
layers = (
{
layerId = m01;
shapes = (
{
closed = 1;
nodes = (
(292,505,qs),
(242,503,l),
(242,682,ls),
(242,733,o),
(191,733,o),
(183,682,qs),
(170,599,o),
(146,562,qs),
(133,540,o),
(95,513,o),
(50,502,o),
(25,483,o),
(25,471,qs),
(25,439,o),
(77,439,qs),
(125,439,l),
(125,141,ls),
(125,99,o),
(137,69,qs),
(169,-12,o),
(291,-12,qs),
(388,-12,o),
(446,66,qs),
(464,91,o),
(464,111,qs),
(464,118,o),
(455,131,o),
(447,131,qs),
(424,131,o),
(408,109,qs),
(371,60,o),
(323,60,qs),
(303,60,o),
(287,68,qs),
(242,92,o),
(242,166,qs),
(242,439,l),
(396,439,ls),
(455,439,o),
(455,474,qs),
(455,507,o),
(392,507,qs),
(351,507,o)
);
}
);
userData = {
assembly = "NPUSHB[ ]	/* 20 values pushed */
1 0 38 37 28 26 22 20 15 13 11 9 5 3 0 42 1 40 8 8
CALL[ ]	/* CallFunction */
MPPEM[ ]	/* MeasurePixelPerEm */
PUSHB[ ]	/* 1 value pushed */
9
LT[ ]	/* LessThan */
IF[ ]	/* If */
NPUSHB[ ]	/* 41 values pushed */
0 6 0 6 55 0 3 1 2 1 3 2 53 5 1 1 1 0 1 0 39 7 1 0 0 15 34 0 2 2 4 1 2 39 0 4 4 13 4 35 6
ELSE[ ]	/* Else */
MPPEM[ ]	/* MeasurePixelPerEm */
PUSHB[ ]	/* 1 value pushed */
13
LT[ ]	/* LessThan */
IF[ ]	/* If */
NPUSHB[ ]	/* 41 values pushed */
0 6 0 6 55 0 3 1 2 1 3 2 53 5 1 1 1 0 1 0 39 7 1 0 0 15 34 0 2 2 4 1 2 39 0 4 4 16 4 35 6
ELSE[ ]	/* Else */
MPPEM[ ]	/* MeasurePixelPerEm */
PUSHB[ ]	/* 1 value pushed */
17
LT[ ]	/* LessThan */
IF[ ]	/* If */
NPUSHB[ ]	/* 41 values pushed */
0 6 0 6 55 0 3 1 2 1 3 2 53 5 1 1 1 0 1 0 39 7 1 0 0 15 34 0 2 2 4 1 2 39 0 4 4 13 4 35 6
ELSE[ ]	/* Else */
MPPEM[ ]	/* MeasurePixelPerEm */
PUSHB[ ]	/* 1 value pushed */
21
LT[ ]	/* LessThan */
IF[ ]	/* If */
NPUSHB[ ]	/* 41 values pushed */
0 6 0 6 55 0 3 1 2 1 3 2 53 5 1 1 1 0 1 0 39 7 1 0 0 15 34 0 2 2 4 1 2 39 0 4 4 16 4 35 6
ELSE[ ]	/* Else */
NPUSHB[ ]	/* 41 values pushed */
0 6 0 6 55 0 3 1 2 1 3 2 53 5 1 1 1 0 1 0 39 7 1 0 0 15 34 0 2 2 4 1 2 39 0 4 4 13 4 35 6
EIF[ ]	/* EndIf */
EIF[ ]	/* EndIf */
EIF[ ]	/* EndIf */
EIF[ ]	/* EndIf */
PUSHB[ ]	/* 1 value pushed */
59
CALL[ ]	/* CallFunction */";
};
width = 496;
}
);
note = t;
unicode = 116;
},
{
glyphname = u;
kernLeft = u;
lastChange = "2025-07-10 16:35:27 +0000";
layers = (
{
layerId = m01;
shapes = (
{
closed = 1;
nodes = (
(512,-3,q),
(566,0,ls),
(572,0,o),
(590,-1,o),
(612,-3,o),
(633,-4,o),
(667,-4,o),
(680,7,qs),
(686,11,o),
(690,22,o),
(690,33,o),
(680,46,o),
(667,46,o),
(658,43,o),
(626,43,o),
(606,53,o),
(593,88,o),
(593,173,qs),
(593,428,ls),
(593,474,o),
(584,491,qs),
(579,502,o),
(558,502,q),
(504,500,ls),
(499,500,o),
(480,501,o),
(469,502,qs),
(447,503,ls),
(437,504,o),
(403,504,o),
(391,493,qs),
(385,488,o),
(381,477,o),
(381,467,o),
(391,453,o),
(402,453,o),
(413,457,o),
(444,457,o),
(464,447,o),
(477,413,o),
(477,330,qs),
(477,133,l),
(413,67,o),
(348,67,qs),
(325,67,o),
(305,74,qs),
(242,96,o),
(242,181,qs),
(242,418,ls),
(242,442,o),
(240,458,qs),
(236,502,o),
(207,502,q),
(153,500,ls),
(147,500,o),
(128,501,o),
(107,502,o),
(85,504,o),
(53,504,o),
(39,493,qs),
(34,488,o),
(29,477,o),
(29,467,o),
(40,453,o),
(51,453,o),
(62,457,o),
(93,457,o),
(113,447,o),
(126,412,o),
(126,330,qs),
(126,161,ls),
(126,86,o),
(182,37,qs),
(237,-12,o),
(321,-12,qs),
(409,-12,o),
(478,54,q),
(482,-3,o)
);
}
);
userData = {
assembly = "NPUSHB[ ]	/* 32 values pushed */
77 74 73 70 65 64 63 62 55 52 50 49 48 47 42 41 40 39 34 32 25 22 21 18 13 12 11 10 3 1 15 8
CALL[ ]	/* CallFunction */
MPPEM[ ]	/* MeasurePixelPerEm */
PUSHB[ ]	/* 1 value pushed */
9
LT[ ]	/* LessThan */
IF[ ]	/* If */
NPUSHB[ ]	/* 60 values pushed */
35 1 5 1 0 1 11 5 2 33 7 6 2 3 1 1 3 1 0 39 10 9 8 4 4 3 3 15 34 0 5 5 0 1 0 39 14 13 2 0 0 13 34 12 1 11 11 0 1 0 39 14 13 2 0 0 13 0 35 7
ELSE[ ]	/* Else */
MPPEM[ ]	/* MeasurePixelPerEm */
PUSHB[ ]	/* 1 value pushed */
13
LT[ ]	/* LessThan */
IF[ ]	/* If */
NPUSHB[ ]	/* 60 values pushed */
35 1 5 1 0 1 11 5 2 33 7 6 2 3 1 1 3 1 0 39 10 9 8 4 4 3 3 15 34 0 5 5 0 1 0 39 14 13 2 0 0 16 34 12 1 11 11 0 1 0 39 14 13 2 0 0 16 0 35 7
ELSE[ ]	/* Else */
MPPEM[ ]	/* MeasurePixelPerEm */
PUSHB[ ]	/* 1 value pushed */
17
LT[ ]	/* LessThan */
IF[ ]	/* If */
NPUSHB[ ]	/* 60 values pushed */
35 1 5 1 0 1 11 5 2 33 7 6 2 3 1 1 3 1 0 39 10 9 8 4 4 3 3 15 34 0 5 5 0 1 0 39 14 13 2 0 0 13 34 12 1 11 11 0 1 0 39 14 13 2 0 0 13 0 35 7
ELSE[ ]	/* Else */
MPPEM[ ]	/* MeasurePixelPerEm */
PUSHB[ ]	/* 1 value pushed */
21
LT[ ]	/* LessThan */
IF[ ]	/* If */
NPUSHB[ ]	/* 60 values pushed */
35 1 5 1 0 1 11 5 2 33 7 6 2 3 1 1 3 1 0 39 10 9 8 4 4 3 3 15 34 0 5 5 0 1 0 39 14 13 2 0 0 16 34 12 1 11 11 0 1 0 39 14 13 2 0 0 16 0 35 7
ELSE[ ]	/* Else */
NPUSHB[ ]	/* 60 values pushed */
35 1 5 1 0 1 11 5 2 33 7 6 2 3 1 1 3 1 0 39 10 9 8 4 4 3 3 15 34 0 5 5 0 1 0 39 14 13 2 0 0 13 34 12 1 11 11 0 1 0 39 14 13 2 0 0 13 0 35 7
EIF[ ]	/* EndIf */
EIF[ ]	/* EndIf */
EIF[ ]	/* EndIf */
EIF[ ]	/* EndIf */
PUSHB[ ]	/* 1 value pushed */
59
CALL[ ]	/* CallFunction */";
};
width = 700;
}
);
metricLeft = "|n";
note = u;
unicode = 117;
},
{
glyphname = v;
kernLeft = v;
lastChange = "2025-07-10 16:35:54 +0000";
layers = (
{
layerId = m01;
shapes = (
{
closed = 1;
nodes = (
(664,465,o),
(664,482,o),
(642,502,o),
(601,502,o),
(558,495,o),
(512,495,o),
(458,502,o),
(404,502,o),
(381,483,o),
(381,465,o),
(391,452,o),
(399,452,q),
(444,456,l),
(479,456,o),
(479,432,qs),
(479,424,o),
(474,392,o),
(448,337,qs),
(372,177,ls),
(363,158,o),
(358,158,qs),
(350,158,o),
(338,179,qs),
(311,229,o),
(251,325,o),
(223,376,q),
(204,407,o),
(204,432,qs),
(204,456,o),
(243,456,q),
(280,452,l),
(290,452,o),
(299,465,o),
(299,476,o),
(296,481,qs),
(286,502,o),
(251,502,q),
(125,495,l),
(98,495,o),
(48,502,o),
(-1,502,o),
(-25,482,o),
(-25,465,o),
(-15,452,o),
(-7,452,q),
(21,455,l),
(30,455,o),
(53,443,o),
(78,402,qs),
(302,11,ls),
(318,-17,o),
(350,-17,o),
(364,16,q),
(532,358,ls),
(557,410,o),
(584,438,qs),
(599,455,o),
(618,455,q),
(646,452,l),
(653,452,o)
);
}
);
userData = {
assembly = "NPUSHB[ ]	/* 36 values pushed */
0 0 0 59 0 59 56 55 54 53 52 51 48 47 46 45 39 37 30 29 28 27 23 20 19 18 15 14 13 12 8 7 2 1 16 8
CALL[ ]	/* CallFunction */
MPPEM[ ]	/* MeasurePixelPerEm */
PUSHB[ ]	/* 1 value pushed */
11
LT[ ]	/* LessThan */
IF[ ]	/* If */
NPUSHB[ ]	/* 39 values pushed */
0 8 0 1 0 8 1 53 15 14 10 9 7 6 3 2 8 0 0 4 1 0 39 13 12 11 5 4 4 4 15 34 0 1 1 13 1 35 4
ELSE[ ]	/* Else */
NPUSHB[ ]	/* 39 values pushed */
0 8 0 1 0 8 1 53 15 14 10 9 7 6 3 2 8 0 0 4 1 0 39 13 12 11 5 4 4 4 15 34 0 1 1 16 1 35 4
EIF[ ]	/* EndIf */
PUSHB[ ]	/* 1 value pushed */
59
CALL[ ]	/* CallFunction */";
};
width = 647;
}
);
note = v;
unicode = 118;
},
{
glyphname = w;
kernLeft = w;
lastChange = "2025-07-10 16:36:20 +0000";
layers = (
{
layerId = m01;
shapes = (
{
closed = 1;
nodes = (
(1001,465,o),
(1001,483,o),
(976,502,o),
(940,502,o),
(910,497,qs),
(894,495,o),
(881,495,q),
(766,502,l),
(743,502,o),
(729,493,qs),
(724,488,o),
(718,477,o),
(718,465,o),
(729,452,o),
(736,452,q),
(781,456,l),
(816,456,o),
(816,432,qs),
(816,423,o),
(812,389,o),
(785,335,qs),
(707,171,ls),
(697,150,o),
(691,150,qs),
(684,150,o),
(674,171,qs),
(568,390,l),
(556,412,ls),
(550,421,o),
(550,431,qs),
(550,456,o),
(580,456,q),
(618,452,l),
(626,452,o),
(636,465,o),
(636,482,o),
(625,491,qs),
(620,496,o),
(590,506,o),
(521,499,qs),
(508,498,ls),
(486,495,o),
(468,495,qs),
(457,495,o),
(439,497,o),
(430,498,qs),
(416,500,ls),
(406,500,o),
(388,502,o),
(351,502,o),
(327,482,o),
(327,465,o),
(337,452,o),
(345,452,q),
(373,455,o),
(373,455,q),
(380,455,o),
(396,450,o),
(424,420,o),
(455,360,q),
(369,171,ls),
(359,150,o),
(353,150,qs),
(349,150,o),
(345,158,o),
(339,167,qs),
(216,390,ls),
(194,428,o),
(194,441,qs),
(194,449,o),
(201,456,o),
(211,456,q),
(249,452,l),
(268,452,o),
(268,474,qs),
(268,482,o),
(257,491,qs),
(252,496,o),
(233,502,o),
(192,502,o),
(143,495,o),
(100,495,o),
(82,498,qs),
(68,500,ls),
(46,502,o),
(17,502,qs),
(-2,502,o),
(-25,482,o),
(-25,465,o),
(-15,452,o),
(-7,452,q),
(20,455,l),
(28,455,o),
(36,451,qs),
(59,441,o),
(105,357,qs),
(292,11,ls),
(307,-17,o),
(321,-17,qs),
(330,-17,o),
(355,-3,o),
(362,11,qs),
(487,282,l),
(630,11,ls),
(660,-43,o),
(690,11,q),
(841,309,ls),
(888,402,o),
(917,437,qs),
(933,455,o),
(955,455,q),
(982,452,l),
(991,452,o)
);
}
);
userData = {
assembly = "NPUSHB[ ]	/* 50 values pushed */
0 0 0 112 0 112 109 108 106 103 98 97 96 95 89 87 81 80 79 78 70 68 63 62 59 58 56 55 50 48 41 40 39 38 33 32 31 30 27 25 22 21 20 19 14 12 2 1 23 8
CALL[ ]	/* CallFunction */
MPPEM[ ]	/* MeasurePixelPerEm */
PUSHB[ ]	/* 1 value pushed */
11
LT[ ]	/* LessThan */
IF[ ]	/* If */
NPUSHB[ ]	/* 53 values pushed */
52 9 2 9 0 1 33 16 1 9 0 1 0 9 1 53 22 21 18 17 15 14 11 10 8 7 3 2 12 0 0 4 1 0 39 20 19 13 12 6 5 6 4 4 15 34 0 1 1 13 1 35 5
ELSE[ ]	/* Else */
NPUSHB[ ]	/* 53 values pushed */
52 9 2 9 0 1 33 16 1 9 0 1 0 9 1 53 22 21 18 17 15 14 11 10 8 7 3 2 12 0 0 4 1 0 39 20 19 13 12 6 5 6 4 4 15 34 0 1 1 16 1 35 5
EIF[ ]	/* EndIf */
PUSHB[ ]	/* 1 value pushed */
59
CALL[ ]	/* CallFunction */";
};
width = 979;
}
);
note = w;
unicode = 119;
},
{
glyphname = x;
kernLeft = x;
lastChange = "2025-07-10 15:54:06 +0000";
layers = (
{
layerId = m01;
shapes = (
{
closed = 1;
nodes = (
(278,12,o),
(278,25,o),
(276,29,qs),
(271,43,o),
(259,43,q),
(218,39,l),
(199,39,o),
(199,79,o),
(256,136,q),
(309,198,l),
(400,94,ls),
(427,63,o),
(427,51,qs),
(427,38,o),
(388,38,o),
(377,40,qs),
(374,41,o),
(369,42,o),
(365,42,qs),
(347,42,o),
(347,20,qs),
(347,11,o),
(356,3,qs),
(362,-2,o),
(380,-8,o),
(430,-8,o),
(500,0,o),
(556,0,o),
(604,-8,o),
(628,-8,qs),
(652,-8,o),
(676,12,o),
(676,29,o),
(666,42,o),
(657,42,q),
(629,39,l),
(621,39,o),
(613,41,qs),
(592,47,o),
(555,90,qs),
(409,257,l),
(534,387,ls),
(574,428,o),
(599,445,qs),
(614,455,o),
(630,455,q),
(657,452,l),
(666,452,o),
(676,465,o),
(676,482,o),
(654,502,o),
(614,502,o),
(573,495,o),
(533,495,o),
(486,502,o),
(435,502,o),
(420,493,qs),
(414,488,o),
(408,477,o),
(408,469,o),
(409,466,qs),
(414,452,o),
(426,452,q),
(468,456,l),
(478,456,o),
(488,445,o),
(488,439,qs),
(488,433,o),
(481,418,o),
(458,395,qs),
(369,304,l),
(256,433,ls),
(251,438,o),
(251,443,qs),
(251,456,o),
(276,456,q),
(313,452,l),
(332,452,o),
(332,474,qs),
(332,482,o),
(322,491,qs),
(316,496,o),
(298,502,o),
(250,502,o),
(180,495,o),
(139,495,o),
(121,497,o),
(111,498,qs),
(98,500,l),
(75,501,ls),
(64,502,o),
(26,502,o),
(2,482,o),
(2,465,o),
(13,452,o),
(21,452,q),
(49,455,l),
(68,455,o),
(85,447,qs),
(98,441,o),
(124,412,q),
(264,245,l),
(134,106,ls),
(74,40,o),
(48,40,q),
(21,43,l),
(12,43,o),
(2,29,o),
(2,12,o),
(24,-8,o),
(63,-8,o),
(104,0,o),
(125,0,q),
(224,-8,l),
(253,-8,o)
);
}
);
userData = {
assembly = "NPUSHB[ ]	/* 62 values pushed */
0 0 0 114 0 114 110 109 108 107 100 99 96 94 89 88 87 86 85 83 80 79 78 77 69 68 67 66 63 62 61 60 59 58 52 51 50 49 39 38 37 36 31 30 29 28 23 22 19 18 17 16 10 9 8 7 4 3 2 1 29 8
CALL[ ]	/* CallFunction */
NPUSHB[ ]	/* 60 values pushed */
104 73 43 12 4 2 4 1 33 17 16 12 11 10 9 5 7 4 4 6 1 0 39 15 14 13 8 7 5 6 6 15 34 26 25 24 23 19 18 3 7 2 2 0 1 0 39 28 27 22 21 20 1 6 0 0 13 0 35 5
PUSHB[ ]	/* 1 value pushed */
59
CALL[ ]	/* CallFunction */";
};
width = 668;
}
);
note = x;
unicode = 120;
},
{
glyphname = y;
kernLeft = y;
lastChange = "2025-07-10 15:54:07 +0000";
layers = (
{
layerId = m01;
shapes = (
{
closed = 1;
nodes = (
(669,465,o),
(669,482,o),
(646,502,o),
(603,502,o),
(567,495,o),
(527,495,o),
(480,502,o),
(429,502,o),
(406,483,o),
(406,465,o),
(417,452,o),
(425,452,q),
(465,456,l),
(494,456,o),
(494,437,qs),
(494,427,o),
(487,409,qs),
(484,400,o),
(472,371,o),
(369,111,q),
(238,404,ls),
(231,422,o),
(231,431,qs),
(231,456,o),
(264,456,q),
(301,452,l),
(320,452,o),
(320,474,qs),
(320,482,o),
(310,491,qs),
(304,496,o),
(286,502,o),
(238,502,o),
(169,495,o),
(141,495,q),
(43,502,l),
(19,502,o),
(-4,482,o),
(-4,465,o),
(6,452,o),
(14,452,q),
(42,455,l),
(49,455,o),
(58,452,qs),
(87,441,o),
(129,357,qs),
(314,-25,l),
(314,-25,l),
(269,-118,o),
(238,-152,qs),
(223,-170,o),
(198,-182,o),
(177,-182,o),
(170,-181,qs),
(151,-176,o),
(136,-148,qs),
(120,-120,o),
(96,-120,qs),
(85,-120,o),
(80,-123,qs),
(59,-136,o),
(59,-164,qs),
(59,-198,o),
(90,-223,qs),
(105,-234,o),
(148,-248,o),
(194,-248,o),
(214,-241,qs),
(283,-216,o),
(355,-66,q),
(554,379,ls),
(590,456,o),
(623,456,q),
(650,452,l),
(658,452,o)
);
}
);
userData = {
assembly = "NPUSHB[ ]	/* 40 values pushed */
0 0 0 74 0 74 71 70 69 68 67 66 63 62 61 60 50 49 48 47 42 41 40 39 38 37 34 33 32 31 22 21 17 15 8 7 2 1 18 8
CALL[ ]	/* CallFunction */
NPUSHB[ ]	/* 55 values pushed */
54 27 26 3 2 0 1 33 0 2 0 3 0 2 3 53 17 16 12 11 10 9 5 4 8 0 0 6 1 0 39 15 14 13 8 7 5 6 6 15 34 0 3 3 1 1 2 39 0 1 1 17 1 35 6
PUSHB[ ]	/* 1 value pushed */
59
CALL[ ]	/* CallFunction */";
};
width = 659;
}
);
note = y;
unicode = 121;
},
{
glyphname = z;
kernLeft = z;
lastChange = "2025-07-10 15:54:11 +0000";
layers = (
{
layerId = m01;
shapes = (
{
closed = 1;
nodes = (
(538,172,o),
(528,161,qs),
(486,112,ls),
(467,91,o),
(447,77,qs),
(408,50,o),
(346,50,qs),
(201,50,l),
(530,448,ls),
(541,460,o),
(536,479,qs),
(534,487,o),
(516,495,o),
(494,495,qs),
(149,495,ls),
(141,495,o),
(122,505,qs),
(108,512,ls),
(103,515,o),
(99,515,qs),
(81,515,o),
(81,462,o),
(73,418,qs),
(69,397,o),
(59,355,o),
(52,333,o),
(61,323,o),
(68,323,qs),
(83,323,o),
(120,373,qs),
(151,414,o),
(188,434,qs),
(209,445,o),
(252,445,qs),
(377,445,l),
(57,61,ls),
(44,45,o),
(41,36,qs),
(40,32,o),
(40,24,o),
(43,12,o),
(56,0,o),
(76,0,qs),
(513,0,l),
(519,39,o),
(528,65,qs),
(533,79,o),
(544,106,o),
(567,152,o),
(567,165,qs),
(567,180,o),
(553,180,qs),
(547,180,o)
);
}
);
userData = {
assembly = "NPUSHB[ ]	/* 20 values pushed */
1 0 46 44 39 36 33 31 25 23 19 17 10 8 0 52 1 52 8 8
CALL[ ]	/* CallFunction */
MPPEM[ ]	/* MeasurePixelPerEm */
PUSHB[ ]	/* 1 value pushed */
9
LT[ ]	/* LessThan */
IF[ ]	/* If */
NPUSHB[ ]	/* 47 values pushed */
0 3 2 0 2 3 0 53 7 1 0 6 2 0 6 51 0 4 4 15 34 0 2 2 5 1 0 39 0 5 5 15 34 0 6 6 1 1 2 39 0 1 1 13 1 35 7
ELSE[ ]	/* Else */
NPUSHB[ ]	/* 47 values pushed */
0 3 2 0 2 3 0 53 7 1 0 6 2 0 6 51 0 4 4 21 34 0 2 2 5 1 0 39 0 5 5 15 34 0 6 6 1 1 2 39 0 1 1 13 1 35 7
EIF[ ]	/* EndIf */
PUSHB[ ]	/* 1 value pushed */
59
CALL[ ]	/* CallFunction */";
};
width = 583;
}
);
note = z;
unicode = 122;
},
{
glyphname = braceleft;
lastChange = "2025-07-10 15:48:07 +0000";
layers = (
{
layerId = m01;
shapes = (
{
closed = 1;
nodes = (
(305,-100,o),
(292,-91,o),
(278,-58,o),
(278,3,qs),
(278,171,o),
(247,257,qs),
(220,333,o),
(163,355,q),
(220,375,o),
(247,452,qs),
(262,494,o),
(278,619,o),
(278,768,o),
(287,790,qs),
(295,811,o),
(315,811,q),
(343,806,l),
(360,806,o),
(360,819,qs),
(360,825,o),
(355,829,qs),
(342,845,o),
(310,845,qs),
(257,845,o),
(217,787,qs),
(197,759,o),
(168,673,o),
(149,517,o),
(136,463,qs),
(129,437,o),
(114,404,o),
(97,385,o),
(77,377,o),
(40,368,o),
(40,355,qs),
(40,342,o),
(63,336,qs),
(77,333,o),
(87,329,qs),
(108,320,o),
(122,289,qs),
(143,243,o),
(162,94,qs),
(174,-16,o),
(217,-77,qs),
(237,-105,o),
(285,-134,o),
(320,-134,o),
(329,-133,qs),
(360,-126,o),
(360,-109,qs),
(360,-96,o),
(343,-96,q),
(315,-100,l)
);
}
);
userData = {
assembly = "NPUSHB[ ]	/* 14 values pushed */
53 52 38 37 36 35 31 29 6 5 1 0 6 8
CALL[ ]	/* CallFunction */
NPUSHB[ ]	/* 31 values pushed */
45 1 0 3 1 33 5 1 0 0 1 0 1 1 0 40 4 1 3 3 2 1 0 39 0 2 2 14 3 35 4
PUSHB[ ]	/* 1 value pushed */
59
CALL[ ]	/* CallFunction */";
};
width = 395;
}
);
note = braceleft;
unicode = 123;
},
{
glyphname = bar;
lastChange = "2025-07-10 15:48:07 +0000";
layers = (
{
layerId = m01;
shapes = (
{
closed = 1;
nodes = (
(169,-117,o),
(193,-141,o),
(219,-141,o),
(226,-138,qs),
(251,-127,o),
(251,-101,qs),
(251,806,ls),
(251,823,o),
(228,845,o),
(193,845,o),
(169,824,o),
(169,807,qs),
(169,-100,ls)
);
}
);
userData = {
assembly = "NPUSHB[ ]	/* 6 values pushed */
10 9 3 2 2 8
CALL[ ]	/* CallFunction */
NPUSHB[ ]	/* 14 values pushed */
0 1 1 0 1 0 39 0 0 0 14 1 35 2
PUSHB[ ]	/* 1 value pushed */
59
CALL[ ]	/* CallFunction */";
};
width = 420;
}
);
note = bar;
unicode = 124;
},
{
glyphname = asciitilde;
lastChange = "2025-07-10 15:48:07 +0000";
layers = (
{
layerId = m01;
shapes = (
{
closed = 1;
nodes = (
(271,328,qs),
(288,320,o),
(339,283,qs),
(428,218,o),
(489,218,qs),
(601,218,o),
(655,372,q),
(591,402,l),
(571,346,o),
(544,318,qs),
(532,306,o),
(508,295,o),
(484,295,o),
(472,297,qs),
(439,302,o),
(373,351,qs),
(282,418,o),
(217,418,qs),
(164,418,o),
(116,372,qs),
(69,327,o),
(46,264,q),
(111,232,l),
(157,340,o),
(215,340,qs),
(244,340,o)
);
}
);
userData = {
assembly = "NPUSHB[ ]	/* 14 values pushed */
1 0 21 19 13 12 8 6 0 25 1 25 5 8
CALL[ ]	/* CallFunction */
NPUSHB[ ]	/* 46 values pushed */
18 17 2 0 1 3 2 2 3 2 2 33 0 1 4 1 0 2 1 0 1 0 41 0 2 3 3 2 1 0 38 0 2 2 3 1 0 39 0 3 2 3 1 0 36 5
PUSHB[ ]	/* 1 value pushed */
59
CALL[ ]	/* CallFunction */";
};
width = 702;
}
);
note = asciitilde;
unicode = 126;
},
{
glyphname = cent;
lastChange = "2025-07-10 15:48:07 +0000";
layers = (
{
layerId = m01;
shapes = (
{
closed = 1;
nodes = (
(356,-103,qs),
(356,-11,l),
(400,-7,o),
(445,15,qs),
(467,24,o),
(504,50,o),
(533,78,o),
(549,107,o),
(549,125,o),
(548,129,qs),
(542,146,o),
(534,146,qs),
(516,146,o),
(497,122,q),
(476,89,o),
(446,77,qs),
(431,70,o),
(396,65,o),
(365,65,o),
(356,66,q),
(356,448,l),
(402,446,o),
(424,436,qs),
(439,429,o),
(474,400,o),
(516,346,o),
(529,346,qs),
(536,346,o),
(544,350,q),
(547,352,o),
(553,357,o),
(553,370,o),
(540,408,o),
(537,433,qs),
(535,446,o),
(535,476,o),
(535,514,o),
(518,514,qs),
(513,514,o),
(505,511,qs),
(489,503,ls),
(480,500,o),
(464,493,o),
(452,493,o),
(447,494,qs),
(416,504,ls),
(388,512,o),
(356,514,q),
(356,592,ls),
(356,611,o),
(343,630,o),
(328,630,qs),
(303,630,o),
(303,591,qs),
(303,512,l),
(192,501,o),
(121,423,qs),
(53,348,o),
(53,251,qs),
(53,138,o),
(125,66,qs),
(193,0,o),
(303,-10,q),
(303,-101,ls),
(303,-141,o),
(331,-141,qs),
(356,-141,o)
);
},
{
closed = 1;
nodes = (
(174,123,o),
(174,265,qs),
(174,419,o),
(303,445,q),
(303,78,l)
);
}
);
userData = {
assembly = "NPUSHB[ ]	/* 24 values pushed */
1 0 55 53 48 47 45 44 40 38 29 27 23 22 19 18 15 13 0 66 1 66 10 8
CALL[ ]	/* CallFunction */
NPUSHB[ ]	/* 78 values pushed */
11 1 3 2 67 1 5 6 71 46 2 7 8 64 3 2 0 7 4 33 0 8 5 7 5 8 7 53 0 7 0 5 7 0 51 0 1 9 1 0 1 0 1 0 40 0 3 3 15 34 0 6 6 2 1 0 39 4 1 2 2 15 34 0 5 5 2 1 0 39 4 1 2 2 15 5 35 9
PUSHB[ ]	/* 1 value pushed */
59
CALL[ ]	/* CallFunction */";
};
width = 594;
}
);
note = cent;
unicode = 162;
},
{
glyphname = sterling;
lastChange = "2025-07-10 15:48:07 +0000";
layers = (
{
layerId = m01;
shapes = (
{
closed = 1;
nodes = (
(111,44,o),
(172,44,qs),
(215,44,o),
(303,16,qs),
(391,-12,o),
(482,-12,qs),
(532,-12,o),
(589,16,qs),
(614,28,o),
(646,60,o),
(646,82,o),
(636,92,qs),
(632,96,o),
(623,102,o),
(608,102,o),
(593,87,qs),
(566,60,o),
(527,60,qs),
(505,60,o),
(477,68,qs),
(461,73,o),
(422,88,o),
(372,109,o),
(319,125,o),
(251,130,q),
(278,154,o),
(294,185,qs),
(303,201,o),
(313,235,o),
(313,298,o),
(297,351,q),
(482,351,ls),
(501,351,o),
(515,357,qs),
(522,361,o),
(531,372,o),
(531,390,o),
(525,396,qs),
(511,414,o),
(477,414,qs),
(273,414,l),
(243,478,o),
(232,522,qs),
(227,544,o),
(224,583,o),
(224,630,o),
(232,651,qs),
(259,712,o),
(339,712,qs),
(395,712,o),
(456,676,qs),
(518,639,o),
(559,578,q),
(571,566,o),
(576,566,qs),
(593,566,o),
(591,589,qs),
(589,602,o),
(580,643,o),
(571,688,o),
(564,735,o),
(567,782,o),
(550,782,qs),
(541,782,o),
(517,756,qs),
(500,738,o),
(490,738,qs),
(484,739,o),
(458,750,qs),
(442,756,o),
(381,775,o),
(334,775,qs),
(242,775,o),
(178,715,qs),
(147,686,o),
(111,607,o),
(111,493,o),
(143,414,q),
(102,414,ls),
(79,414,o),
(57,396,o),
(57,369,o),
(83,351,o),
(105,351,qs),
(169,351,l),
(198,275,o),
(198,168,o),
(175,139,qs),
(165,125,o),
(108,95,qs),
(72,75,o),
(48,50,qs),
(37,39,o),
(28,21,o),
(28,5,o),
(35,-2,qs),
(38,-6,o),
(45,-10,o),
(59,-10,o),
(74,6,q),
(74,6,l)
);
}
);
userData = {
assembly = "NPUSHB[ ]	/* 30 values pushed */
99 97 95 93 86 85 83 81 69 67 61 59 52 50 46 44 38 36 34 33 29 27 22 20 17 15 2 1 14 8
CALL[ ]	/* CallFunction */
MPPEM[ ]	/* MeasurePixelPerEm */
PUSHB[ ]	/* 1 value pushed */
17
LT[ ]	/* LessThan */
IF[ ]	/* If */
NPUSHB[ ]	/* 83 values pushed */
75 1 11 1 100 0 2 0 13 2 33 0 4 3 7 3 4 7 53 0 6 7 2 7 6 2 53 0 11 1 10 1 11 10 53 0 13 10 0 10 13 0 53 8 1 2 9 1 1 11 2 1 1 2 41 0 7 7 3 1 0 39 5 1 3 3 12 34 0 10 10 0 1 0 39 12 1 0 0 13 0 35 10
ELSE[ ]	/* Else */
NPUSHB[ ]	/* 83 values pushed */
75 1 11 1 100 0 2 0 13 2 33 0 4 3 7 3 4 7 53 0 6 7 2 7 6 2 53 0 11 1 10 1 11 10 53 0 13 10 0 10 13 0 53 8 1 2 9 1 1 11 2 1 1 2 41 0 7 7 3 1 0 39 5 1 3 3 12 34 0 10 10 0 1 0 39 12 1 0 0 16 0 35 10
EIF[ ]	/* EndIf */
PUSHB[ ]	/* 1 value pushed */
59
CALL[ ]	/* CallFunction */";
};
width = 667;
}
);
note = sterling;
unicode = 163;
},
{
glyphname = currency;
lastChange = "2025-07-10 15:48:07 +0000";
layers = (
{
layerId = m01;
shapes = (
{
closed = 1;
nodes = (
(642,96,l),
(529,204,l),
(560,252,o),
(560,313,qs),
(560,375,o),
(531,424,q),
(642,531,l),
(589,584,l),
(483,475,l),
(429,514,o),
(280,514,o),
(224,476,q),
(120,584,l),
(66,531,l),
(175,426,l),
(142,377,o),
(142,247,o),
(174,199,q),
(66,96,l),
(120,42,l),
(223,150,l),
(276,113,o),
(426,113,o),
(482,153,q),
(589,42,l)
);
},
{
closed = 1;
nodes = (
(252,413,qs),
(290,453,o),
(350,453,qs),
(410,453,o),
(448,413,qs),
(487,374,o),
(487,314,qs),
(487,250,o),
(449,211,qs),
(413,174,o),
(352,174,qs),
(291,174,o),
(253,213,qs),
(235,232,o),
(215,283,o),
(215,313,qs),
(215,374,o)
);
}
);
userData = {
assembly = "NPUSHB[ ]	/* 10 values pushed */
39 37 31 29 14 13 2 1 4 8
CALL[ ]	/* CallFunction */
NPUSHB[ ]	/* 56 values pushed */
15 12 2 3 1 22 18 9 6 4 2 3 3 0 2 0 2 3 33 17 16 11 10 4 1 31 24 23 5 4 4 0 30 0 2 0 0 2 0 1 0 40 0 3 3 1 1 0 39 0 1 1 15 3 35 6
PUSHB[ ]	/* 1 value pushed */
59
CALL[ ]	/* CallFunction */";
};
width = 708;
}
);
note = currency;
unicode = 164;
},
{
glyphname = yen;
lastChange = "2025-07-10 15:48:07 +0000";
layers = (
{
layerId = m01;
shapes = (
{
closed = 1;
nodes = (
(451,53,o),
(434,95,o),
(434,161,qs),
(434,183,l),
(644,183,ls),
(662,183,o),
(682,191,o),
(682,217,o),
(679,223,qs),
(673,235,o),
(643,235,qs),
(434,235,l),
(434,359,l),
(644,359,ls),
(682,359,o),
(682,381,qs),
(682,394,o),
(679,399,qs),
(672,413,o),
(643,413,qs),
(465,413,l),
(700,694,ls),
(715,712,o),
(739,712,qs),
(754,712,o),
(766,708,o),
(771,708,qs),
(791,708,o),
(791,730,qs),
(791,740,o),
(766,758,o),
(732,758,o),
(696,751,o),
(670,751,qs),
(656,751,o),
(631,755,qs),
(620,756,o),
(592,758,o),
(550,758,o),
(527,738,o),
(527,721,o),
(537,708,o),
(545,708,q),
(583,713,l),
(614,713,o),
(614,695,qs),
(614,682,o),
(572,632,qs),
(410,438,l),
(231,655,l),
(221,670,ls),
(217,676,o),
(212,684,o),
(209,691,o),
(209,702,o),
(224,713,o),
(241,713,q),
(278,708,l),
(296,708,o),
(296,728,qs),
(296,740,o),
(271,758,o),
(247,758,q),
(116,751,l),
(18,758,l),
(-5,758,o),
(-28,738,o),
(-28,721,o),
(-18,708,o),
(-9,708,q),
(18,712,l),
(36,712,o),
(53,704,o),
(60,694,qs),
(283,413,l),
(125,413,ls),
(104,413,o),
(97,409,qs),
(91,406,o),
(85,397,o),
(85,370,o),
(106,359,o),
(124,359,qs),
(320,359,l),
(320,235,l),
(125,235,ls),
(104,235,o),
(97,232,qs),
(91,229,o),
(85,220,o),
(85,192,o),
(106,183,o),
(124,183,qs),
(320,183,l),
(320,161,ls),
(320,96,o),
(310,68,qs),
(298,37,o),
(266,37,q),
(219,42,l),
(210,42,o),
(200,32,o),
(200,17,o),
(225,0,o),
(275,0,o),
(318,4,qs),
(347,6,ls),
(361,7,o),
(377,7,qs),
(393,7,o),
(407,6,qs),
(435,4,ls),
(449,2,o),
(482,0,o),
(530,0,o),
(554,17,o),
(554,32,o),
(544,42,o),
(536,42,q),
(489,37,l),
(472,37,o)
);
}
);
userData = {
assembly = "NPUSHB[ ]	/* 64 values pushed */
0 0 0 120 0 120 116 114 110 108 107 105 101 99 97 95 94 92 89 88 87 85 82 81 78 77 76 75 64 63 62 61 58 54 51 50 49 48 45 43 38 36 35 33 28 26 22 21 20 19 16 15 14 13 12 10 9 8 6 5 2 1 30 8
CALL[ ]	/* CallFunction */
NPUSHB[ ]	/* 74 values pushed */
71 1 11 12 1 33 24 1 11 25 1 10 9 11 10 1 2 41 26 1 9 27 1 8 0 9 8 1 0 41 23 22 18 17 16 15 13 7 12 12 14 1 0 39 21 20 19 3 14 14 12 34 29 28 7 6 4 0 0 1 1 0 39 5 4 3 2 4 1 1 13 1 35 7
PUSHB[ ]	/* 1 value pushed */
59
CALL[ ]	/* CallFunction */";
};
width = 751;
}
);
note = yen;
unicode = 165;
},
{
glyphname = brokenbar;
lastChange = "2025-07-10 15:48:07 +0000";
layers = (
{
layerId = m01;
shapes = (
{
closed = 1;
nodes = (
(250,809,ls),
(250,823,o),
(226,845,o),
(191,845,o),
(167,826,o),
(167,810,qs),
(167,462,ls),
(167,447,o),
(180,437,qs),
(186,432,o),
(199,427,o),
(226,427,o),
(250,449,o),
(250,463,qs)
);
},
{
closed = 1;
nodes = (
(167,-122,o),
(191,-141,o),
(226,-141,o),
(250,-119,o),
(250,-104,qs),
(250,247,ls),
(250,261,o),
(226,282,o),
(191,282,o),
(177,270,qs),
(167,262,o),
(167,248,qs),
(167,-105,ls)
);
}
);
userData = {
assembly = "NPUSHB[ ]	/* 10 values pushed */
24 23 18 17 10 9 2 1 4 8
CALL[ ]	/* CallFunction */
NPUSHB[ ]	/* 23 values pushed */
0 2 0 3 2 3 1 0 40 0 0 0 1 1 0 39 0 1 1 14 0 35 3
PUSHB[ ]	/* 1 value pushed */
59
CALL[ ]	/* CallFunction */";
};
width = 417;
}
);
note = brokenbar;
unicode = 166;
},
{
glyphname = section;
lastChange = "2025-07-10 15:48:07 +0000";
layers = (
{
layerId = m01;
shapes = (
{
closed = 1;
nodes = (
(410,-84,qs),
(469,-33,o),
(469,41,qs),
(469,121,o),
(390,180,q),
(408,190,o),
(425,205,qs),
(485,256,o),
(485,314,qs),
(485,377,o),
(446,421,qs),
(406,467,o),
(298,521,qs),
(178,579,o),
(178,645,qs),
(178,675,o),
(214,702,qs),
(248,727,o),
(292,727,qs),
(341,727,o),
(400,673,o),
(410,624,qs),
(415,603,o),
(430,603,qs),
(442,603,o),
(443,625,qs),
(443,747,l),
(382,775,o),
(304,775,qs),
(200,775,o),
(135,720,qs),
(76,669,o),
(76,604,qs),
(76,514,o),
(157,454,q),
(115,428,o),
(91,396,qs),
(77,377,o),
(61,336,o),
(61,284,o),
(72,257,qs),
(104,182,o),
(248,114,qs),
(368,57,o),
(368,-6,qs),
(368,-46,o),
(333,-70,qs),
(301,-93,o),
(254,-93,qs),
(201,-93,o),
(133,-32,o),
(122,21,qs),
(117,41,o),
(102,41,qs),
(89,41,o),
(88,19,qs),
(88,-102,l),
(164,-141,o),
(229,-141,qs),
(345,-141,o)
);
},
{
closed = 1;
nodes = (
(230,412,qs),
(400,334,o),
(400,272,qs),
(400,233,o),
(349,206,q),
(333,215,ls),
(324,219,o),
(316,223,qs),
(146,299,o),
(146,362,qs),
(146,400,o),
(197,428,q),
(212,419,o)
);
}
);
userData = {
assembly = "NPUSHB[ ]	/* 18 values pushed */
1 0 41 39 36 34 31 29 11 9 6 4 0 59 1 59 7 8
CALL[ ]	/* CallFunction */
NPUSHB[ ]	/* 56 values pushed */
32 1 5 3 67 60 54 24 4 1 4 2 1 0 2 3 33 0 4 5 1 5 4 1 53 0 1 2 5 1 2 51 0 2 6 1 0 2 0 1 0 40 0 5 5 3 1 0 39 0 3 3 12 5 35 6
PUSHB[ ]	/* 1 value pushed */
59
CALL[ ]	/* CallFunction */";
};
width = 546;
}
);
note = section;
unicode = 167;
},
{
glyphname = dieresis;
lastChange = "2025-07-10 15:48:07 +0000";
layers = (
{
layerId = m01;
shapes = (
{
closed = 1;
nodes = (
(433,662,o),
(433,707,o),
(415,729,qs),
(406,740,o),
(378,753,o),
(327,753,o),
(306,731,qs),
(295,721,o),
(285,693,o),
(285,646,o),
(302,625,qs),
(311,615,o),
(338,602,o),
(375,602,o),
(403,615,o),
(422,636,o)
);
},
{
closed = 1;
nodes = (
(196,662,o),
(196,708,o),
(179,729,qs),
(169,740,o),
(142,753,o),
(90,753,o),
(68,731,qs),
(59,721,o),
(48,693,o),
(48,646,o),
(65,625,qs),
(74,615,o),
(102,602,o),
(139,602,o),
(167,615,o),
(186,636,o)
);
}
);
userData = {
assembly = "NPUSHB[ ]	/* 10 values pushed */
26 25 18 17 10 9 2 1 4 8
CALL[ ]	/* CallFunction */
MPPEM[ ]	/* MeasurePixelPerEm */
PUSHB[ ]	/* 1 value pushed */
11
LT[ ]	/* LessThan */
IF[ ]	/* If */
NPUSHB[ ]	/* 26 values pushed */
3 1 1 0 0 1 1 0 38 3 1 1 1 0 1 0 39 2 1 0 1 0 1 0 36 3
ELSE[ ]	/* Else */
MPPEM[ ]	/* MeasurePixelPerEm */
PUSHB[ ]	/* 1 value pushed */
21
LT[ ]	/* LessThan */
IF[ ]	/* If */
NPUSHB[ ]	/* 16 values pushed */
2 1 0 0 1 1 0 39 3 1 1 1 12 0 35 2
ELSE[ ]	/* Else */
NPUSHB[ ]	/* 26 values pushed */
3 1 1 0 0 1 1 0 38 3 1 1 1 0 1 0 39 2 1 0 1 0 1 0 36 3
EIF[ ]	/* EndIf */
EIF[ ]	/* EndIf */
PUSHB[ ]	/* 1 value pushed */
59
CALL[ ]	/* CallFunction */";
};
width = 474;
}
);
note = dieresis;
unicode = 168;
},
{
glyphname = copyright;
lastChange = "2025-07-10 15:48:07 +0000";
layers = (
{
layerId = m01;
shapes = (
{
closed = 1;
nodes = (
(112,184,qs),
(167,94,o),
(260,42,qs),
(355,-12,o),
(468,-12,qs),
(573,-12,o),
(668,40,qs),
(713,64,o),
(789,135,o),
(843,222,o),
(874,324,o),
(874,440,o),
(859,492,qs),
(830,596,o),
(752,667,qs),
(635,775,o),
(469,775,qs),
(348,775,o),
(251,718,qs),
(206,691,o),
(133,618,o),
(83,530,o),
(57,432,o),
(57,380,qs),
(57,275,o)
);
},
{
closed = 1;
nodes = (
(224,619,qs),
(321,716,o),
(465,716,qs),
(552,716,o),
(630,674,qs),
(668,653,o),
(732,594,o),
(779,520,o),
(806,432,o),
(806,332,o),
(794,287,qs),
(757,155,o),
(639,90,qs),
(563,47,o),
(476,47,qs),
(381,47,o),
(298,93,qs),
(259,114,o),
(196,175,o),
(151,249,o),
(126,333,o),
(126,380,qs),
(126,522,o)
);
},
{
closed = 1;
nodes = (
(642,512,o),
(641,531,qs),
(640,542,o),
(639,569,o),
(639,605,o),
(624,605,qs),
(617,605,o),
(594,591,qs),
(583,584,o),
(576,584,qs),
(571,584,o),
(557,591,o),
(547,591,q),
(505,603,o),
(461,603,qs),
(362,603,o),
(298,535,qs),
(234,469,o),
(234,375,qs),
(234,280,o),
(297,217,qs),
(327,187,o),
(413,151,o),
(521,151,o),
(611,193,o),
(657,251,o),
(657,270,qs),
(657,274,o),
(647,290,o),
(643,290,qs),
(624,290,o),
(609,270,q),
(577,219,o),
(509,219,qs),
(437,219,o),
(396,266,qs),
(375,290,o),
(352,364,o),
(352,469,o),
(387,507,qs),
(404,525,o),
(448,545,o),
(521,545,o),
(553,530,qs),
(569,522,o),
(597,497,o),
(632,455,o),
(643,455,qs),
(655,455,o),
(655,468,qs),
(655,475,o)
);
}
);
userData = {
assembly = "NPUSHB[ ]	/* 28 values pushed */
93 91 89 87 86 85 84 82 75 74 69 67 65 63 56 55 51 49 45 43 33 31 20 18 8 6 13 8
CALL[ ]	/* CallFunction */
MPPEM[ ]	/* MeasurePixelPerEm */
PUSHB[ ]	/* 1 value pushed */
9
LT[ ]	/* LessThan */
IF[ ]	/* If */
NPUSHB[ ]	/* 72 values pushed */
0 11 9 5 9 11 5 53 0 7 4 6 4 7 6 53 0 5 4 9 5 1 0 38 12 10 2 9 0 4 7 9 4 1 0 41 0 6 0 8 2 6 8 1 0 41 0 3 3 0 1 0 39 0 0 0 12 34 0 2 2 1 1 2 39 0 1 1 13 1 35 9
ELSE[ ]	/* Else */
MPPEM[ ]	/* MeasurePixelPerEm */
PUSHB[ ]	/* 1 value pushed */
13
LT[ ]	/* LessThan */
IF[ ]	/* If */
NPUSHB[ ]	/* 72 values pushed */
0 11 9 5 9 11 5 53 0 7 4 6 4 7 6 53 0 5 4 9 5 1 0 38 12 10 2 9 0 4 7 9 4 1 0 41 0 6 0 8 2 6 8 1 0 41 0 3 3 0 1 0 39 0 0 0 12 34 0 2 2 1 1 2 39 0 1 1 16 1 35 9
ELSE[ ]	/* Else */
MPPEM[ ]	/* MeasurePixelPerEm */
PUSHB[ ]	/* 1 value pushed */
17
LT[ ]	/* LessThan */
IF[ ]	/* If */
NPUSHB[ ]	/* 72 values pushed */
0 11 9 5 9 11 5 53 0 7 4 6 4 7 6 53 0 5 4 9 5 1 0 38 12 10 2 9 0 4 7 9 4 1 0 41 0 6 0 8 2 6 8 1 0 41 0 3 3 0 1 0 39 0 0 0 12 34 0 2 2 1 1 2 39 0 1 1 13 1 35 9
ELSE[ ]	/* Else */
MPPEM[ ]	/* MeasurePixelPerEm */
PUSHB[ ]	/* 1 value pushed */
21
LT[ ]	/* LessThan */
IF[ ]	/* If */
NPUSHB[ ]	/* 72 values pushed */
0 11 9 5 9 11 5 53 0 7 4 6 4 7 6 53 0 5 4 9 5 1 0 38 12 10 2 9 0 4 7 9 4 1 0 41 0 6 0 8 2 6 8 1 0 41 0 3 3 0 1 0 39 0 0 0 12 34 0 2 2 1 1 2 39 0 1 1 16 1 35 9
ELSE[ ]	/* Else */
NPUSHB[ ]	/* 72 values pushed */
11 1 10 9 5 9 10 5 53 0 7 4 6 4 7 6 53 0 5 4 9 5 1 0 38 12 1 9 0 4 7 9 4 1 0 41 0 6 0 8 2 6 8 1 0 41 0 3 3 0 1 0 39 0 0 0 12 34 0 2 2 1 1 2 39 0 1 1 13 1 35 9
EIF[ ]	/* EndIf */
EIF[ ]	/* EndIf */
EIF[ ]	/* EndIf */
EIF[ ]	/* EndIf */
PUSHB[ ]	/* 1 value pushed */
59
CALL[ ]	/* CallFunction */";
};
width = 931;
}
);
note = copyright;
unicode = 169;
},
{
glyphname = ordfeminine;
lastChange = "2025-07-10 15:48:07 +0000";
layers = (
{
layerId = m01;
shapes = (
{
closed = 1;
nodes = (
(381,373,qs),
(434,375,l),
(497,372,l),
(520,372,o),
(538,387,o),
(538,401,o),
(527,412,o),
(521,412,q),
(495,407,l),
(485,407,o),
(470,415,o),
(457,447,o),
(457,514,qs),
(457,618,ls),
(457,691,o),
(419,729,qs),
(398,750,o),
(325,775,o),
(224,775,o),
(190,766,qs),
(176,762,o),
(175,762,qs),
(172,762,o),
(166,765,qs),
(142,775,ls),
(136,777,o),
(132,777,qs),
(127,777,o),
(117,771,o),
(117,758,qs),
(117,707,o),
(106,677,qs),
(102,662,o),
(102,656,qs),
(102,651,o),
(110,643,o),
(118,643,o),
(130,647,o),
(145,668,qs),
(170,702,o),
(221,729,o),
(252,729,qs),
(353,729,o),
(353,627,qs),
(353,584,l),
(303,607,o),
(174,607,o),
(131,580,qs),
(82,549,o),
(82,488,qs),
(82,434,o),
(162,369,o),
(308,369,o),
(354,408,q),
(358,373,o)
);
},
{
closed = 1;
nodes = (
(316,409,o),
(229,409,o),
(205,435,qs),
(194,447,o),
(183,479,o),
(183,512,o),
(188,525,qs),
(209,573,o),
(268,573,qs),
(312,573,o),
(353,551,q),
(353,442,l)
);
}
);
userData = {
assembly = "NPUSHB[ ]	/* 26 values pushed */
65 64 58 56 54 50 47 46 45 44 36 35 33 31 28 26 18 17 13 11 8 7 2 1 12 8
CALL[ ]	/* CallFunction */
MPPEM[ ]	/* MeasurePixelPerEm */
PUSHB[ ]	/* 1 value pushed */
19
LT[ ]	/* LessThan */
IF[ ]	/* If */
NPUSHB[ ]	/* 66 values pushed */
20 1 3 2 9 1 10 1 66 55 0 3 7 10 3 33 0 3 2 1 2 3 1 53 0 1 0 10 7 1 10 1 0 41 11 8 2 7 9 1 0 7 0 1 2 40 0 4 4 12 34 0 2 2 5 1 0 39 6 1 5 5 12 2 35 7
ELSE[ ]	/* Else */
NPUSHB[ ]	/* 66 values pushed */
20 1 3 2 9 1 10 1 66 55 0 3 7 10 3 33 0 3 2 1 2 3 1 53 0 1 0 10 7 1 10 1 0 41 11 8 2 7 9 1 0 7 0 1 2 40 0 5 5 12 34 0 2 2 4 1 0 39 6 1 4 4 12 2 35 7
EIF[ ]	/* EndIf */
PUSHB[ ]	/* 1 value pushed */
59
CALL[ ]	/* CallFunction */";
};
width = 583;
}
);
note = ordfeminine;
unicode = 170;
},
{
glyphname = logicalnot;
lastChange = "2025-07-10 15:48:07 +0000";
layers = (
{
layerId = m01;
shapes = (
{
closed = 1;
nodes = (
(484,283,l),
(484,124,l),
(559,124,l),
(559,356,l),
(68,356,l),
(68,283,l)
);
}
);
userData = {
assembly = "NPUSHB[ ]	/* 8 values pushed */
5 4 3 2 1 0 3 8
CALL[ ]	/* CallFunction */
MPPEM[ ]	/* MeasurePixelPerEm */
PUSHB[ ]	/* 1 value pushed */
9
LT[ ]	/* LessThan */
IF[ ]	/* If */
NPUSHB[ ]	/* 29 values pushed */
0 1 2 2 1 44 0 0 2 2 0 0 0 38 0 0 0 2 0 0 39 0 2 0 2 0 0 36 4
ELSE[ ]	/* Else */
NPUSHB[ ]	/* 28 values pushed */
0 1 2 1 56 0 0 2 2 0 0 0 38 0 0 0 2 0 0 39 0 2 0 2 0 0 36 4
EIF[ ]	/* EndIf */
PUSHB[ ]	/* 1 value pushed */
59
CALL[ ]	/* CallFunction */";
};
width = 627;
}
);
note = logicalnot;
unicode = 172;
},
{
glyphname = registered;
lastChange = "2025-07-10 15:48:07 +0000";
layers = (
{
layerId = m01;
shapes = (
{
closed = 1;
nodes = (
(528,388,qs),
(612,465,o),
(612,578,qs),
(612,694,o),
(527,771,qs),
(448,845,o),
(337,845,qs),
(215,845,o),
(134,764,qs),
(58,687,o),
(58,578,qs),
(58,468,o),
(139,390,qs),
(177,354,o),
(279,312,o),
(326,312,qs),
(446,312,o)
);
},
{
closed = 1;
nodes = (
(115,487,o),
(115,576,qs),
(115,667,o),
(178,728,qs),
(240,790,o),
(332,790,qs),
(419,790,o),
(483,730,qs),
(549,669,o),
(549,577,qs),
(549,484,o),
(485,422,qs),
(457,394,o),
(380,363,o),
(336,363,qs),
(245,363,o)
);
},
{
closed = 1;
nodes = (
(236,637,qs),
(236,521,ls),
(236,472,o),
(222,472,q),
(208,474,l),
(196,474,o),
(196,464,qs),
(196,449,o),
(217,449,q),
(269,453,l),
(321,449,l),
(341,449,o),
(341,464,qs),
(341,474,o),
(330,474,q),
(316,472,l),
(303,472,o),
(303,521,qs),
(303,559,l),
(315,554,o),
(336,534,o),
(366,485,o),
(417,447,o),
(458,447,o),
(476,458,o),
(476,474,o),
(467,474,q),
(453,472,l),
(448,472,o),
(438,483,o),
(427,501,qs),
(402,542,o),
(368,561,q),
(403,563,o),
(428,583,qs),
(440,592,o),
(455,620,o),
(455,668,o),
(428,688,qs),
(399,708,o),
(353,708,q),
(280,704,l),
(217,708,l),
(196,708,o),
(196,693,qs),
(196,689,o),
(203,683,o),
(212,683,o),
(222,685,q),
(236,685,o)
);
},
{
closed = 1;
nodes = (
(303,673,o),
(353,673,o),
(369,663,qs),
(378,657,o),
(389,641,o),
(389,608,o),
(376,597,qs),
(370,592,o),
(354,587,o),
(324,587,o),
(303,595,q),
(303,653,ls)
);
}
);
userData = {
assembly = "NPUSHB[ ]	/* 50 values pushed */
33 33 18 17 1 0 93 92 85 84 33 82 33 82 79 78 77 76 74 70 68 67 66 65 59 58 56 55 54 53 49 48 42 38 35 34 27 25 17 32 18 32 10 8 0 16 1 16 21 8
CALL[ ]	/* CallFunction */
MPPEM[ ]	/* MeasurePixelPerEm */
PUSHB[ ]	/* 1 value pushed */
11
LT[ ]	/* LessThan */
IF[ ]	/* If */
NPUSHB[ ]	/* 77 values pushed */
83 1 16 4 63 1 7 6 2 33 0 16 4 6 7 16 45 0 6 7 4 6 43 0 5 17 20 15 3 4 16 5 4 1 0 41 14 13 11 10 8 5 7 12 1 9 2 7 9 1 2 41 19 1 2 18 1 0 2 0 1 0 40 0 3 3 1 1 0 39 0 1 1 14 3 35 8
ELSE[ ]	/* Else */
NPUSHB[ ]	/* 79 values pushed */
83 1 16 4 63 1 7 6 2 33 0 16 4 6 4 16 6 53 0 6 7 4 6 7 51 0 5 17 20 15 3 4 16 5 4 1 0 41 14 13 11 10 8 5 7 12 1 9 2 7 9 1 2 41 19 1 2 18 1 0 2 0 1 0 40 0 3 3 1 1 0 39 0 1 1 14 3 35 8
EIF[ ]	/* EndIf */
PUSHB[ ]	/* 1 value pushed */
59
CALL[ ]	/* CallFunction */";
};
width = 670;
}
);
note = registered;
unicode = 174;
},
{
glyphname = macron;
lastChange = "2025-07-10 15:48:07 +0000";
layers = (
{
layerId = m01;
shapes = (
{
closed = 1;
nodes = (
(386,643,l),
(386,710,l),
(48,710,l),
(48,643,l)
);
}
);
userData = {
assembly = "NPUSHB[ ]	/* 6 values pushed */
3 2 1 0 2 8
CALL[ ]	/* CallFunction */
NPUSHB[ ]	/* 23 values pushed */
0 0 1 1 0 0 0 38 0 0 0 1 0 0 39 0 1 0 1 0 0 36 3
PUSHB[ ]	/* 1 value pushed */
59
CALL[ ]	/* CallFunction */";
};
width = 428;
}
);
note = macron;
unicode = 175;
},
{
glyphname = degree;
lastChange = "2025-07-10 15:48:07 +0000";
layers = (
{
layerId = m01;
shapes = (
{
closed = 1;
nodes = (
(309,537,qs),
(348,575,o),
(348,637,qs),
(348,700,o),
(273,775,o),
(213,775,qs),
(146,775,o),
(106,734,qs),
(70,695,o),
(70,637,qs),
(70,574,o),
(108,537,qs),
(126,519,o),
(178,499,o),
(209,499,qs),
(270,499,o)
);
},
{
closed = 1;
nodes = (
(155,578,qs),
(146,589,o),
(135,619,o),
(135,672,o),
(154,694,qs),
(164,706,o),
(191,718,o),
(226,718,o),
(240,712,qs),
(284,692,o),
(284,637,qs),
(284,598,o),
(245,555,o),
(175,555,o)
);
}
);
userData = {
assembly = "NPUSHB[ ]	/* 18 values pushed */
16 16 1 0 16 29 16 29 22 21 10 8 0 15 1 15 6 8
CALL[ ]	/* CallFunction */
NPUSHB[ ]	/* 25 values pushed */
5 1 3 4 1 0 3 0 1 0 40 0 2 2 1 1 0 39 0 1 1 12 2 35 3
PUSHB[ ]	/* 1 value pushed */
59
CALL[ ]	/* CallFunction */";
};
width = 417;
}
);
note = degree;
unicode = 176;
},
{
glyphname = plusminus;
lastChange = "2025-07-10 15:48:07 +0000";
layers = (
{
layerId = m01;
shapes = (
{
closed = 1;
nodes = (
(351,226,l),
(351,430,l),
(559,430,l),
(559,502,l),
(351,502,l),
(351,717,l),
(276,717,l),
(276,502,l),
(68,502,l),
(68,430,l),
(276,430,l),
(276,226,l)
);
},
{
closed = 1;
nodes = (
(559,84,l),
(559,157,l),
(68,157,l),
(68,84,l)
);
}
);
userData = {
assembly = "NPUSHB[ ]	/* 18 values pushed */
15 14 13 12 11 10 9 8 7 6 5 4 3 2 1 0 8 8
CALL[ ]	/* CallFunction */
NPUSHB[ ]	/* 35 values pushed */
0 2 0 5 6 2 5 0 0 41 0 6 0 7 6 7 0 0 40 4 1 0 0 1 0 0 39 3 1 1 1 15 0 35 4
PUSHB[ ]	/* 1 value pushed */
59
CALL[ ]	/* CallFunction */";
};
width = 627;
}
);
note = plusminus;
unicode = 177;
},
{
glyphname = twosuperior;
lastChange = "2025-07-10 15:48:07 +0000";
layers = (
{
layerId = m01;
shapes = (
{
closed = 1;
nodes = (
(352,330,o),
(358,349,qs),
(380,410,ls),
(384,422,o),
(384,433,o),
(374,439,o),
(370,439,qs),
(361,439,o),
(347,427,qs),
(326,404,o),
(293,396,qs),
(275,392,o),
(224,392,qs),
(138,392,l),
(169,446,o),
(242,502,qs),
(280,531,o),
(303,551,qs),
(374,613,o),
(374,664,qs),
(374,712,o),
(333,743,qs),
(313,758,o),
(253,775,o),
(196,775,o),
(174,771,qs),
(97,759,o),
(54,723,q),
(54,641,ls),
(54,628,o),
(68,619,o),
(74,619,qs),
(89,619,o),
(100,647,qs),
(105,663,o),
(117,679,qs),
(153,727,o),
(199,727,qs),
(235,727,o),
(273,686,o),
(273,629,o),
(248,594,qs),
(232,573,o),
(181,527,qs),
(105,461,o),
(75,409,qs),
(61,385,o),
(51,347,o),
(51,312,o),
(68,312,qs),
(347,312,l)
);
}
);
userData = {
assembly = "NPUSHB[ ]	/* 18 values pushed */
1 0 44 42 38 36 26 25 19 17 13 11 0 50 1 50 7 8
CALL[ ]	/* CallFunction */
NPUSHB[ ]	/* 45 values pushed */
22 1 2 1 1 33 0 2 1 5 1 2 5 53 0 5 4 1 5 4 51 0 4 6 1 0 4 0 1 0 40 0 1 1 3 1 0 39 0 3 3 12 1 35 6
PUSHB[ ]	/* 1 value pushed */
59
CALL[ ]	/* CallFunction */";
};
width = 420;
}
);
note = twosuperior;
unicode = 178;
},
{
glyphname = threesuperior;
lastChange = "2025-07-10 15:48:07 +0000";
layers = (
{
layerId = m01;
shapes = (
{
closed = 1;
nodes = (
(285,305,o),
(336,346,qs),
(361,365,o),
(387,420,o),
(387,478,o),
(378,498,qs),
(351,559,o),
(276,575,q),
(294,583,o),
(311,595,qs),
(365,632,o),
(365,677,qs),
(365,722,o),
(322,749,qs),
(281,775,o),
(219,775,qs),
(135,775,o),
(73,733,q),
(73,651,ls),
(73,638,o),
(87,629,o),
(93,629,qs),
(98,629,o),
(113,642,o),
(116,652,qs),
(127,685,o),
(170,725,o),
(230,725,o),
(265,694,o),
(265,655,o),
(259,642,qs),
(243,603,o),
(188,580,qs),
(146,563,o),
(146,549,qs),
(146,535,o),
(162,535,q),
(198,542,l),
(239,542,o),
(266,508,qs),
(277,493,o),
(290,453,o),
(290,400,o),
(270,378,qs),
(259,368,o),
(229,355,o),
(173,355,o),
(119,394,o),
(109,427,qs),
(105,438,o),
(91,450,o),
(80,450,o),
(66,441,o),
(66,428,qs),
(66,346,l),
(128,305,o)
);
}
);
userData = {
assembly = "NPUSHB[ ]	/* 18 values pushed */
55 54 40 38 34 32 28 27 19 18 17 16 9 8 4 3 8 8
CALL[ ]	/* CallFunction */
NPUSHB[ ]	/* 60 values pushed */
37 1 4 6 47 1 2 5 0 1 7 1 3 33 0 5 4 2 4 5 2 53 3 1 2 0 4 2 0 51 0 0 1 4 0 1 51 0 1 0 7 1 7 1 0 40 0 4 4 6 1 0 39 0 6 6 12 4 35 7
PUSHB[ ]	/* 1 value pushed */
59
CALL[ ]	/* CallFunction */";
};
width = 420;
}
);
note = threesuperior;
unicode = 179;
},
{
glyphname = acute;
kernLeft = a;
lastChange = "2025-07-10 16:20:39 +0000";
layers = (
{
layerId = m01;
shapes = (
{
closed = 1;
nodes = (
(290,685,o),
(304,705,qs),
(311,714,o),
(315,733,o),
(313,761,o),
(286,783,o),
(244,781,o),
(222,768,qs),
(207,758,o),
(179,721,qs),
(104,619,ls),
(101,614,o),
(94,600,o),
(101,591,qs),
(109,581,o),
(135,596,qs),
(250,662,ls)
);
}
);
userData = {
assembly = "NPUSHB[ ]	/* 4 values pushed */
10 9 1 8
CALL[ ]	/* CallFunction */
NPUSHB[ ]	/* 7 values pushed */
0 0 0 12 0 35 1
PUSHB[ ]	/* 1 value pushed */
59
CALL[ ]	/* CallFunction */";
};
width = 314;
}
);
note = acute;
unicode = 180;
},
{
glyphname = mu;
lastChange = "2025-07-10 15:48:07 +0000";
layers = (
{
layerId = m01;
shapes = (
{
closed = 1;
nodes = (
(233,-139,ls),
(225,-132,o),
(205,-105,o),
(205,-80,qs),
(205,-30,o),
(223,27,q),
(279,-12,o),
(426,-12,o),
(484,29,q),
(491,0,o),
(515,0,q),
(568,3,ls),
(574,3,o),
(593,1,o),
(614,0,o),
(636,-1,o),
(672,-1,o),
(692,15,o),
(692,31,o),
(682,40,o),
(666,40,o),
(660,38,qs),
(646,36,l),
(629,36,o),
(608,48,o),
(596,87,o),
(596,173,qs),
(596,428,ls),
(596,474,o),
(586,491,qs),
(581,502,o),
(561,502,q),
(507,500,ls),
(501,500,o),
(482,501,o),
(472,502,qs),
(450,503,ls),
(439,504,o),
(431,504,qs),
(383,504,o),
(383,478,qs),
(383,472,o),
(393,463,o),
(409,463,o),
(415,465,q),
(429,467,l),
(446,467,o),
(466,455,o),
(479,415,o),
(479,330,qs),
(479,82,l),
(434,47,o),
(323,47,o),
(283,87,qs),
(245,125,o),
(245,184,qs),
(245,428,ls),
(245,474,o),
(236,492,qs),
(230,502,o),
(209,502,q),
(155,500,ls),
(150,500,o),
(131,501,o),
(109,502,o),
(88,504,o),
(80,504,qs),
(32,504,o),
(32,478,qs),
(32,472,o),
(42,463,o),
(58,463,o),
(64,465,q),
(78,467,l),
(95,467,o),
(115,454,o),
(128,415,o),
(128,330,qs),
(128,-19,ls),
(128,-155,o),
(160,-212,qs),
(174,-238,o),
(210,-257,o),
(251,-257,o),
(271,-240,qs),
(283,-230,o),
(283,-211,qs),
(283,-182,o),
(252,-155,q),
(252,-155,l)
);
}
);
userData = {
assembly = "NPUSHB[ ]	/* 40 values pushed */
0 0 0 89 0 89 82 81 79 76 75 72 69 68 66 65 58 55 53 52 51 49 46 45 43 42 37 36 29 26 25 21 18 17 15 14 6 5 18 8
CALL[ ]	/* CallFunction */
MPPEM[ ]	/* MeasurePixelPerEm */
PUSHB[ ]	/* 1 value pushed */
21
LT[ ]	/* LessThan */
IF[ ]	/* If */
NPUSHB[ ]	/* 62 values pushed */
38 1 5 1 83 80 2 13 5 2 33 17 1 16 13 0 13 16 0 53 7 6 2 3 1 1 3 1 0 39 10 9 8 4 4 3 3 15 34 12 11 2 5 5 13 1 0 39 15 14 2 13 13 13 34 0 0 0 17 0 35 7
ELSE[ ]	/* Else */
NPUSHB[ ]	/* 72 values pushed */
38 1 5 1 83 80 2 13 11 2 33 17 1 16 15 0 15 16 0 53 7 6 2 3 1 1 3 1 0 39 10 9 8 4 4 3 3 15 34 12 1 11 11 13 1 0 39 14 1 13 13 13 34 0 5 5 15 1 0 39 0 15 15 13 34 0 0 0 17 0 35 9
EIF[ ]	/* EndIf */
PUSHB[ ]	/* 1 value pushed */
59
CALL[ ]	/* CallFunction */";
};
width = 748;
}
);
note = mu;
unicode = (181,956);
},
{
glyphname = paragraph;
lastChange = "2025-07-10 15:48:07 +0000";
layers = (
{
layerId = m01;
shapes = (
{
closed = 1;
nodes = (
(313,3,o),
(340,2,o),
(356,1,qs),
(387,0,ls),
(401,0,o),
(410,0,q),
(410,760,l),
(389,760,o),
(365,762,qs),
(350,762,o),
(325,764,o),
(297,770,o),
(237,770,qs),
(123,770,o),
(58,710,qs),
(1,657,o),
(1,580,qs),
(1,485,o),
(70,430,qs),
(102,404,o),
(187,377,o),
(264,377,o),
(297,384,q),
(297,172,ls),
(297,86,o),
(286,59,qs),
(276,35,o),
(243,35,q),
(205,40,l),
(197,40,o),
(188,30,o),
(188,24,qs),
(188,-1,o),
(236,-1,q),
(307,3,ls)
);
},
{
closed = 1;
nodes = (
(728,742,qs),
(728,752,o),
(718,759,qs),
(713,763,o),
(695,768,o),
(663,768,o),
(640,767,qs),
(549,762,ls),
(527,760,o),
(510,760,q),
(510,0,l),
(623,0,l),
(623,607,ls),
(623,637,o),
(625,660,qs),
(631,729,o),
(677,729,q),
(709,727,l),
(728,727,o)
);
}
);
userData = {
assembly = "NPUSHB[ ]	/* 30 values pushed */
35 35 1 0 35 53 35 53 48 43 42 41 37 36 27 24 22 20 13 12 7 6 5 4 0 34 1 28 12 8
CALL[ ]	/* CallFunction */
NPUSHB[ ]	/* 53 values pushed */
11 1 3 6 1 33 11 9 2 6 6 4 1 0 39 8 5 2 4 4 12 34 0 3 3 4 1 0 39 8 5 2 4 4 12 34 2 1 1 1 0 1 2 39 7 10 2 0 0 13 0 35 7
PUSHB[ ]	/* 1 value pushed */
59
CALL[ ]	/* CallFunction */";
};
width = 750;
}
);
note = paragraph;
unicode = 182;
},
{
glyphname = cedilla;
lastChange = "2025-07-10 15:48:07 +0000";
layers = (
{
layerId = m01;
shapes = (
{
closed = 1;
nodes = (
(100,-125,l),
(124,-116,o),
(159,-116,qs),
(181,-116,o),
(213,-145,o),
(213,-188,o),
(200,-207,qs),
(191,-219,o),
(174,-219,qs),
(131,-219,o),
(104,-191,qs),
(85,-174,o),
(64,-174,qs),
(53,-174,o),
(38,-192,o),
(38,-217,o),
(51,-228,qs),
(86,-257,o),
(151,-257,qs),
(201,-257,o),
(243,-225,qs),
(262,-211,o),
(284,-174,o),
(284,-138,o),
(274,-123,qs),
(243,-77,o),
(167,-77,qs),
(159,-77,l),
(182,14,l),
(131,22,l)
);
}
);
userData = {
assembly = "NPUSHB[ ]	/* 12 values pushed */
27 25 21 19 17 15 11 9 3 1 5 8
CALL[ ]	/* CallFunction */
NPUSHB[ ]	/* 43 values pushed */
28 1 2 4 1 33 29 0 2 0 31 0 2 4 3 4 2 3 53 0 0 0 4 2 0 4 1 0 41 0 3 3 1 1 0 39 0 1 1 17 1 35 6
PUSHB[ ]	/* 1 value pushed */
59
CALL[ ]	/* CallFunction */";
};
width = 327;
}
);
note = cedilla;
unicode = 184;
},
{
glyphname = onesuperior;
lastChange = "2025-07-10 15:48:07 +0000";
layers = (
{
layerId = m01;
shapes = (
{
closed = 1;
nodes = (
(281,312,o),
(297,329,o),
(297,343,o),
(289,357,o),
(280,357,q),
(253,354,l),
(224,354,o),
(224,427,qs),
(224,679,l),
(228,765,ls),
(228,777,o),
(208,777,qs),
(201,777,o),
(190,769,qs),
(164,748,ls),
(148,736,o),
(104,710,o),
(53,694,o),
(39,678,o),
(39,667,o),
(47,653,o),
(52,653,q),
(98,663,l),
(124,663,o),
(124,591,qs),
(124,427,ls),
(124,354,o),
(95,354,q),
(63,357,o),
(63,357,q),
(55,357,o),
(46,343,o),
(46,329,o),
(63,312,o),
(78,312,qs),
(173,317,l),
(265,312,l)
);
}
);
userData = {
assembly = "NPUSHB[ ]	/* 22 values pushed */
2 0 32 31 30 29 25 23 15 14 13 12 9 8 6 5 0 36 2 35 9 8
CALL[ ]	/* CallFunction */
NPUSHB[ ]	/* 29 values pushed */
4 1 3 5 1 5 3 1 53 7 6 2 3 1 8 1 0 1 0 1 2 40 0 5 5 12 5 35 3
PUSHB[ ]	/* 1 value pushed */
59
CALL[ ]	/* CallFunction */";
};
width = 336;
}
);
note = onesuperior;
unicode = 185;
},
{
glyphname = ordmasculine;
lastChange = "2025-07-10 15:48:07 +0000";
layers = (
{
layerId = m01;
shapes = (
{
closed = 1;
nodes = (
(454,425,qs),
(509,483,o),
(509,576,qs),
(509,656,o),
(456,712,qs),
(396,775,o),
(292,775,qs),
(201,775,o),
(137,714,qs),
(74,653,o),
(74,569,qs),
(74,487,o),
(122,432,qs),
(148,402,o),
(232,364,o),
(289,364,qs),
(395,364,o)
);
},
{
closed = 1;
nodes = (
(186,560,o),
(186,629,o),
(191,652,qs),
(210,728,o),
(272,728,qs),
(323,728,o),
(356,682,qs),
(373,658,o),
(394,583,o),
(394,472,o),
(371,439,qs),
(360,425,o),
(331,410,o),
(289,410,o),
(243,439,o),
(208,490,o)
);
}
);
userData = {
assembly = "NPUSHB[ ]	/* 14 values pushed */
1 0 28 26 19 18 10 8 0 16 1 16 5 8
CALL[ ]	/* CallFunction */
NPUSHB[ ]	/* 24 values pushed */
0 2 4 1 0 2 0 1 0 40 0 3 3 1 1 0 39 0 1 1 12 3 35 3
PUSHB[ ]	/* 1 value pushed */
59
CALL[ ]	/* CallFunction */";
};
width = 583;
}
);
note = ordmasculine;
unicode = 186;
},
{
glyphname = onequarter;
lastChange = "2025-07-10 15:48:07 +0000";
layers = (
{
layerId = m01;
shapes = (
{
closed = 1;
nodes = (
(263,23,qs),
(790,700,ls),
(815,732,o),
(815,750,qs),
(815,760,o),
(797,775,o),
(778,775,o),
(773,773,qs),
(760,769,o),
(730,730,qs),
(222,77,ls),
(203,53,o),
(186,26,o),
(186,4,o),
(202,-12,o),
(237,-12,o)
);
},
{
closed = 1;
nodes = (
(688,45,o),
(680,31,o),
(680,18,o),
(696,0,o),
(712,0,q),
(802,5,l),
(894,0,l),
(910,0,o),
(926,18,o),
(926,31,o),
(917,45,o),
(909,45,q),
(882,42,l),
(866,42,o),
(853,71,o),
(853,105,qs),
(853,126,l),
(919,126,ls),
(936,126,o),
(941,139,qs),
(961,190,o),
(961,208,o),
(951,208,qs),
(948,208,o),
(945,206,qs),
(912,184,o),
(880,184,qs),
(853,184,l),
(853,447,ls),
(853,474,o),
(826,472,qs),
(815,471,o),
(797,451,qs),
(559,178,ls),
(544,161,o),
(544,148,qs),
(544,142,o),
(552,133,qs),
(558,126,o),
(572,126,qs),
(755,126,l),
(755,105,ls),
(755,42,o),
(724,42,q),
(697,45,l)
);
},
{
closed = 1;
nodes = (
(755,329,l),
(755,184,l),
(629,184,l)
);
},
{
closed = 1;
nodes = (
(292,312,o),
(308,329,o),
(308,343,o),
(299,357,o),
(291,357,q),
(264,354,l),
(234,354,o),
(234,427,qs),
(234,679,l),
(238,765,ls),
(238,777,o),
(219,777,qs),
(211,777,o),
(201,769,qs),
(175,748,ls),
(159,736,o),
(115,710,o),
(64,694,o),
(49,678,o),
(49,667,o),
(58,653,o),
(63,653,q),
(109,663,l),
(135,663,o),
(135,591,qs),
(135,427,ls),
(135,354,o),
(105,354,q),
(74,357,l),
(65,357,o),
(57,343,o),
(57,329,o),
(73,312,o),
(89,312,qs),
(184,317,l),
(275,312,l)
);
}
);
userData = {
assembly = "NPUSHB[ ]	/* 56 values pushed */
66 64 61 61 0 0 95 94 93 92 88 86 78 77 76 75 72 71 70 69 64 99 66 98 61 63 61 63 60 59 56 52 49 48 47 46 43 41 38 36 34 32 30 29 21 19 17 16 0 15 0 15 9 8 24 8
CALL[ ]	/* CallFunction */
MPPEM[ ]	/* MeasurePixelPerEm */
PUSHB[ ]	/* 1 value pushed */
9
LT[ ]	/* LessThan */
IF[ ]	/* If */
NPUSHB[ ]	/* 86 values pushed */
62 1 13 14 1 33 17 1 16 0 4 0 16 4 53 0 4 14 0 4 14 51 0 6 13 5 13 6 5 53 20 19 15 3 14 23 1 13 6 14 13 1 2 41 22 12 2 5 7 1 3 2 5 3 1 0 41 18 1 0 0 12 34 11 9 8 3 2 2 10 1 2 39 0 10 10 13 34 21 1 1 1 13 1 35 10
ELSE[ ]	/* Else */
MPPEM[ ]	/* MeasurePixelPerEm */
PUSHB[ ]	/* 1 value pushed */
13
LT[ ]	/* LessThan */
IF[ ]	/* If */
NPUSHB[ ]	/* 82 values pushed */
62 1 13 14 1 33 17 1 16 0 4 0 16 4 53 0 4 14 0 4 14 51 0 6 13 5 13 6 5 53 20 19 15 3 14 23 1 13 6 14 13 1 2 41 22 12 2 5 7 1 3 2 5 3 1 0 41 18 1 0 0 12 34 11 9 8 3 2 2 1 1 2 39 10 21 2 1 1 16 1 35 9
ELSE[ ]	/* Else */
MPPEM[ ]	/* MeasurePixelPerEm */
PUSHB[ ]	/* 1 value pushed */
17
LT[ ]	/* LessThan */
IF[ ]	/* If */
NPUSHB[ ]	/* 82 values pushed */
62 1 13 14 1 33 17 1 16 0 4 0 16 4 53 0 4 14 0 4 14 51 0 6 13 5 13 6 5 53 20 19 15 3 14 23 1 13 6 14 13 1 2 41 22 12 2 5 7 1 3 2 5 3 1 0 41 18 1 0 0 12 34 11 9 8 3 2 2 1 1 2 39 10 21 2 1 1 13 1 35 9
ELSE[ ]	/* Else */
MPPEM[ ]	/* MeasurePixelPerEm */
PUSHB[ ]	/* 1 value pushed */
21
LT[ ]	/* LessThan */
IF[ ]	/* If */
NPUSHB[ ]	/* 86 values pushed */
62 1 13 14 1 33 17 1 16 0 4 0 16 4 53 0 4 14 0 4 14 51 0 6 13 5 13 6 5 53 20 19 15 3 14 23 1 13 6 14 13 1 2 41 22 12 2 5 7 1 3 2 5 3 1 0 41 18 1 0 0 12 34 11 9 8 3 2 2 10 1 2 39 0 10 10 13 34 21 1 1 1 16 1 35 10
ELSE[ ]	/* Else */
NPUSHB[ ]	/* 86 values pushed */
62 1 13 14 1 33 17 1 16 0 4 0 16 4 53 0 4 14 0 4 14 51 0 6 13 5 13 6 5 53 20 19 15 3 14 23 1 13 6 14 13 1 2 41 22 12 2 5 7 1 3 2 5 3 1 0 41 18 1 0 0 12 34 11 9 8 3 2 2 10 1 2 39 0 10 10 13 34 21 1 1 1 13 1 35 10
EIF[ ]	/* EndIf */
EIF[ ]	/* EndIf */
EIF[ ]	/* EndIf */
EIF[ ]	/* EndIf */
PUSHB[ ]	/* 1 value pushed */
59
CALL[ ]	/* CallFunction */";
};
width = 998;
}
);
note = onequarter;
unicode = 188;
},
{
glyphname = onehalf;
lastChange = "2025-07-10 15:48:07 +0000";
layers = (
{
layerId = m01;
shapes = (
{
closed = 1;
nodes = (
(263,23,qs),
(790,700,ls),
(815,732,o),
(815,750,qs),
(815,760,o),
(797,775,o),
(779,775,o),
(773,773,qs),
(760,769,o),
(730,730,qs),
(222,77,ls),
(203,53,o),
(187,26,o),
(187,4,o),
(202,-12,o),
(237,-12,o)
);
},
{
closed = 1;
nodes = (
(292,312,o),
(308,329,o),
(308,343,o),
(299,357,o),
(291,357,q),
(264,354,l),
(234,354,o),
(234,427,qs),
(234,679,l),
(238,765,ls),
(238,777,o),
(219,777,qs),
(211,777,o),
(201,769,qs),
(175,748,ls),
(159,736,o),
(115,710,o),
(64,694,o),
(49,678,o),
(49,667,o),
(58,653,o),
(63,653,q),
(109,663,l),
(135,663,o),
(135,591,qs),
(135,427,ls),
(135,354,o),
(105,354,q),
(74,357,l),
(65,357,o),
(57,343,o),
(57,329,o),
(73,312,o),
(89,312,qs),
(184,317,l),
(275,312,l)
);
},
{
closed = 1;
nodes = (
(941,17,o),
(947,35,qs),
(970,98,ls),
(974,109,o),
(974,120,o),
(963,126,o),
(959,126,qs),
(950,126,o),
(937,114,qs),
(915,91,o),
(883,83,qs),
(864,79,o),
(813,79,qs),
(727,79,l),
(758,133,o),
(831,189,qs),
(869,218,o),
(893,238,qs),
(963,300,o),
(963,351,qs),
(963,399,o),
(923,430,qs),
(902,445,o),
(843,462,o),
(785,462,o),
(763,458,qs),
(687,446,o),
(644,410,q),
(644,328,ls),
(644,315,o),
(658,306,o),
(663,306,qs),
(679,306,o),
(688,334,qs),
(694,350,o),
(706,366,qs),
(742,414,o),
(788,414,qs),
(824,414,o),
(862,373,o),
(862,316,o),
(837,281,qs),
(822,260,o),
(771,214,qs),
(695,148,o),
(664,96,qs),
(650,72,o),
(640,34,o),
(640,-1,o),
(657,-1,qs),
(937,-1,l)
);
}
);
userData = {
assembly = "NPUSHB[ ]	/* 46 values pushed */
53 52 18 16 0 0 96 94 90 88 78 77 71 69 65 63 52 102 53 102 47 46 45 44 40 38 30 29 28 27 24 23 22 21 16 51 18 50 0 15 0 15 9 8 19 8
CALL[ ]	/* CallFunction */
MPPEM[ ]	/* MeasurePixelPerEm */
PUSHB[ ]	/* 1 value pushed */
9
LT[ ]	/* LessThan */
IF[ ]	/* If */
NPUSHB[ ]	/* 71 values pushed */
74 1 3 11 1 33 6 1 5 0 13 0 5 13 53 0 15 2 14 2 15 14 53 0 13 0 11 3 13 11 1 2 41 9 8 4 3 3 12 17 2 2 15 3 2 1 0 41 7 1 0 0 12 34 0 14 14 1 1 0 39 18 10 16 3 1 1 13 1 35 8
ELSE[ ]	/* Else */
MPPEM[ ]	/* MeasurePixelPerEm */
PUSHB[ ]	/* 1 value pushed */
13
LT[ ]	/* LessThan */
IF[ ]	/* If */
NPUSHB[ ]	/* 71 values pushed */
74 1 3 11 1 33 6 1 5 0 13 0 5 13 53 0 15 2 14 2 15 14 53 0 13 0 11 3 13 11 1 2 41 9 8 4 3 3 12 17 2 2 15 3 2 1 0 41 7 1 0 0 12 34 0 14 14 1 1 0 39 18 10 16 3 1 1 16 1 35 8
ELSE[ ]	/* Else */
MPPEM[ ]	/* MeasurePixelPerEm */
PUSHB[ ]	/* 1 value pushed */
17
LT[ ]	/* LessThan */
IF[ ]	/* If */
NPUSHB[ ]	/* 71 values pushed */
74 1 3 11 1 33 6 1 5 0 13 0 5 13 53 0 15 2 14 2 15 14 53 0 13 0 11 3 13 11 1 2 41 9 8 4 3 3 12 17 2 2 15 3 2 1 0 41 7 1 0 0 12 34 0 14 14 1 1 0 39 18 10 16 3 1 1 13 1 35 8
ELSE[ ]	/* Else */
MPPEM[ ]	/* MeasurePixelPerEm */
PUSHB[ ]	/* 1 value pushed */
21
LT[ ]	/* LessThan */
IF[ ]	/* If */
NPUSHB[ ]	/* 71 values pushed */
74 1 3 11 1 33 6 1 5 0 13 0 5 13 53 0 15 2 14 2 15 14 53 0 13 0 11 3 13 11 1 2 41 9 8 4 3 3 12 17 2 2 15 3 2 1 0 41 7 1 0 0 12 34 0 14 14 1 1 0 39 18 10 16 3 1 1 16 1 35 8
ELSE[ ]	/* Else */
NPUSHB[ ]	/* 71 values pushed */
74 1 3 11 1 33 6 1 5 0 13 0 5 13 53 0 15 2 14 2 15 14 53 0 13 0 11 3 13 11 1 2 41 9 8 4 3 3 12 17 2 2 15 3 2 1 0 41 7 1 0 0 12 34 0 14 14 1 1 0 39 18 10 16 3 1 1 13 1 35 8
EIF[ ]	/* EndIf */
EIF[ ]	/* EndIf */
EIF[ ]	/* EndIf */
EIF[ ]	/* EndIf */
PUSHB[ ]	/* 1 value pushed */
59
CALL[ ]	/* CallFunction */";
};
width = 1005;
}
);
note = onehalf;
unicode = 189;
},
